<?xml version="1.0" standalone="no"?>
<!DOCTYPE svg PUBLIC "-//W3C//DTD SVG 1.1//EN" "http://www.w3.org/Graphics/SVG/1.1/DTD/svg11.dtd" >
<svg>
<metadata>
Created by FontForge 20090622 at Wed Jun 19 17:55:16 2019
 By deploy user
Samsung Sharp Sans is a customized version of Sharp Sans, which is copyright (c) 2015 by Lucas Sharp. All rights reserved.
</metadata>
<defs>
<font id="SamsungSharpSans-Medium" horiz-adv-x="461" >
  <font-face 
    font-family="Samsung Sharp Sans"
    font-weight="500"
    font-stretch="normal"
    units-per-em="1000"
    panose-1="2 0 6 3 0 0 0 2 0 4"
    ascent="800"
    descent="-200"
    x-height="585"
    cap-height="730"
    bbox="-75 -285 1370 1085"
    underline-thickness="50"
    underline-position="-50"
    unicode-range="U+000D-U+FB79"
  />
<missing-glyph horiz-adv-x="926" 
d="M100 0v730h726v-730h-726zM236 600v-470h454v470h-454zM340 162l-80 78l123 127l-124 129l80 78l122 -126l124 127l80 -78l-126 -130l125 -128l-80 -78l-123 126z" />
    <glyph glyph-name="uni203D" unicode="&#x21;&#x3f;" horiz-adv-x="533" 
d="M294 189h-71q-7 250 -7 424v39q-64 -16 -95 -87l-88 34q24 64 82.5 102.5t143.5 38.5q100 0 163.5 -53.5t63.5 -139.5q0 -52 -20 -87.5t-48 -56.5l-56 -43.5t-48 -62.5t-20 -98v-10zM179 63q0 32 20 52t52 20q35 0 54.5 -19.5t19.5 -52.5t-19.5 -52.5t-54.5 -19.5
q-33 0 -52.5 19.5t-19.5 52.5zM389 548q0 38 -23 65t-63 38v-38q0 -89 -7 -217q11 13 32 33.5t31.5 32.5t20 35t9.5 51z" />
    <glyph glyph-name="uniE935" unicode="&#xa1;&#xbf;" horiz-adv-x="533" 
d="M275 -240q-100 0 -163.5 53.5t-63.5 139.5q0 52 20 87.5t48 56.5l56 43.5t48 62.5t20 98v10h72q6 -212 6 -424v-39q65 17 96 87l88 -34q-24 -63 -83 -102t-144 -39zM206 431q0 32 20 52t52 20q35 0 54.5 -19.5t19.5 -52.5t-19.5 -52.5t-54.5 -19.5q-33 0 -52.5 19.5
t-19.5 52.5zM146 -48q0 -38 22.5 -65t62.5 -38v38q0 88 7 216q-11 -13 -31.5 -33.5t-31.5 -32.5t-20 -35t-9 -50z" />
    <glyph glyph-name="uniFB76" unicode="&#x683;" horiz-adv-x="512" arabic-form="isolated" 
d="M57 0v596h205q95 0 153.5 -56.5t58.5 -139.5q0 -58 -29.5 -104.5t-82.5 -70.5l123 -225h-108l-104 199h-120v-199h-96zM256 508h-103v-220h100q58 0 90.5 32t32.5 79q0 50 -31 79.5t-89 29.5z" />
    <glyph glyph-name="uniFB77" unicode="&#x683;" horiz-adv-x="512" arabic-form="final" 
d="M57 0v596h205q95 0 153.5 -56.5t58.5 -139.5q0 -58 -29.5 -104.5t-82.5 -70.5l123 -225h-108l-104 199h-120v-199h-96zM256 508h-103v-220h100q58 0 90.5 32t32.5 79q0 50 -31 79.5t-89 29.5zM193 653l116 163h105l-146 -163h-75z" />
    <glyph glyph-name="uniFB78" unicode="&#x683;" horiz-adv-x="512" arabic-form="initial" 
d="M57 0v596h205q95 0 153.5 -56.5t58.5 -139.5q0 -58 -29.5 -104.5t-82.5 -70.5l123 -225h-108l-104 199h-120v-199h-96zM256 508h-103v-220h100q58 0 90.5 32t32.5 79q0 50 -31 79.5t-89 29.5zM219 653l-119 163h85l68 -98l70 98h84l-119 -163h-69z" />
    <glyph glyph-name="uniFB79" unicode="&#x683;" horiz-adv-x="512" arabic-form="medial" 
d="M57 0v596h205q95 0 153.5 -56.5t58.5 -139.5q0 -58 -29.5 -104.5t-82.5 -70.5l123 -225h-108l-104 199h-120v-199h-96zM256 508h-103v-220h100q58 0 90.5 32t32.5 79q0 50 -31 79.5t-89 29.5zM237 -255h-63l40 204h86z" />
    <glyph glyph-name=".notdef" horiz-adv-x="926" 
d="M100 0v730h726v-730h-726zM236 600v-470h454v470h-454zM340 162l-80 78l123 127l-124 129l80 78l122 -126l124 127l80 -78l-126 -130l125 -128l-80 -78l-123 126z" />
    <glyph glyph-name="uni0000" horiz-adv-x="0" 
 />
    <glyph glyph-name="uni0000" horiz-adv-x="0" 
 />
    <glyph glyph-name="uni000D" unicode="&#xd;" horiz-adv-x="250" 
 />
    <glyph glyph-name="space" unicode=" " horiz-adv-x="249" 
 />
    <glyph glyph-name="exclam" unicode="!" horiz-adv-x="228" 
d="M141 195h-53q-21 197 -21 418v117h96v-117q0 -244 -22 -418zM42 63q0 32 20 52t52 20q35 0 54.5 -19.5t19.5 -52.5t-19.5 -52.5t-54.5 -19.5q-33 0 -52.5 19.5t-19.5 52.5z" />
    <glyph glyph-name="quotedbl" unicode="&#x22;" horiz-adv-x="307" 
d="M105 500h-29q-7 21 -16 70t-9 76v84h79v-84q0 -27 -9 -76t-16 -70zM231 500h-29q-7 21 -16 70t-9 76v84h80v-84q0 -26 -9.5 -75.5t-16.5 -70.5z" />
    <glyph glyph-name="numbersign" unicode="#" horiz-adv-x="821" 
d="M506 0v179h-195v-179h-96v179h-177v92h177v196h-177v93h177v170h96v-170h195v170h98v-170h179v-93h-179v-196h179v-92h-179v-179h-98zM311 467v-196h195v196h-195z" />
    <glyph glyph-name="dollar" unicode="$" horiz-adv-x="588" 
d="M552 206q0 -78 -55.5 -138.5t-148.5 -74.5v-113h-97v113q-136 16 -223 120l81 70q54 -81 144 -98v263q-42 13 -71.5 27t-61.5 36.5t-48.5 56t-16.5 76.5q0 76 53.5 129.5t142.5 63.5v103h97v-104q115 -16 188 -105l-79 -59q-42 60 -111 77v-233q45 -15 74.5 -28.5
t63.5 -37.5t51 -60t17 -84zM454 206q0 74 -108 112v-233q51 11 79.5 43.5t28.5 77.5zM152 547q0 -38 26 -61t75 -40v205q-47 -8 -74 -36t-27 -68z" />
    <glyph glyph-name="percent" unicode="%" horiz-adv-x="844" 
d="M133 568q0 -38 26.5 -65t63.5 -27t63 27t26 65t-26 64.5t-63 26.5t-63.5 -26.5t-26.5 -64.5zM458 162q0 71 50 121.5t122 50.5q71 0 121.5 -50.5t50.5 -121.5q0 -72 -50.5 -122.5t-121.5 -50.5q-72 0 -122 50.5t-50 122.5zM52 0l627 730h122l-627 -730h-122zM540 162
q0 -38 26 -65t64 -27q37 0 63 27t26 65t-26 64.5t-63 26.5q-38 0 -64 -26.5t-26 -64.5zM51 568q0 72 50.5 122t121.5 50t121.5 -50t50.5 -122t-50.5 -122.5t-121.5 -50.5t-121.5 50.5t-50.5 122.5z" />
    <glyph glyph-name="ampersand" unicode="&#x26;" horiz-adv-x="756" 
d="M599 0l-67 66q-98 -77 -210 -77q-143 0 -214 71.5t-71 166.5q0 69 35.5 124t96.5 90q-39 58 -39 123q0 74 53.5 125t141.5 51q133 0 191 -110l-88 -41q-36 66 -102 66q-43 0 -69.5 -26t-26.5 -65q0 -41 24 -75.5t97 -107.5l188 -188q60 76 78 175h-127v91h222v-42
q0 -70 -29.5 -146t-82.5 -139l131 -132h-132zM321 75q79 0 150 51l-199 200l-47 48q-92 -54 -92 -146q0 -61 49.5 -107t138.5 -46z" />
    <glyph glyph-name="quotesingle" unicode="'" horiz-adv-x="181" 
d="M105 500h-29q-7 21 -16 70t-9 76v84h79v-84q0 -27 -9 -76t-16 -70z" />
    <glyph glyph-name="parenleft" unicode="(" horiz-adv-x="411" 
d="M379 -172l-63 -78q-277 189 -277 500q0 165 71.5 284.5t199.5 211.5l66 -72q-235 -161 -235 -423q0 -269 238 -423z" />
    <glyph glyph-name="parenright" unicode=")" horiz-adv-x="411" 
d="M270 249q0 264 -234 424l65 72q128 -92 199.5 -211.5t71.5 -284.5q0 -311 -277 -500l-62 77q237 159 237 423z" />
    <glyph glyph-name="asterisk" unicode="*" horiz-adv-x="424" 
d="M342 429l-108 86l20 -138h-84l19 138l-110 -86l-42 74l129 51l-129 53l43 73l110 -88l-20 139h84l-20 -138l110 86l42 -74l-131 -51l131 -52z" />
    <glyph glyph-name="plus" unicode="+" 
d="M46 324v82h145v143h80v-143h145v-82h-145v-145h-80v145h-145z" />
    <glyph glyph-name="comma" unicode="," horiz-adv-x="202" 
d="M21 -117l47 204h106l-86 -204h-67z" />
    <glyph glyph-name="hyphen" unicode="-" 
d="M46 211v83h370v-83h-370z" />
    <glyph glyph-name="period" unicode="." horiz-adv-x="230" 
d="M42 63q0 32 20 52t52 20q35 0 54.5 -19.5t19.5 -52.5t-19.5 -52.5t-54.5 -19.5q-33 0 -52.5 19.5t-19.5 52.5z" />
    <glyph glyph-name="slash" unicode="/" horiz-adv-x="489" 
d="M21 0l346 730h103l-346 -730h-103z" />
    <glyph glyph-name="zero" unicode="0" horiz-adv-x="588" 
d="M293 83q68 0 105 39t37 104v272q0 71 -36.5 110.5t-103.5 39.5t-104.5 -41t-37.5 -109v-270q0 -67 36 -106t104 -39zM294 -10q-113 0 -175 63.5t-62 171.5v274q0 105 66 173t171 68q106 0 172 -68.5t66 -171.5v-276q0 -111 -62.5 -172.5t-175.5 -61.5z" />
    <glyph glyph-name="one" unicode="1" horiz-adv-x="323" 
d="M244 0h-96v639h-119v91h215v-730z" />
    <glyph glyph-name="two" unicode="2" horiz-adv-x="565" 
d="M52 0v94q0 34 12.5 66.5t29 56.5t46.5 51t52 44t58 42q94 68 120 95q43 45 43 89q0 52 -36 84.5t-98 32.5q-99 0 -151 -108l-84 44q34 69 94 109t141 40q105 0 169 -58.5t64 -144.5q0 -33 -12 -64t-28 -53.5t-45.5 -49t-50.5 -41.5l-57 -40l-64.5 -46t-50 -42.5t-41 -52
t-12.5 -54.5v-1h367v-93h-466z" />
    <glyph glyph-name="three" unicode="3" horiz-adv-x="543" 
d="M260 -10q-148 0 -234 103l82 63q57 -78 152 -78q66 0 105.5 35t39.5 92t-45 92t-114 35h-72v90h72q67 0 105.5 32.5t38.5 85.5t-37.5 84t-100.5 31q-88 0 -138 -77l-81 49q34 52 91 82.5t129 30.5q107 0 169.5 -55t62.5 -144q0 -108 -96 -161q113 -54 113 -175
q0 -95 -65 -155t-177 -60z" />
    <glyph glyph-name="four" unicode="4" horiz-adv-x="617" 
d="M374 0v168h-333v89l330 473h99v-474h107v-88h-107v-168h-96zM146 256h228v325z" />
    <glyph glyph-name="five" unicode="5" horiz-adv-x="579" 
d="M291 -10q-87 0 -151 37t-96 99l90 54q50 -100 157 -100q64 0 108 42.5t44 109.5q0 70 -45 113t-108 43q-105 0 -153 -95l-89 39l56 398h394v-91h-314l-31 -214q62 51 143 51q103 0 174 -63.5t71 -180.5q0 -107 -70.5 -174.5t-179.5 -67.5z" />
    <glyph glyph-name="six" unicode="6" horiz-adv-x="594" 
d="M297 -10q-111 0 -185 72.5t-74 178.5q0 104 56 181l205 308h115l-166 -245q30 10 67 10q101 0 171 -72t70 -181q0 -108 -74.5 -180t-184.5 -72zM296 78q68 0 116 48.5t48 117.5q0 68 -48 116t-116 48q-69 0 -116 -47.5t-47 -116.5t47 -117.5t116 -48.5z" />
    <glyph glyph-name="seven" unicode="7" horiz-adv-x="530" 
d="M97 0l293 637h-352v93h452v-84l-290 -646h-103z" />
    <glyph glyph-name="eight" unicode="8" horiz-adv-x="549" 
d="M275 -10q-106 0 -170 61.5t-64 158.5q0 56 27.5 103t73.5 76q-77 57 -77 153q0 87 60 142.5t152 55.5q91 0 151 -56t60 -142q0 -94 -79 -153q46 -28 73 -75t27 -104q0 -96 -64.5 -158t-169.5 -62zM274 78q62 0 101.5 38.5t39.5 93.5q0 56 -38.5 94.5t-100.5 38.5
q-61 0 -101 -38.5t-40 -94.5q0 -55 39 -93.5t100 -38.5zM275 427q53 0 87.5 33t34.5 82t-33.5 82t-86.5 33t-87.5 -33t-34.5 -82t33.5 -82t86.5 -33z" />
    <glyph glyph-name="nine" unicode="9" horiz-adv-x="591" 
d="M178 0l167 248q-30 -10 -67 -10q-101 0 -171 72t-70 178q0 109 74 180.5t184 71.5t184 -72.5t74 -178.5q0 -102 -55 -177l-205 -312h-115zM296 325q68 0 115 47.5t47 115.5q0 69 -47 117t-115 48q-67 0 -115 -48.5t-48 -116.5t48 -115.5t115 -47.5z" />
    <glyph glyph-name="colon" unicode=":" horiz-adv-x="230" 
d="M42 63q0 32 20 52t52 20q35 0 54.5 -19.5t19.5 -52.5t-19.5 -52.5t-54.5 -19.5q-33 0 -52.5 19.5t-19.5 52.5zM42 426q0 32 20 52t52 20q35 0 54.5 -19.5t19.5 -52.5t-19.5 -52.5t-54.5 -19.5q-33 0 -52.5 19.5t-19.5 52.5z" />
    <glyph glyph-name="semicolon" unicode=";" horiz-adv-x="230" 
d="M42 426q0 32 20 52t52 20q35 0 54.5 -19.5t19.5 -52.5t-19.5 -52.5t-54.5 -19.5q-33 0 -52.5 19.5t-19.5 52.5zM21 -117l47 204h106l-86 -204h-67z" />
    <glyph glyph-name="less" unicode="&#x3c;" 
d="M416 184l-370 140v82l370 138v-85l-270 -94l270 -95v-86z" />
    <glyph glyph-name="equal" unicode="=" 
d="M46 404v83h370v-83h-370zM46 240v82h370v-82h-370z" />
    <glyph glyph-name="greater" unicode="&#x3e;" 
d="M46 184v86l270 95l-270 94v85l370 -138v-82z" />
    <glyph glyph-name="question" unicode="?" horiz-adv-x="533" 
d="M207 189v10q0 58 13.5 102t33.5 68t43.5 46t43.5 37t33.5 40t13.5 57q0 47 -35 77t-89 30q-94 0 -133 -91l-88 34q25 64 81.5 102.5t140.5 38.5q97 0 159 -53t62 -139q0 -52 -20 -88.5t-48 -58l-56 -44t-48 -62t-20 -96.5v-10h-87zM179 63q0 32 20 52t52 20
q35 0 54.5 -19.5t19.5 -52.5t-19.5 -52.5t-54.5 -19.5q-33 0 -52.5 19.5t-19.5 52.5z" />
    <glyph glyph-name="at" unicode="@" horiz-adv-x="825" 
d="M412 -125q-156 0 -264.5 109.5t-108.5 265.5q0 155 111 265t267 110q160 0 264.5 -101.5t104.5 -235.5q0 -88 -43.5 -148.5t-118.5 -60.5q-80 0 -116 58q-42 -59 -129 -59q-67 0 -115 49.5t-40 131.5q9 85 63 132t117 47q71 0 106 -47q2 11 3 21.5t1 12.5v7h84l-20 -181
q-10 -90 52 -90q35 0 54.5 34.5t19.5 91.5q0 103 -81 180.5t-207 77.5q-122 0 -207.5 -86t-85.5 -209t84 -209t205 -86q125 0 213 91l62 -52q-50 -54 -121.5 -86.5t-153.5 -32.5zM397 156q41 0 68.5 30t31.5 74q5 42 -17 72t-63 30t-72 -28t-34 -74q-6 -44 19 -74t67 -30z
" />
    <glyph glyph-name="A" unicode="A" horiz-adv-x="696" 
d="M27 0l271 730h101l270 -730h-101l-62 167h-316l-61 -167h-102zM348 597l-124 -337h248z" />
    <glyph glyph-name="B" unicode="B" horiz-adv-x="610" 
d="M60 0v730h255q107 0 170 -52.5t63 -144.5q0 -106 -89 -152q111 -45 111 -172q0 -98 -65 -153.5t-174 -55.5h-271zM327 331h-171v-242h175q65 0 103.5 33t38.5 88q0 57 -36.5 89t-109.5 32zM314 642h-158v-221h164q64 0 97.5 30.5t33.5 81.5t-35.5 80t-101.5 29z" />
    <glyph glyph-name="C" unicode="C" horiz-adv-x="769" 
d="M414 -10q-159 0 -267 109.5t-108 265.5q0 159 109 267t266 108q101 0 187.5 -50t135.5 -134l-85 -52q-36 67 -97.5 105t-140.5 38q-118 0 -197.5 -82t-79.5 -200q0 -117 79.5 -198.5t196.5 -81.5q86 0 149 41t98 113l87 -46q-49 -93 -136 -148t-197 -55z" />
    <glyph glyph-name="D" unicode="D" horiz-adv-x="684" 
d="M60 0v730h203q172 0 277 -103.5t105 -261.5q0 -156 -108 -260.5t-270 -104.5h-207zM254 641h-98v-551h101q128 0 209 78.5t81 196.5q0 121 -79 198.5t-214 77.5z" />
    <glyph glyph-name="E" unicode="E" horiz-adv-x="550" 
d="M60 0v730h440v-92h-344v-226h344v-92h-344v-227h344v-93h-440z" />
    <glyph glyph-name="F" unicode="F" horiz-adv-x="524" 
d="M60 0v730h413v-92h-317v-226h317v-92h-317v-320h-96z" />
    <glyph glyph-name="G" unicode="G" horiz-adv-x="820" 
d="M418 -10q-162 0 -270.5 110t-108.5 265q0 158 108 266.5t271 108.5q106 0 191.5 -50.5t134.5 -136.5l-84 -51q-37 69 -99.5 107t-142.5 38q-122 0 -201.5 -82t-79.5 -200t80 -199.5t201 -81.5q109 0 177.5 60.5t84.5 159.5h-274v92h375v-34q0 -156 -99 -264t-264 -108z
" />
    <glyph glyph-name="H" unicode="H" horiz-adv-x="665" 
d="M508 0v320h-352v-320h-96v730h96v-317h352v317h97v-730h-97z" />
    <glyph glyph-name="I" unicode="I" horiz-adv-x="233" 
d="M68 0v730h97v-730h-97z" />
    <glyph glyph-name="J" unicode="J" horiz-adv-x="484" 
d="M230 -10q-73 0 -126.5 35t-74.5 93l92 43q12 -37 40 -59t67 -22q48 0 74.5 31.5t26.5 86.5v532h97v-526q0 -102 -51.5 -158t-144.5 -56z" />
    <glyph glyph-name="K" unicode="K" horiz-adv-x="634" 
d="M504 0l-228 375l-120 -142v-233h-96v730h96v-370l312 370h119l-243 -289l272 -441h-112z" />
    <glyph glyph-name="L" unicode="L" horiz-adv-x="512" 
d="M60 0v730h96v-637h309v-93h-405z" />
    <glyph glyph-name="M" unicode="M" horiz-adv-x="836" 
d="M60 0v730h97l259 -359l263 353v6h96v-730h-96v575l-265 -358l-258 353v-570h-96z" />
    <glyph glyph-name="N" unicode="N" horiz-adv-x="720" 
d="M60 0v730h110l393 -574v574h96v-730h-103l-400 582v-582h-96z" />
    <glyph glyph-name="O" unicode="O" horiz-adv-x="827" 
d="M413 -10q-155 0 -264.5 110t-109.5 265t109.5 265t264.5 110q156 0 265.5 -110t109.5 -265t-109.5 -265t-265.5 -110zM413 84q116 0 197 82.5t81 198.5q0 117 -80.5 199t-197.5 82q-116 0 -196 -82t-80 -199q0 -116 80 -198.5t196 -82.5z" />
    <glyph glyph-name="P" unicode="P" horiz-adv-x="603" 
d="M60 0v730h236q116 0 190.5 -73t74.5 -181q0 -109 -74.5 -182t-191.5 -73h-139v-221h-96zM289 641h-133v-329h133q79 0 126.5 47t47.5 117q0 71 -47.5 118t-126.5 47z" />
    <glyph glyph-name="Q" unicode="Q" horiz-adv-x="827" 
d="M662 0l-264 330h117l113 -139q63 76 63 174q0 117 -80.5 199t-197.5 82q-116 0 -196 -82t-80 -199q0 -116 80 -198.5t196 -82.5q56 0 109 24l60 -76q-79 -42 -169 -42q-155 0 -264.5 110t-109.5 265t109.5 265t264.5 110q156 0 265.5 -110t109.5 -265q0 -140 -98 -251
l93 -114h-121z" />
    <glyph glyph-name="R" unicode="R" horiz-adv-x="593" 
d="M60 0v730h234q112 0 183 -67.5t71 -168.5q0 -72 -41 -131t-108 -87l160 -276h-109l-144 254h-151v-254h-95zM284 640h-129v-297h128q78 0 122.5 46t44.5 105q0 67 -43.5 106.5t-122.5 39.5z" />
    <glyph glyph-name="S" unicode="S" horiz-adv-x="562" 
d="M282 -10q-166 0 -265 130l85 66q68 -105 179 -105q63 0 102.5 35t39.5 90q0 23 -10 42t-23.5 31.5t-39 25t-44.5 19t-52 16.5q-47 15 -75.5 27.5t-62.5 36t-50.5 58.5t-16.5 82q0 83 66 139.5t164 56.5q140 0 231 -106l-79 -59q-52 79 -152 79q-59 0 -95 -30t-36 -78
q0 -60 74 -94q20 -10 92 -34q39 -13 61.5 -22.5t54.5 -28t49.5 -38.5t30.5 -52t13 -71q0 -88 -67 -152t-174 -64z" />
    <glyph glyph-name="T" unicode="T" horiz-adv-x="597" 
d="M251 0v639h-212v91h520v-91h-212v-639h-96z" />
    <glyph glyph-name="U" unicode="U" horiz-adv-x="625" 
d="M312 -10q-111 0 -182.5 70t-71.5 184v486h96v-492q0 -64 46 -110.5t112 -46.5t112.5 46.5t46.5 110.5v492h96v-486q0 -113 -72 -183.5t-183 -70.5z" />
    <glyph glyph-name="V" unicode="V" horiz-adv-x="671" 
d="M286 0l-259 730h101l208 -589l207 589h101l-260 -730h-98z" />
    <glyph glyph-name="W" unicode="W" horiz-adv-x="1051" 
d="M240 0l-211 730h102l162 -578l185 578h95l184 -579l167 579h99l-217 -730h-97l-184 579l-186 -579h-99z" />
    <glyph glyph-name="X" unicode="X" horiz-adv-x="644" 
d="M511 0l-189 292l-188 -292h-109l241 373l-229 357h109l177 -274l176 274h109l-228 -355l240 -375h-109z" />
    <glyph glyph-name="Y" unicode="Y" horiz-adv-x="621" 
d="M263 0v346l-239 384h107l180 -291l180 291h107l-239 -384v-346h-96z" />
    <glyph glyph-name="Z" unicode="Z" horiz-adv-x="583" 
d="M50 0v89l369 549h-357v92h471v-88l-369 -549h370v-93h-484z" />
    <glyph glyph-name="bracketleft" unicode="[" horiz-adv-x="364" 
d="M46 -230v960h273v-92h-176v-776h176v-92h-273z" />
    <glyph glyph-name="backslash" unicode="\" horiz-adv-x="489" 
d="M367 0l-346 730h103l346 -730h-103z" />
    <glyph glyph-name="bracketright" unicode="]" horiz-adv-x="364" 
d="M46 -230v92h176v776h-176v92h273v-960h-273z" />
    <glyph glyph-name="asciicircum" unicode="^" horiz-adv-x="489" 
d="M90 535l120 169h67l123 -169h-84l-72 101l-70 -101h-84z" />
    <glyph glyph-name="underscore" unicode="_" horiz-adv-x="515" 
d="M46 -92v82h424v-82h-424z" />
    <glyph glyph-name="grave" unicode="`" horiz-adv-x="489" 
d="M271 557l-146 163h104l117 -163h-75z" />
    <glyph glyph-name="a" unicode="a" horiz-adv-x="712" 
d="M339 -12q-124 0 -211 87.5t-87 216.5q0 130 86.5 217.5t211.5 87.5q63 0 121.5 -29t93.5 -80v97h94v-585h-94v99q-35 -54 -95 -82q-60 -29 -120 -29zM348 76q90 0 151.5 63t61.5 154q0 90 -61.5 153.5t-151.5 63.5q-88 0 -149.5 -63.5t-61.5 -153.5q0 -91 61.5 -154
t149.5 -63z" />
    <glyph glyph-name="b" unicode="b" horiz-adv-x="710" 
d="M373 -12q-64 0 -123 29t-93 81v-98h-92v740h93v-252q35 51 93 80t121 29q126 0 212 -87t86 -218q0 -129 -87 -216.5t-210 -87.5zM364 76q88 0 149 63t61 154q0 90 -61 153.5t-149 63.5q-91 0 -152 -63t-61 -154q0 -92 60.5 -154.5t152.5 -62.5z" />
    <glyph glyph-name="c" unicode="c" horiz-adv-x="659" 
d="M348 -12q-131 0 -219 88.5t-88 215.5q0 130 88.5 217.5t218.5 87.5q94 0 167.5 -49t106.5 -129l-85 -36q-27 60 -76 93t-114 33q-89 0 -149.5 -63t-60.5 -154q0 -90 61 -153t152 -63q67 0 116 36.5t74 96.5l87 -38q-35 -83 -107.5 -133t-171.5 -50z" />
    <glyph glyph-name="d" unicode="d" horiz-adv-x="711" 
d="M339 -12q-124 0 -211 87.5t-87 216.5q0 130 86.5 217.5t211.5 87.5q62 0 121 -28.5t93 -79.5v251h94v-740h-93v99q-35 -54 -95 -82q-60 -29 -120 -29zM348 76q90 0 151.5 63t61.5 154q0 90 -61.5 153.5t-151.5 63.5q-88 0 -149.5 -63.5t-61.5 -153.5q0 -91 61.5 -154
t149.5 -63z" />
    <glyph glyph-name="e" unicode="e" horiz-adv-x="688" 
d="M350 -12q-138 0 -223.5 85.5t-85.5 215.5q0 131 87 219.5t217 88.5q129 0 214.5 -83t85.5 -214v-40h-511q10 -84 69 -135.5t147 -51.5q68 0 118 33t77 91l81 -43q-85 -166 -276 -166zM345 512q-77 0 -133 -46.5t-73 -120.5h409q-13 79 -66 123t-137 44z" />
    <glyph glyph-name="f" unicode="f" horiz-adv-x="393" 
d="M27 499v86h102v9q0 132 46.5 179t176.5 47h9v-89q-90 0 -113.5 -24.5t-23.5 -113.5v-8h137v-86h-137v-499h-95v499h-102z" />
    <glyph glyph-name="g" unicode="g" horiz-adv-x="714" 
d="M339 -12q-124 0 -211 87.5t-87 216.5q0 130 86.5 217.5t211.5 87.5q64 0 122 -29.5t93 -81.5v99h95v-574q0 -134 -83 -215t-217 -81q-195 0 -284 155l84 50q35 -59 80 -89t121 -30q94 0 149 57t55 150v91q-35 -54 -95 -82q-60 -29 -120 -29zM348 76q90 0 151.5 63
t61.5 154q0 90 -61.5 153.5t-151.5 63.5q-88 0 -149.5 -63.5t-61.5 -153.5q0 -91 61.5 -154t149.5 -63z" />
    <glyph glyph-name="h" unicode="h" horiz-adv-x="669" 
d="M65 0v740h94v-243q68 100 198 100q115 0 182.5 -71t67.5 -194v-332h-97v327q0 88 -43 136.5t-128 48.5q-76 0 -127 -53.5t-51 -134.5v-324h-96z" />
    <glyph glyph-name="i" unicode="i" horiz-adv-x="224" 
d="M64 0v585h96v-585h-96zM44 728q0 30 18.5 48.5t49.5 18.5q32 0 50.5 -18.5t18.5 -48.5q0 -31 -18 -49.5t-51 -18.5q-32 0 -50 18.5t-18 49.5z" />
    <glyph glyph-name="j" unicode="j" horiz-adv-x="224" 
d="M-75 -268v91q88 0 113.5 24t25.5 112v626h96v-627q0 -129 -47 -177.5t-173 -48.5h-15zM44 728q0 30 18.5 48.5t49.5 18.5q32 0 50.5 -18.5t18.5 -48.5q0 -31 -18 -49.5t-51 -18.5q-32 0 -50 18.5t-18 49.5z" />
    <glyph glyph-name="k" unicode="k" horiz-adv-x="606" 
d="M65 0v740h94v-472l301 317h118l-236 -248l242 -337h-109l-201 280l-115 -120v-160h-94z" />
    <glyph glyph-name="l" unicode="l" horiz-adv-x="226" 
d="M65 0v740h96v-740h-96z" />
    <glyph glyph-name="m" unicode="m" horiz-adv-x="1080" 
d="M64 0v585h94v-82q62 94 187 94q152 0 207 -119q30 55 85 87t126 32q122 0 188 -68t66 -184v-345h-96v346q0 75 -44.5 121t-121.5 46q-73 0 -120.5 -47.5t-47.5 -128.5v-337h-96v355q0 73 -42.5 115.5t-117.5 42.5q-76 0 -124 -49.5t-48 -134.5v-329h-95z" />
    <glyph glyph-name="n" unicode="n" horiz-adv-x="667" 
d="M64 0v585h94v-90q31 47 82.5 74.5t115.5 27.5q115 0 182 -71t67 -194v-332h-96v328q0 87 -43.5 135.5t-127.5 48.5q-77 0 -128 -53.5t-51 -134.5v-324h-95z" />
    <glyph glyph-name="o" unicode="o" horiz-adv-x="691" 
d="M344 -12q-126 0 -214.5 88t-88.5 216t88.5 216.5t214.5 88.5q127 0 215.5 -88.5t88.5 -216.5t-88.5 -216t-215.5 -88zM344 76q87 0 148 63t61 153t-60.5 153.5t-148.5 63.5q-87 0 -147 -63.5t-60 -153.5t60 -153t147 -63z" />
    <glyph glyph-name="p" unicode="p" horiz-adv-x="710" 
d="M372 -12q-67 0 -124.5 27t-90.5 77v-361h-93v854h93v-99q35 52 93 81.5t122 29.5q125 0 210.5 -87.5t85.5 -217.5q0 -129 -86.5 -216.5t-209.5 -87.5zM363 76q87 0 148.5 63t61.5 154q0 90 -61.5 153.5t-148.5 63.5q-92 0 -153 -63t-61 -154q0 -92 61 -154.5t153 -62.5z
" />
    <glyph glyph-name="q" unicode="q" horiz-adv-x="711" 
d="M339 -12q-124 0 -211 87.5t-87 216.5q0 130 86.5 217.5t211.5 87.5q64 0 122 -29.5t93 -81.5v99h93v-854h-94v361q-34 -50 -91.5 -77t-122.5 -27zM348 76q90 0 151.5 63t61.5 154q0 90 -61.5 153.5t-151.5 63.5q-88 0 -149.5 -63.5t-61.5 -153.5q0 -91 61.5 -154
t149.5 -63z" />
    <glyph glyph-name="r" unicode="r" horiz-adv-x="436" 
d="M64 0v585h94v-84q43 85 148 85q60 0 114 -30l-40 -89q-40 26 -89 26q-62 0 -97 -40t-35 -123q0 -142 1 -169v-161h-96z" />
    <glyph glyph-name="s" unicode="s" horiz-adv-x="533" 
d="M264 -12q-162 0 -246 121l81 53q61 -90 168 -90q62 0 96 28t34 69q0 20 -10 34t-33 24t-41 15t-53 13q-12 3 -18 4q-36 9 -58.5 16t-51.5 21t-46 30t-29 42.5t-12 59.5q0 70 59.5 120t155.5 50q148 0 223 -97l-75 -52q-57 68 -148 68q-57 0 -88.5 -24.5t-31.5 -62.5
q0 -25 18.5 -41.5t43.5 -25t67 -18.5q15 -3 22 -5q38 -10 58 -16t52 -20t48 -30t29 -43t13 -61q0 -68 -58.5 -125t-168.5 -57z" />
    <glyph glyph-name="t" unicode="t" horiz-adv-x="403" 
d="M28 499v86h102v111l94 65v-176h137v-86h-137v-272q0 -88 25 -112.5t112 -24.5v-90h-14q-128 0 -172.5 47t-44.5 179v273h-102z" />
    <glyph glyph-name="u" unicode="u" horiz-adv-x="636" 
d="M302 -12q-116 0 -178 69t-62 196v332h96v-328q0 -184 160 -184q74 0 116.5 51.5t42.5 135.5v325h95v-585h-93v82q-58 -94 -177 -94z" />
    <glyph glyph-name="v" unicode="v" horiz-adv-x="597" 
d="M251 0l-229 585h103l175 -461l173 461h101l-228 -585h-95z" />
    <glyph glyph-name="w" unicode="w" horiz-adv-x="990" 
d="M222 0l-190 585h99l144 -453l174 453h88l174 -455l149 455h99l-199 -585h-92l-176 455l-176 -455h-94z" />
    <glyph glyph-name="x" unicode="x" horiz-adv-x="610" 
d="M17 0l231 298l-221 287h116l164 -217l164 217h114l-222 -287l233 -298h-117l-174 228l-171 -228h-117z" />
    <glyph glyph-name="y" unicode="y" horiz-adv-x="635" 
d="M144 -270l132 301l-252 554h104l197 -443l183 443h102l-366 -855h-100z" />
    <glyph glyph-name="z" unicode="z" horiz-adv-x="603" 
d="M45 0v89l391 411h-381v85h499v-89l-391 -410h395v-86h-513z" />
    <glyph glyph-name="braceleft" unicode="{" horiz-adv-x="391" 
d="M356 -230h-11q-125 0 -172.5 47t-47.5 170v113q0 62 -17 82.5t-77 20.5v90q60 0 77 21.5t17 82.5v116q0 123 47.5 170t172.5 47h11v-88q-85 0 -110 -25t-25 -105v-116q0 -61 -16.5 -96t-54.5 -52q39 -17 55 -51.5t16 -95.5v-113q0 -80 25 -105t110 -25v-88z" />
    <glyph glyph-name="bar" unicode="|" horiz-adv-x="202" 
d="M53 -230v960h96v-960h-96z" />
    <glyph glyph-name="braceright" unicode="}" horiz-adv-x="391" 
d="M36 -230v89q85 0 110 24.5t25 104.5v113q0 60 16 95t54 52q-38 17 -54 52t-16 96v116q0 80 -25 104.5t-110 24.5v89h11q125 0 172.5 -47t47.5 -170v-116q0 -61 17 -82.5t77 -21.5v-90q-60 0 -77 -20.5t-17 -82.5v-113q0 -123 -47.5 -170t-172.5 -47h-11z" />
    <glyph glyph-name="asciitilde" unicode="~" horiz-adv-x="468" 
d="M132 566h-66q2 55 28.5 87.5t70.5 32.5q33 0 77 -25q4 -2 11.5 -7t12 -7.5t10.5 -5.5t11.5 -4.5t11.5 -1.5q33 0 36 46h64q-1 -56 -26.5 -88t-72.5 -32q-9 0 -18.5 1.5t-16 3.5t-15.5 6t-12.5 6l-13 7.5t-11.5 6.5q-28 19 -48 19q-30 0 -33 -45z" />
    <glyph glyph-name="exclamdown" unicode="&#xa1;" horiz-adv-x="228" 
d="M67 -230v117q0 220 21 419h53q22 -176 22 -419v-117h-96zM42 430q0 32 20 52t52 20q35 0 54.5 -19.5t19.5 -52.5t-19.5 -52.5t-54.5 -19.5q-33 0 -52.5 19.5t-19.5 52.5z" />
    <glyph glyph-name="cent" unicode="&#xa2;" horiz-adv-x="588" 
d="M258 -130v125q-95 18 -155.5 90.5t-60.5 171.5q0 100 61 172.5t155 88.5v126h97v-125q69 -11 121.5 -51.5t77.5 -101.5l-86 -38q-21 51 -62.5 78.5t-96.5 27.5q-72 0 -122 -51t-50 -126q0 -76 50 -127t124 -51q55 0 96.5 29.5t62.5 79.5l87 -37q-27 -64 -79 -105
t-123 -52v-124h-97z" />
    <glyph glyph-name="sterling" unicode="&#xa3;" horiz-adv-x="588" 
d="M61 335v78h78q-33 64 -33 129q0 87 58.5 142.5t146.5 55.5q149 0 210 -124l-89 -42q-38 80 -121 80q-48 0 -77.5 -30.5t-29.5 -80.5q0 -57 41 -130h210v-78h-166q44 -86 44 -163q0 -30 -9 -59q45 -41 71 -41q22 0 30 12.5t8 42.5v81h99v-79q0 -75 -30 -107t-95 -32
q-55 0 -118 56q-44 -57 -116 -57q-64 0 -98.5 29.5t-34.5 78.5q0 47 31 77t83 30t104 -36v4q0 30 -11.5 61.5t-22.5 49t-35 52.5h-128zM169 60q43 0 67 33q-44 37 -76 37q-17 0 -27 -10t-10 -25q0 -35 46 -35z" />
    <glyph glyph-name="currency" unicode="&#xa4;" horiz-adv-x="773" 
d="M391 102q-80 0 -148 46l-107 -110l-64 64l107 110q-47 65 -47 150q0 86 47 151l-109 114l65 63l109 -113q66 45 147 45q79 0 145 -45l103 106l64 -63l-102 -105q49 -68 49 -153q0 -86 -50 -155l102 -105l-65 -63l-103 106q-65 -43 -143 -43zM391 191q69 0 117 50.5
t48 120.5q0 71 -48 121t-117 50t-116.5 -50t-47.5 -121q0 -70 47.5 -120.5t116.5 -50.5z" />
    <glyph glyph-name="yen" unicode="&#xa5;" horiz-adv-x="588" 
d="M87 305v79h159v16l-211 330h109l151 -245l151 245h108l-210 -329v-17h158v-79h-158v-99h158v-79h-158v-127h-98v127h-159v79h159v99h-159z" />
    <glyph glyph-name="brokenbar" unicode="&#xa6;" horiz-adv-x="224" 
d="M53 310v420h96v-420h-96zM53 -230v420h96v-420h-96z" />
    <glyph glyph-name="section" unicode="&#xa7;" horiz-adv-x="593" 
d="M294 -10q-98 0 -160.5 46t-75.5 109l97 24q6 -44 44 -72t101 -28q49 0 82.5 18.5t33.5 54.5t-56 56q-22 7 -107 26q-109 25 -160.5 57.5t-51.5 93.5q0 41 24.5 73t66.5 46q-46 37 -46 95q0 68 56 110.5t147 40.5q94 0 152.5 -42t68.5 -102l-92 -23q-14 92 -130 92
q-50 0 -80.5 -18.5t-30.5 -53.5q0 -33 38 -51t122 -36q108 -25 160 -58t52 -92q0 -38 -24 -70t-63 -47q48 -35 48 -93q0 -69 -61 -113.5t-155 -42.5zM306 297q47 -11 79 -22q34 9 51.5 28t17.5 42q0 31 -40.5 49.5t-128.5 38.5q-51 12 -79 22q-32 -5 -51 -24t-19 -44
q0 -12 4.5 -22t18 -18.5t24 -14t36 -13t39.5 -11z" />
    <glyph glyph-name="dieresis" unicode="&#xa8;" horiz-adv-x="492" 
d="M82 631q0 28 17 45t46 17q30 0 47 -17t17 -45q0 -29 -16.5 -46t-47.5 -17q-30 0 -46.5 17t-16.5 46zM277 631q0 28 17 45t46 17q30 0 47 -17t17 -45q0 -29 -17 -46t-47 -17t-46.5 17t-16.5 46z" />
    <glyph glyph-name="copyright" unicode="&#xa9;" horiz-adv-x="826" 
d="M414 -10q-155 0 -265 110t-110 265t110 265t265 110t264.5 -110t109.5 -265t-109.5 -265t-264.5 -110zM414 70q122 0 206.5 86t84.5 209t-84.5 209.5t-206.5 86.5q-124 0 -207.5 -86.5t-83.5 -209.5q0 -124 83.5 -209.5t207.5 -85.5zM418 165q-86 0 -143.5 57.5
t-57.5 142.5t57.5 142.5t143.5 57.5q58 0 104.5 -28.5t70.5 -74.5l-54 -27q-2 -1 -10.5 -6t-12.5 -8q-12 27 -38 44.5t-61 17.5q-48 0 -82 -35t-34 -83q0 -50 34 -84t82 -34q35 0 62 18.5t39 46.5l79 -35q-24 -50 -72 -81t-107 -31z" />
    <glyph glyph-name="ordfeminine" unicode="&#xaa;" horiz-adv-x="393" 
d="M180 435q-53 0 -96 40.5t-43 109.5q0 70 43.5 110.5t96.5 40.5q57 0 94 -40v34h71v-289h-71v36q-39 -42 -95 -42zM196 501q35 0 58 24.5t23 60.5t-23 60t-58 24q-36 0 -60 -23.5t-24 -60.5q0 -36 24 -60.5t60 -24.5z" />
    <glyph glyph-name="guillemotleft" unicode="&#xab;" horiz-adv-x="466" 
d="M227 110l-169 114v56l169 115v-68l-111 -75l111 -75v-67zM408 110l-168 114v56l168 115v-68l-110 -75l110 -75v-67z" />
    <glyph glyph-name="logicalnot" unicode="&#xac;" horiz-adv-x="603" 
d="M470 183v244h-441v92h538v-336h-97z" />
    <glyph glyph-name="uni00AD" unicode="&#xad;" 
d="M46 211v83h370v-83h-370z" />
    <glyph glyph-name="registered" unicode="&#xae;" horiz-adv-x="826" 
d="M414 -125q-155 0 -265 110t-110 265t110 265t265 110t264.5 -110t109.5 -265t-109.5 -265t-264.5 -110zM414 -46q122 0 206.5 86.5t84.5 209.5t-84.5 209.5t-206.5 86.5q-124 0 -207.5 -86.5t-83.5 -209.5t83.5 -209.5t207.5 -86.5zM270 68v374h158q70 0 112 -37t42 -89
q0 -43 -21 -75.5t-61 -44.5l80 -128h-96l-103 178h39q33 0 53.5 17.5t20.5 48.5q0 59 -74 59h-65v-303h-85z" />
    <glyph glyph-name="overscore" unicode="&#xaf;" horiz-adv-x="489" 
d="M113 557v70h264v-70h-264z" />
    <glyph glyph-name="degree" unicode="&#xb0;" horiz-adv-x="419" 
d="M210 452q-59 0 -101.5 42.5t-42.5 102.5t42 101.5t102 41.5t101.5 -41.5t41.5 -101.5t-41.5 -102.5t-101.5 -42.5zM210 533q26 0 44.5 18.5t18.5 44.5t-18.5 44.5t-44.5 18.5t-44.5 -18.5t-18.5 -44.5t18.5 -44.5t44.5 -18.5z" />
    <glyph glyph-name="plusminus" unicode="&#xb1;" 
d="M46 427v82h145v144h80v-144h145v-82h-145v-144h-80v144h-145zM46 124v82h370v-82h-370z" />
    <glyph glyph-name="twosuperior" unicode="&#xb2;" horiz-adv-x="336" 
d="M27 308v69q0 36 19.5 67t39.5 47t56 39q30 18 43 27t26.5 25.5t13.5 32.5q0 21 -15.5 35t-42.5 14q-49 0 -76 -59l-71 37q45 94 147 94q65 0 104.5 -34.5t39.5 -86.5q0 -34 -20 -64t-37.5 -43t-55.5 -38q-60 -38 -74 -56q-10 -13 -10 -27h196v-79h-283z" />
    <glyph glyph-name="threesuperior" unicode="&#xb3;" horiz-adv-x="324" 
d="M156 302q-92 0 -142 57l67 55q29 -36 72 -36q28 0 46 15t18 40q0 26 -20.5 40t-53.5 14h-43v75h42q32 0 49.5 14t17.5 38q0 23 -16 36.5t-44 13.5q-42 0 -66 -37l-64 46q45 63 132 63q65 0 103.5 -32.5t38.5 -86.5q0 -55 -47 -89q57 -33 57 -97q0 -56 -40 -92.5
t-107 -36.5z" />
    <glyph glyph-name="acute" unicode="&#xb4;" horiz-adv-x="489" 
d="M125 557l116 163h105l-146 -163h-75z" />
    <glyph glyph-name="mu" unicode="&#xb5;" horiz-adv-x="571" 
d="M54 -230v730h97v-268q0 -74 36 -116t96 -42t99 41.5t39 108.5v276h96v-500h-95v67q-54 -77 -153 -77q-70 0 -119 43v-263h-96z" />
    <glyph glyph-name="mu" unicode="&#x3bc;" horiz-adv-x="571" 
d="M54 -230v730h97v-268q0 -74 36 -116t96 -42t99 41.5t39 108.5v276h96v-500h-95v67q-54 -77 -153 -77q-70 0 -119 43v-263h-96z" />
    <glyph glyph-name="paragraph" unicode="&#xb6;" horiz-adv-x="619" 
d="M339 0v302h-91q-93 0 -155 62t-62 152t62 152t154 62h320v-730h-85v641h-60v-641h-83z" />
    <glyph glyph-name="middot" unicode="&#xb7;" horiz-adv-x="202" 
d="M53 183v137h96v-137h-96z" />
    <glyph glyph-name="cedilla" unicode="&#xb8;" horiz-adv-x="489" 
d="M231 -235q-82 0 -143 56l64 39q42 -35 84 -35q27 0 46 11t19 28q0 34 -68 34h-43v102h69v-53q53 1 85.5 -21.5t32.5 -58.5q0 -44 -42.5 -73t-103.5 -29z" />
    <glyph glyph-name="onesuperior" unicode="&#xb9;" horiz-adv-x="294" 
d="M26 308v78h83v222q-21 -31 -67 -31h-6v83h3q38 0 55 21t17 49h81v-344h80v-78h-246z" />
    <glyph glyph-name="ordmasculine" unicode="&#xba;" horiz-adv-x="382" 
d="M191 435q-62 0 -106 44t-44 106q0 63 43.5 107t106.5 44t106.5 -43.5t43.5 -107.5q0 -62 -43.5 -106t-106.5 -44zM191 503q35 0 57.5 24t22.5 58q0 36 -22.5 59.5t-57.5 23.5q-33 0 -56.5 -24t-23.5 -59q0 -33 23.5 -57.5t56.5 -24.5z" />
    <glyph glyph-name="guillemotright" unicode="&#xbb;" horiz-adv-x="466" 
d="M58 110v68l111 74l-111 76v68l169 -116v-55zM240 110v68l111 74l-111 76v68l168 -116v-55z" />
    <glyph glyph-name="onequarter" unicode="&#xbc;" horiz-adv-x="820" 
d="M99 0l527 730h112l-527 -730h-112zM653 0v92h-180v75l178 255h82v-257h61v-73h-61v-92h-80zM26 308v78h83v222q-21 -31 -67 -31h-6v83h3q38 0 55 21t17 49h81v-344h80v-78h-246zM560 165h93v133z" />
    <glyph glyph-name="onehalf" unicode="&#xbd;" horiz-adv-x="853" 
d="M99 0l527 730h112l-527 -730h-112zM540 0v69q0 36 19.5 67t39.5 47t56 39q30 18 43 27t26.5 25.5t13.5 32.5q0 21 -15.5 35t-42.5 14q-49 0 -76 -59l-71 37q45 94 147 94q65 0 104.5 -34.5t39.5 -86.5q0 -34 -20 -64t-37.5 -43t-55.5 -38q-60 -38 -74 -56
q-10 -13 -10 -27h196v-79h-283zM26 308v78h83v222q-21 -31 -67 -31h-6v83h3q38 0 55 21t17 49h81v-344h80v-78h-246z" />
    <glyph glyph-name="threequarters" unicode="&#xbe;" horiz-adv-x="830" 
d="M108 0l527 730h112l-527 -730h-112zM662 0v92h-180v75l178 255h82v-257h61v-73h-61v-92h-80zM156 302q-92 0 -142 57l67 55q29 -36 72 -36q28 0 46 15t18 40q0 26 -20.5 40t-53.5 14h-43v75h42q32 0 49.5 14t17.5 38q0 23 -16 36.5t-44 13.5q-42 0 -66 -37l-64 46
q45 63 132 63q65 0 103.5 -32.5t38.5 -86.5q0 -55 -47 -89q57 -33 57 -97q0 -56 -40 -92.5t-107 -36.5zM569 165h93v133z" />
    <glyph glyph-name="questiondown" unicode="&#xbf;" horiz-adv-x="533" 
d="M267 -240q-97 0 -159 53t-62 139q0 52 20 88.5t48 58l56 44t48 62t20 96.5v10h87v-10q0 -58 -13.5 -102t-33.5 -68t-43.5 -46t-43.5 -37t-33.5 -40t-13.5 -57q0 -47 35 -77t90 -30q93 0 132 91l88 -34q-25 -64 -81.5 -102.5t-140.5 -38.5zM209 431q0 32 20 52t52 20
q35 0 54.5 -19.5t19.5 -52.5t-19.5 -52.5t-54.5 -19.5q-33 0 -52.5 19.5t-19.5 52.5z" />
    <glyph glyph-name="Agrave" unicode="&#xc0;" horiz-adv-x="696" 
d="M27 0l271 730h101l270 -730h-101l-62 167h-316l-61 -167h-102zM348 597l-124 -337h248zM309 787l-146 163h104l117 -163h-75z" />
    <glyph glyph-name="Aacute" unicode="&#xc1;" horiz-adv-x="696" 
d="M27 0l271 730h101l270 -730h-101l-62 167h-316l-61 -167h-102zM348 597l-124 -337h248zM305 787l116 163h105l-146 -163h-75z" />
    <glyph glyph-name="Acircumflex" unicode="&#xc2;" horiz-adv-x="696" 
d="M27 0l271 730h101l270 -730h-101l-62 167h-316l-61 -167h-102zM348 597l-124 -337h248zM190 787l119 163h69l119 -163h-84l-70 98l-68 -98h-85z" />
    <glyph glyph-name="Atilde" unicode="&#xc3;" horiz-adv-x="696" 
d="M27 0l271 730h101l270 -730h-101l-62 167h-316l-61 -167h-102zM348 597l-124 -337h248zM238 787h-65q0 56 27 89.5t73 33.5q39 0 80 -27q44 -27 61 -27q36 0 36 50h66q0 -58 -26 -90.5t-75 -32.5q-38 0 -91 32q-36 21 -51 21q-35 0 -35 -49z" />
    <glyph glyph-name="Adieresis" unicode="&#xc4;" horiz-adv-x="696" 
d="M27 0l271 730h101l270 -730h-101l-62 167h-316l-61 -167h-102zM348 597l-124 -337h248zM185 861q0 28 17 45t46 17q30 0 47 -17t17 -45q0 -29 -17 -46t-47 -17t-46.5 17t-16.5 46zM380 861q0 28 17 45t46 17q30 0 47 -17t17 -45q0 -29 -16.5 -46t-47.5 -17
q-30 0 -46.5 17t-16.5 46z" />
    <glyph glyph-name="Aring" unicode="&#xc5;" horiz-adv-x="696" 
d="M27 0l256 690q-47 31 -47 90q0 46 31.5 78t76.5 32q46 0 78.5 -32t32.5 -78q0 -54 -43 -86l257 -694h-101l-62 167h-316l-61 -167h-102zM348 597l-124 -337h248zM344 734q20 0 33.5 13t13.5 33q0 19 -13.5 33t-33.5 14q-19 0 -32.5 -14t-13.5 -33q0 -20 13.5 -33
t32.5 -13z" />
    <glyph glyph-name="AE" unicode="&#xc6;" horiz-adv-x="993" 
d="M23 0l346 730h565v-92h-441l54 -226h387v-92h-365l54 -227h311v-93h-390l-39 164h-300l-77 -164h-105zM405 589l-158 -335h237z" />
    <glyph glyph-name="Ccedilla" unicode="&#xc7;" horiz-adv-x="769" 
d="M411 -235q-82 0 -143 56l64 39q42 -35 84 -35q27 0 46 11t19 28q0 34 -68 34h-43v95q-144 16 -237.5 121.5t-93.5 250.5q0 159 109 267t266 108q101 0 187.5 -50t135.5 -134l-85 -52q-36 67 -97.5 105t-140.5 38q-118 0 -197.5 -82t-79.5 -200q0 -117 79.5 -198.5
t196.5 -81.5q86 0 149 41t98 113l87 -46q-46 -89 -125.5 -142t-182.5 -60v-44q53 1 85.5 -21.5t32.5 -58.5q0 -44 -42.5 -73t-103.5 -29z" />
    <glyph glyph-name="Egrave" unicode="&#xc8;" horiz-adv-x="551" 
d="M60 0v730h440v-92h-344v-226h344v-92h-344v-227h344v-93h-440zM251 787l-146 163h104l117 -163h-75z" />
    <glyph glyph-name="Eacute" unicode="&#xc9;" horiz-adv-x="551" 
d="M60 0v730h440v-92h-344v-226h344v-92h-344v-227h344v-93h-440zM226 787l116 163h105l-146 -163h-75z" />
    <glyph glyph-name="Ecircumflex" unicode="&#xca;" horiz-adv-x="551" 
d="M60 0v730h440v-92h-344v-226h344v-92h-344v-227h344v-93h-440zM123 787l119 163h69l119 -163h-84l-70 98l-68 -98h-85z" />
    <glyph glyph-name="Edieresis" unicode="&#xcb;" horiz-adv-x="551" 
d="M60 0v730h440v-92h-344v-226h344v-92h-344v-227h344v-93h-440zM316 861q0 28 17 45t46 17q30 0 47 -17t17 -45q0 -29 -16.5 -46t-47.5 -17q-30 0 -46.5 17t-16.5 46zM121 861q0 28 17 45t46 17q30 0 47 -17t17 -45q0 -29 -17 -46t-47 -17t-46.5 17t-16.5 46z" />
    <glyph glyph-name="Igrave" unicode="&#xcc;" horiz-adv-x="233" 
d="M68 0v730h97v-730h-97zM79 787l-146 163h104l117 -163h-75z" />
    <glyph glyph-name="Iacute" unicode="&#xcd;" horiz-adv-x="233" 
d="M68 0v730h97v-730h-97zM76 787l116 163h105l-146 -163h-75z" />
    <glyph glyph-name="Icircumflex" unicode="&#xce;" horiz-adv-x="233" 
d="M68 0v730h97v-730h-97zM-38 787l119 163h69l119 -163h-84l-70 98l-68 -98h-85z" />
    <glyph glyph-name="Idieresis" unicode="&#xcf;" horiz-adv-x="233" 
d="M170 791v138h96v-138h-96zM-33 791v138h96v-138h-96zM68 0v730h97v-730h-97z" />
    <glyph glyph-name="Eth" unicode="&#xd0;" horiz-adv-x="717" 
d="M22 323v88h73v319h201q172 0 277 -103.5t105 -261.5q0 -156 -108 -260.5t-270 -104.5h-205v323h-73zM286 641h-94v-230h198v-88h-198v-233h97q128 0 210 78.5t82 196.5q0 121 -79.5 198.5t-215.5 77.5z" />
    <glyph glyph-name="Ntilde" unicode="&#xd1;" horiz-adv-x="720" 
d="M60 0v730h110l393 -574v574h96v-730h-103l-400 582v-582h-96zM252 787h-65q0 56 27 89.5t73 33.5q39 0 80 -27q44 -27 61 -27q36 0 36 50h66q0 -58 -26 -90.5t-75 -32.5q-38 0 -91 32q-36 21 -51 21q-35 0 -35 -49z" />
    <glyph glyph-name="Ograve" unicode="&#xd2;" horiz-adv-x="827" 
d="M413 -10q-155 0 -264.5 110t-109.5 265t109.5 265t264.5 110q156 0 265.5 -110t109.5 -265t-109.5 -265t-265.5 -110zM413 84q116 0 197 82.5t81 198.5q0 117 -80.5 199t-197.5 82q-116 0 -196 -82t-80 -199q0 -116 80 -198.5t196 -82.5zM374 787l-146 163h104l117 -163
h-75z" />
    <glyph glyph-name="Oacute" unicode="&#xd3;" horiz-adv-x="827" 
d="M368 787l116 163h105l-146 -163h-75zM413 -10q-155 0 -264.5 110t-109.5 265t109.5 265t264.5 110q156 0 265.5 -110t109.5 -265t-109.5 -265t-265.5 -110zM413 84q116 0 197 82.5t81 198.5q0 117 -80.5 199t-197.5 82q-116 0 -196 -82t-80 -199q0 -116 80 -198.5
t196 -82.5z" />
    <glyph glyph-name="Ocircumflex" unicode="&#xd4;" horiz-adv-x="827" 
d="M413 -10q-155 0 -264.5 110t-109.5 265t109.5 265t264.5 110q156 0 265.5 -110t109.5 -265t-109.5 -265t-265.5 -110zM413 84q116 0 197 82.5t81 198.5q0 117 -80.5 199t-197.5 82q-116 0 -196 -82t-80 -199q0 -116 80 -198.5t196 -82.5zM256 787l119 163h69l119 -163
h-84l-70 98l-68 -98h-85z" />
    <glyph glyph-name="Otilde" unicode="&#xd5;" horiz-adv-x="827" 
d="M413 -10q-155 0 -264.5 110t-109.5 265t109.5 265t264.5 110q156 0 265.5 -110t109.5 -265t-109.5 -265t-265.5 -110zM413 84q116 0 197 82.5t81 198.5q0 117 -80.5 199t-197.5 82q-116 0 -196 -82t-80 -199q0 -116 80 -198.5t196 -82.5zM301 787h-65q0 56 27 89.5
t73 33.5q39 0 80 -27q44 -27 61 -27q36 0 36 50h66q0 -58 -26 -90.5t-75 -32.5q-38 0 -91 32q-36 21 -51 21q-35 0 -35 -49z" />
    <glyph glyph-name="Odieresis" unicode="&#xd6;" horiz-adv-x="827" 
d="M249 861q0 28 17 45t46 17q30 0 47 -17t17 -45q0 -29 -17 -46t-47 -17t-46.5 17t-16.5 46zM444 861q0 28 17 45t46 17q30 0 47 -17t17 -45q0 -29 -16.5 -46t-47.5 -17q-30 0 -46.5 17t-16.5 46zM413 -10q-155 0 -264.5 110t-109.5 265t109.5 265t264.5 110
q156 0 265.5 -110t109.5 -265t-109.5 -265t-265.5 -110zM413 84q116 0 197 82.5t81 198.5q0 117 -80.5 199t-197.5 82q-116 0 -196 -82t-80 -199q0 -116 80 -198.5t196 -82.5z" />
    <glyph glyph-name="multiply" unicode="&#xd7;" 
d="M115 190l-58 58l116 116l-116 117l57 57l116 -117l117 117l58 -58l-117 -117l116 -115l-57 -57l-116 115z" />
    <glyph glyph-name="Oslash" unicode="&#xd8;" horiz-adv-x="827" 
d="M74 0l76 98q-111 109 -111 267q0 155 109.5 265t264.5 110q106 0 196 -55l35 45h112l-78 -100q110 -110 110 -265t-109.5 -265t-265.5 -110q-107 0 -193 53l-34 -43h-112zM137 365q0 -112 73 -191l340 436q-63 36 -137 36q-116 0 -196 -82t-80 -199zM413 84
q116 0 197 82.5t81 198.5q0 107 -72 189l-340 -435q61 -35 134 -35z" />
    <glyph glyph-name="Ugrave" unicode="&#xd9;" horiz-adv-x="625" 
d="M312 -10q-111 0 -182.5 70t-71.5 184v486h96v-492q0 -64 46 -110.5t112 -46.5t112.5 46.5t46.5 110.5v492h96v-486q0 -113 -72 -183.5t-183 -70.5zM280 787l-146 163h104l117 -163h-75z" />
    <glyph glyph-name="Uacute" unicode="&#xda;" horiz-adv-x="625" 
d="M263 787l116 163h105l-146 -163h-75zM312 -10q-111 0 -182.5 70t-71.5 184v486h96v-492q0 -64 46 -110.5t112 -46.5t112.5 46.5t46.5 110.5v492h96v-486q0 -113 -72 -183.5t-183 -70.5z" />
    <glyph glyph-name="Ucircumflex" unicode="&#xdb;" horiz-adv-x="625" 
d="M312 -10q-111 0 -182.5 70t-71.5 184v486h96v-492q0 -64 46 -110.5t112 -46.5t112.5 46.5t46.5 110.5v492h96v-486q0 -113 -72 -183.5t-183 -70.5zM156 787l119 163h69l119 -163h-84l-70 98l-68 -98h-85z" />
    <glyph glyph-name="Udieresis" unicode="&#xdc;" horiz-adv-x="625" 
d="M153 861q0 28 17 45t46 17q30 0 47 -17t17 -45q0 -29 -17 -46t-47 -17t-46.5 17t-16.5 46zM348 861q0 28 17 45t46 17q30 0 47 -17t17 -45q0 -29 -16.5 -46t-47.5 -17q-30 0 -46.5 17t-16.5 46zM312 -10q-111 0 -182.5 70t-71.5 184v486h96v-492q0 -64 46 -110.5
t112 -46.5t112.5 46.5t46.5 110.5v492h96v-486q0 -113 -72 -183.5t-183 -70.5z" />
    <glyph glyph-name="Yacute" unicode="&#xdd;" horiz-adv-x="621" 
d="M263 0v346l-239 384h107l180 -291l180 291h107l-239 -384v-346h-96zM266 787l116 163h105l-146 -163h-75z" />
    <glyph glyph-name="Thorn" unicode="&#xde;" horiz-adv-x="565" 
d="M60 0v730h97v-142h139q100 0 163.5 -61t63.5 -154t-63.5 -154t-163.5 -61h-139v-158h-97zM289 498h-132v-251h132q62 0 99.5 35t37.5 91q0 55 -37.5 90t-99.5 35z" />
    <glyph glyph-name="germandbls" unicode="&#xdf;" horiz-adv-x="620" 
d="M-68 -268v89q78 0 105 31t27 109v658q-2 106 63 172.5t176 66.5q104 0 170.5 -64t66.5 -163q0 -62 -30.5 -109t-84.5 -72q70 -25 111.5 -80t41.5 -131q0 -109 -68.5 -179t-181.5 -70q-66 0 -106 22l1 89q38 -23 105 -23q63 0 108 46.5t45 114.5q0 67 -50.5 113.5
t-130.5 46.5h-23v88h23q61 0 103 42t42 104q0 60 -40.5 102t-102.5 42q-64 0 -105.5 -40t-41.5 -108v-667q0 -125 -46 -177.5t-161 -52.5h-16z" />
    <glyph glyph-name="agrave" unicode="&#xe0;" horiz-adv-x="712" 
d="M339 -12q-124 0 -211 87.5t-87 216.5q0 130 86.5 217.5t211.5 87.5q63 0 121.5 -29t93.5 -80v97h94v-585h-94v99q-35 -54 -95 -82q-60 -29 -120 -29zM348 76q90 0 151.5 63t61.5 154q0 90 -61.5 153.5t-151.5 63.5q-88 0 -149.5 -63.5t-61.5 -153.5q0 -91 61.5 -154
t149.5 -63zM313 652l-146 163h104l117 -163h-75z" />
    <glyph glyph-name="aacute" unicode="&#xe1;" horiz-adv-x="712" 
d="M339 -12q-124 0 -211 87.5t-87 216.5q0 130 86.5 217.5t211.5 87.5q63 0 121.5 -29t93.5 -80v97h94v-585h-94v99q-35 -54 -95 -82q-60 -29 -120 -29zM348 76q90 0 151.5 63t61.5 154q0 90 -61.5 153.5t-151.5 63.5q-88 0 -149.5 -63.5t-61.5 -153.5q0 -91 61.5 -154
t149.5 -63zM298 652l116 163h105l-146 -163h-75z" />
    <glyph glyph-name="acircumflex" unicode="&#xe2;" horiz-adv-x="712" 
d="M339 -12q-124 0 -211 87.5t-87 216.5q0 130 86.5 217.5t211.5 87.5q63 0 121.5 -29t93.5 -80v97h94v-585h-94v99q-35 -54 -95 -82q-60 -29 -120 -29zM348 76q90 0 151.5 63t61.5 154q0 90 -61.5 153.5t-151.5 63.5q-88 0 -149.5 -63.5t-61.5 -153.5q0 -91 61.5 -154
t149.5 -63zM188 648l119 163h69l119 -163h-84l-70 98l-68 -98h-85z" />
    <glyph glyph-name="atilde" unicode="&#xe3;" horiz-adv-x="712" 
d="M339 -12q-124 0 -211 87.5t-87 216.5q0 130 86.5 217.5t211.5 87.5q63 0 121.5 -29t93.5 -80v97h94v-585h-94v99q-35 -54 -95 -82q-60 -29 -120 -29zM348 76q90 0 151.5 63t61.5 154q0 90 -61.5 153.5t-151.5 63.5q-88 0 -149.5 -63.5t-61.5 -153.5q0 -91 61.5 -154
t149.5 -63zM244 652h-65q0 56 27 89.5t73 33.5q39 0 80 -27q44 -27 61 -27q36 0 36 50h66q0 -58 -26 -90.5t-75 -32.5q-38 0 -91 32q-36 21 -51 21q-35 0 -35 -49z" />
    <glyph glyph-name="adieresis" unicode="&#xe4;" horiz-adv-x="712" 
d="M339 -12q-124 0 -211 87.5t-87 216.5q0 130 86.5 217.5t211.5 87.5q63 0 121.5 -29t93.5 -80v97h94v-585h-94v99q-35 -54 -95 -82q-60 -29 -120 -29zM348 76q90 0 151.5 63t61.5 154q0 90 -61.5 153.5t-151.5 63.5q-88 0 -149.5 -63.5t-61.5 -153.5q0 -91 61.5 -154
t149.5 -63zM185 713q0 28 17 45t46 17q30 0 47 -17t17 -45q0 -29 -17 -46t-47 -17t-46.5 17t-16.5 46zM380 713q0 28 17 45t46 17q30 0 47 -17t17 -45q0 -29 -16.5 -46t-47.5 -17q-30 0 -46.5 17t-16.5 46z" />
    <glyph glyph-name="aring" unicode="&#xe5;" horiz-adv-x="712" 
d="M339 -12q-124 0 -211 87.5t-87 216.5q0 130 86.5 217.5t211.5 87.5q63 0 121.5 -29t93.5 -80v97h94v-585h-94v99q-35 -54 -95 -82q-60 -29 -120 -29zM348 76q90 0 151.5 63t61.5 154q0 90 -61.5 153.5t-151.5 63.5q-88 0 -149.5 -63.5t-61.5 -153.5q0 -91 61.5 -154
t149.5 -63zM349 646q-45 0 -76.5 31.5t-31.5 77.5t31.5 78t76.5 32q46 0 78.5 -32t32.5 -78t-32 -77.5t-79 -31.5zM349 709q20 0 33.5 13t13.5 33q0 19 -13.5 33t-33.5 14q-19 0 -32.5 -14t-13.5 -33q0 -20 13.5 -33t32.5 -13z" />
    <glyph glyph-name="ae" unicode="&#xe6;" horiz-adv-x="1094" 
d="M756 -12q-177 0 -262 135q-30 -56 -96.5 -95.5t-150.5 -39.5q-105 0 -156 44t-53 117q0 42 15.5 73t46 51.5t64.5 33.5t82 24l42.5 9.5t43.5 10t37 10t34.5 12.5t24 14.5t18 19.5t5.5 24q0 40 -37.5 65t-106.5 25q-79 0 -123 -37.5t-44 -97.5v-3h-88v2q0 98 67.5 155
t184.5 57q164 0 219 -101q88 101 227 101q130 0 215.5 -83t85.5 -214v-37h-512q10 -84 70 -137t147 -53q69 0 119.5 34.5t77.5 93.5l82 -38q-83 -175 -279 -175zM750 512q-76 0 -131.5 -45.5t-73.5 -119.5h409q-14 78 -67.5 121.5t-136.5 43.5zM252 68q76 0 133 48t71 100
q-7 29 -7 73q0 22 1 33q-11 -20 -46.5 -32t-113.5 -29q-80 -16 -117.5 -39t-37.5 -71q0 -38 28.5 -60.5t88.5 -22.5z" />
    <glyph glyph-name="ccedilla" unicode="&#xe7;" horiz-adv-x="659" 
d="M341 -235q-82 0 -143 56l64 39q42 -35 84 -35q27 0 46 11t19 28q0 34 -68 34h-43v94q-114 16 -186.5 100.5t-72.5 199.5q0 130 88.5 217.5t218.5 87.5q94 0 167.5 -49t106.5 -129l-85 -36q-27 60 -76 93t-114 33q-89 0 -149.5 -63t-60.5 -154q0 -90 61 -153t152 -63
q67 0 116 36.5t74 96.5l87 -38q-34 -80 -100 -128.5t-158 -53.5v-42q53 1 85.5 -21.5t32.5 -58.5q0 -44 -42.5 -73t-103.5 -29z" />
    <glyph glyph-name="egrave" unicode="&#xe8;" horiz-adv-x="688" 
d="M350 -12q-138 0 -223.5 85.5t-85.5 215.5q0 131 87 219.5t217 88.5q129 0 214.5 -83t85.5 -214v-40h-511q10 -84 69 -135.5t147 -51.5q68 0 118 33t77 91l81 -43q-85 -166 -276 -166zM345 512q-77 0 -133 -46.5t-73 -120.5h409q-13 79 -66 123t-137 44zM315 652l-146 163
h104l117 -163h-75z" />
    <glyph glyph-name="eacute" unicode="&#xe9;" horiz-adv-x="688" 
d="M350 -12q-138 0 -223.5 85.5t-85.5 215.5q0 131 87 219.5t217 88.5q129 0 214.5 -83t85.5 -214v-40h-511q10 -84 69 -135.5t147 -51.5q68 0 118 33t77 91l81 -43q-85 -166 -276 -166zM345 512q-77 0 -133 -46.5t-73 -120.5h409q-13 79 -66 123t-137 44zM315 652l116 163
h105l-146 -163h-75z" />
    <glyph glyph-name="ecircumflex" unicode="&#xea;" horiz-adv-x="688" 
d="M350 -12q-138 0 -223.5 85.5t-85.5 215.5q0 131 87 219.5t217 88.5q129 0 214.5 -83t85.5 -214v-40h-511q10 -84 69 -135.5t147 -51.5q68 0 118 33t77 91l81 -43q-85 -166 -276 -166zM345 512q-77 0 -133 -46.5t-73 -120.5h409q-13 79 -66 123t-137 44zM196 642l119 163
h69l119 -163h-84l-70 98l-68 -98h-85z" />
    <glyph glyph-name="edieresis" unicode="&#xeb;" horiz-adv-x="688" 
d="M350 -12q-138 0 -223.5 85.5t-85.5 215.5q0 131 87 219.5t217 88.5q129 0 214.5 -83t85.5 -214v-40h-511q10 -84 69 -135.5t147 -51.5q68 0 118 33t77 91l81 -43q-85 -166 -276 -166zM345 512q-77 0 -133 -46.5t-73 -120.5h409q-13 79 -66 123t-137 44zM387 709
q0 28 17 45t46 17q30 0 47 -17t17 -45q0 -29 -17 -46t-47 -17t-46.5 17t-16.5 46zM192 709q0 28 17 45t46 17q30 0 47 -17t17 -45q0 -29 -16.5 -46t-47.5 -17q-30 0 -46.5 17t-16.5 46z" />
    <glyph glyph-name="igrave" unicode="&#xec;" horiz-adv-x="224" 
d="M64 0v585h96v-585h-96zM79 642l-146 163h104l117 -163h-75z" />
    <glyph glyph-name="iacute" unicode="&#xed;" horiz-adv-x="224" 
d="M75 642l116 163h105l-146 -163h-75zM64 0v585h96v-585h-96z" />
    <glyph glyph-name="icircumflex" unicode="&#xee;" horiz-adv-x="224" 
d="M64 0v585h96v-585h-96zM-41 636l119 163h69l119 -163h-84l-70 98l-68 -98h-85z" />
    <glyph glyph-name="idieresis" unicode="&#xef;" horiz-adv-x="224" 
d="M177 652v162h96v-162h-96zM-48 652v162h96v-162h-96zM64 0v585h96v-585h-96z" />
    <glyph glyph-name="eth" unicode="&#xf0;" horiz-adv-x="682" 
d="M159 621l139 109q-83 69 -162 124h143q18 -14 85 -71l90 71h99l-143 -114q226 -220 226 -455q0 -123 -85 -207.5t-211 -84.5q-123 0 -209 83.5t-86 206.5t83 206.5t201 83.5q98 0 158 -55q-45 79 -142 170l-85 -67h-101zM341 81q82 0 141 59.5t59 142.5t-58 142.5
t-141 59.5q-82 0 -141.5 -59t-59.5 -143q0 -83 59.5 -142.5t140.5 -59.5z" />
    <glyph glyph-name="ntilde" unicode="&#xf1;" horiz-adv-x="667" 
d="M64 0v585h94v-90q31 47 82.5 74.5t115.5 27.5q115 0 182 -71t67 -194v-332h-96v328q0 87 -43.5 135.5t-127.5 48.5q-77 0 -128 -53.5t-51 -134.5v-324h-95zM240 652h-65q0 56 27 89.5t73 33.5q39 0 80 -27q44 -27 61 -27q36 0 36 50h66q0 -58 -26 -90.5t-75 -32.5
q-38 0 -91 32q-36 21 -51 21q-35 0 -35 -49z" />
    <glyph glyph-name="ograve" unicode="&#xf2;" horiz-adv-x="691" 
d="M344 -12q-126 0 -214.5 88t-88.5 216t88.5 216.5t214.5 88.5q127 0 215.5 -88.5t88.5 -216.5t-88.5 -216t-215.5 -88zM344 76q87 0 148 63t61 153t-60.5 153.5t-148.5 63.5q-87 0 -147 -63.5t-60 -153.5t60 -153t147 -63zM317 652l-146 163h104l117 -163h-75z" />
    <glyph glyph-name="oacute" unicode="&#xf3;" horiz-adv-x="691" 
d="M302 652l116 163h105l-146 -163h-75zM344 -12q-126 0 -214.5 88t-88.5 216t88.5 216.5t214.5 88.5q127 0 215.5 -88.5t88.5 -216.5t-88.5 -216t-215.5 -88zM344 76q87 0 148 63t61 153t-60.5 153.5t-148.5 63.5q-87 0 -147 -63.5t-60 -153.5t60 -153t147 -63z" />
    <glyph glyph-name="ocircumflex" unicode="&#xf4;" horiz-adv-x="691" 
d="M344 -12q-126 0 -214.5 88t-88.5 216t88.5 216.5t214.5 88.5q127 0 215.5 -88.5t88.5 -216.5t-88.5 -216t-215.5 -88zM344 76q87 0 148 63t61 153t-60.5 153.5t-148.5 63.5q-87 0 -147 -63.5t-60 -153.5t60 -153t147 -63zM190 652l119 163h69l119 -163h-84l-70 98
l-68 -98h-85z" />
    <glyph glyph-name="otilde" unicode="&#xf5;" horiz-adv-x="691" 
d="M344 -12q-126 0 -214.5 88t-88.5 216t88.5 216.5t214.5 88.5q127 0 215.5 -88.5t88.5 -216.5t-88.5 -216t-215.5 -88zM344 76q87 0 148 63t61 153t-60.5 153.5t-148.5 63.5q-87 0 -147 -63.5t-60 -153.5t60 -153t147 -63zM248 652h-65q0 56 27 89.5t73 33.5q39 0 80 -27
q44 -27 61 -27q36 0 36 50h66q0 -58 -26 -90.5t-75 -32.5q-38 0 -91 32q-36 21 -51 21q-35 0 -35 -49z" />
    <glyph glyph-name="odieresis" unicode="&#xf6;" horiz-adv-x="691" 
d="M181 704q0 28 17 45t46 17q30 0 47 -17t17 -45q0 -30 -17 -46.5t-47 -16.5t-46.5 17t-16.5 46zM376 704q0 28 17 45t46 17q30 0 47 -17t17 -45q0 -30 -16.5 -46.5t-47.5 -16.5q-30 0 -46.5 17t-16.5 46zM344 -12q-126 0 -214.5 88t-88.5 216t88.5 216.5t214.5 88.5
q127 0 215.5 -88.5t88.5 -216.5t-88.5 -216t-215.5 -88zM344 76q87 0 148 63t61 153t-60.5 153.5t-148.5 63.5q-87 0 -147 -63.5t-60 -153.5t60 -153t147 -63z" />
    <glyph glyph-name="divide" unicode="&#xf7;" 
d="M46 324v82h370v-82h-370zM191 453v119h81v-119h-81zM191 157v119h81v-119h-81z" />
    <glyph glyph-name="oslash" unicode="&#xf8;" horiz-adv-x="691" 
d="M344 -12q-82 0 -152 40l-22 -28h-101l59 77q-87 89 -87 215q0 128 88.5 216.5t214.5 88.5q82 0 153 -41l22 29h102l-60 -78q87 -89 87 -215q0 -128 -88.5 -216t-215.5 -88zM344 76q88 0 148.5 63t60.5 153q0 79 -49 141l-257 -333q42 -24 97 -24zM137 292q0 -83 48 -140
l256 332q-44 25 -97 25q-87 0 -147 -63t-60 -154z" />
    <glyph glyph-name="ugrave" unicode="&#xf9;" horiz-adv-x="636" 
d="M302 -12q-116 0 -178 69t-62 196v332h96v-328q0 -184 160 -184q74 0 116.5 51.5t42.5 135.5v325h95v-585h-93v82q-58 -94 -177 -94zM285 632l-146 163h104l117 -163h-75z" />
    <glyph glyph-name="uacute" unicode="&#xfa;" horiz-adv-x="636" 
d="M302 -12q-116 0 -178 69t-62 196v332h96v-328q0 -184 160 -184q74 0 116.5 51.5t42.5 135.5v325h95v-585h-93v82q-58 -94 -177 -94zM268 621l116 163h105l-146 -163h-75z" />
    <glyph glyph-name="ucircumflex" unicode="&#xfb;" horiz-adv-x="636" 
d="M302 -12q-116 0 -178 69t-62 196v332h96v-328q0 -184 160 -184q74 0 116.5 51.5t42.5 135.5v325h95v-585h-93v82q-58 -94 -177 -94zM167 642l119 163h69l119 -163h-84l-70 98l-68 -98h-85z" />
    <glyph glyph-name="udieresis" unicode="&#xfc;" horiz-adv-x="636" 
d="M302 -12q-116 0 -178 69t-62 196v332h96v-328q0 -184 160 -184q74 0 116.5 51.5t42.5 135.5v325h95v-585h-93v82q-58 -94 -177 -94zM346 702q0 28 17 45t46 17q30 0 47 -17t17 -45q0 -30 -16.5 -46.5t-47.5 -16.5q-30 0 -46.5 17t-16.5 46zM151 702q0 28 17 45t46 17
q30 0 47 -17t17 -45q0 -30 -17 -46.5t-47 -16.5t-46.5 17t-16.5 46z" />
    <glyph glyph-name="yacute" unicode="&#xfd;" horiz-adv-x="635" 
d="M144 -270l132 301l-252 554h104l197 -443l183 443h102l-366 -855h-100zM265 618l116 163h105l-146 -163h-75z" />
    <glyph glyph-name="thorn" unicode="&#xfe;" horiz-adv-x="710" 
d="M373 -12q-68 0 -124.5 29.5t-91.5 78.5v-365h-92v1123h92v-368q36 50 93.5 80.5t124.5 30.5q125 0 210 -86t85 -216q0 -131 -86 -219t-211 -88zM365 76q91 0 150.5 64t59.5 155q0 90 -59 152.5t-150 62.5q-90 0 -151.5 -63.5t-61.5 -153.5q0 -88 62 -152.5t150 -64.5z
" />
    <glyph glyph-name="ydieresis" unicode="&#xff;" horiz-adv-x="635" 
d="M144 -270l132 301l-252 554h104l197 -443l183 443h102l-366 -855h-100zM359 694q0 28 17 45t46 17q30 0 47 -17t17 -45q0 -30 -17 -46.5t-47 -16.5t-46.5 17t-16.5 46zM164 694q0 28 17 45t46 17q30 0 47 -17t17 -45q0 -30 -16.5 -46.5t-47.5 -16.5q-30 0 -46.5 17
t-16.5 46z" />
    <glyph glyph-name="Amacron" unicode="&#x100;" horiz-adv-x="696" 
d="M27 0l271 730h101l270 -730h-101l-62 167h-316l-61 -167h-102zM348 597l-124 -337h248zM214 787v70h264v-70h-264z" />
    <glyph glyph-name="amacron" unicode="&#x101;" horiz-adv-x="712" 
d="M339 -12q-124 0 -211 87.5t-87 216.5q0 130 86.5 217.5t211.5 87.5q63 0 121.5 -29t93.5 -80v97h94v-585h-94v99q-35 -54 -95 -82q-60 -29 -120 -29zM348 76q90 0 151.5 63t61.5 154q0 90 -61.5 153.5t-151.5 63.5q-88 0 -149.5 -63.5t-61.5 -153.5q0 -91 61.5 -154
t149.5 -63zM215 653v70h264v-70h-264z" />
    <glyph glyph-name="Abreve" unicode="&#x102;" horiz-adv-x="696" 
d="M27 0l271 730h101l270 -730h-101l-62 167h-316l-61 -167h-102zM348 597l-124 -337h248zM344 782q-79 0 -120 46t-41 118h70q0 -101 91 -103q44 1 67.5 28t23.5 75h71q0 -70 -44 -117t-118 -47z" />
    <glyph glyph-name="abreve" unicode="&#x103;" horiz-adv-x="712" 
d="M339 -12q-124 0 -211 87.5t-87 216.5q0 130 86.5 217.5t211.5 87.5q63 0 121.5 -29t93.5 -80v97h94v-585h-94v99q-35 -54 -95 -82q-60 -29 -120 -29zM348 76q90 0 151.5 63t61.5 154q0 90 -61.5 153.5t-151.5 63.5q-88 0 -149.5 -63.5t-61.5 -153.5q0 -91 61.5 -154
t149.5 -63zM347 647q-79 0 -120 46t-41 118h70q0 -101 91 -103q44 1 67.5 28t23.5 75h71q0 -70 -44 -117t-118 -47z" />
    <glyph glyph-name="Aogonek" unicode="&#x104;" horiz-adv-x="696" 
d="M597 -219q-61 0 -99 29t-38 74q0 71 103 129l-57 154h-316l-61 -167h-102l271 730h101l270 -730h-3l2 -1q-80 -51 -102.5 -70.5t-22.5 -41.5q0 -18 15 -28t39 -10q36 0 71 33l65 -44q-64 -57 -136 -57zM348 597l-124 -337h248z" />
    <glyph glyph-name="aogonek" unicode="&#x105;" horiz-adv-x="712" 
d="M339 -12q-124 0 -211 87.5t-87 216.5q0 130 86.5 217.5t211.5 87.5q63 0 121.5 -29t93.5 -80v97h94v-585q-89 -64 -89 -110q0 -20 12.5 -31.5t33.5 -11.5q31 0 61 30l55 -52q-55 -48 -118 -48q-58 0 -90.5 31t-33.5 77q-1 66 75 126v88q-35 -54 -95 -82q-60 -29 -120 -29
zM348 76q90 0 151.5 63t61.5 154q0 90 -61.5 153.5t-151.5 63.5q-88 0 -149.5 -63.5t-61.5 -153.5q0 -91 61.5 -154t149.5 -63z" />
    <glyph glyph-name="Cacute" unicode="&#x106;" horiz-adv-x="769" 
d="M371 787l116 163h105l-146 -163h-75zM414 -10q-159 0 -267 109.5t-108 265.5q0 159 109 267t266 108q101 0 187.5 -50t135.5 -134l-85 -52q-36 67 -97.5 105t-140.5 38q-118 0 -197.5 -82t-79.5 -200q0 -117 79.5 -198.5t196.5 -81.5q86 0 149 41t98 113l87 -46
q-49 -93 -136 -148t-197 -55z" />
    <glyph glyph-name="cacute" unicode="&#x107;" horiz-adv-x="659" 
d="M303 652l116 163h105l-146 -163h-75zM348 -12q-131 0 -219 88.5t-88 215.5q0 130 88.5 217.5t218.5 87.5q94 0 167.5 -49t106.5 -129l-85 -36q-27 60 -76 93t-114 33q-89 0 -149.5 -63t-60.5 -154q0 -90 61 -153t152 -63q67 0 116 36.5t74 96.5l87 -38
q-35 -83 -107.5 -133t-171.5 -50z" />
    <glyph glyph-name="Ccircumflex" unicode="&#x108;" horiz-adv-x="769" 
d="M414 -10q-159 0 -267 109.5t-108 265.5q0 159 109 267t266 108q101 0 187.5 -50t135.5 -134l-85 -52q-36 67 -97.5 105t-140.5 38q-118 0 -197.5 -82t-79.5 -200q0 -117 79.5 -198.5t196.5 -81.5q86 0 149 41t98 113l87 -46q-49 -93 -136 -148t-197 -55zM261 787l119 163
h69l119 -163h-84l-70 98l-68 -98h-85z" />
    <glyph glyph-name="ccircumflex" unicode="&#x109;" horiz-adv-x="659" 
d="M348 -12q-131 0 -219 88.5t-88 215.5q0 130 88.5 217.5t218.5 87.5q94 0 167.5 -49t106.5 -129l-85 -36q-27 60 -76 93t-114 33q-89 0 -149.5 -63t-60.5 -154q0 -90 61 -153t152 -63q67 0 116 36.5t74 96.5l87 -38q-35 -83 -107.5 -133t-171.5 -50zM199 648l119 163h69
l119 -163h-84l-70 98l-68 -98h-85z" />
    <glyph glyph-name="Cdotaccent" unicode="&#x10a;" horiz-adv-x="769" 
d="M414 -10q-159 0 -267 109.5t-108 265.5q0 159 109 267t266 108q101 0 187.5 -50t135.5 -134l-85 -52q-36 67 -97.5 105t-140.5 38q-118 0 -197.5 -82t-79.5 -200q0 -117 79.5 -198.5t196.5 -81.5q86 0 149 41t98 113l87 -46q-49 -93 -136 -148t-197 -55zM356 861
q0 29 18 46.5t47 17.5q32 0 49 -17t17 -47t-17 -47.5t-49 -17.5q-30 0 -47.5 17.5t-17.5 47.5z" />
    <glyph glyph-name="cdotaccent" unicode="&#x10b;" horiz-adv-x="659" 
d="M348 -12q-131 0 -219 88.5t-88 215.5q0 130 88.5 217.5t218.5 87.5q94 0 167.5 -49t106.5 -129l-85 -36q-27 60 -76 93t-114 33q-89 0 -149.5 -63t-60.5 -154q0 -90 61 -153t152 -63q67 0 116 36.5t74 96.5l87 -38q-35 -83 -107.5 -133t-171.5 -50zM283 715q0 29 18 46.5
t47 17.5q32 0 49 -17t17 -47t-17 -47.5t-49 -17.5q-30 0 -47.5 17.5t-17.5 47.5z" />
    <glyph glyph-name="Ccaron" unicode="&#x10c;" horiz-adv-x="769" 
d="M414 -10q-159 0 -267 109.5t-108 265.5q0 159 109 267t266 108q101 0 187.5 -50t135.5 -134l-85 -52q-36 67 -97.5 105t-140.5 38q-118 0 -197.5 -82t-79.5 -200q0 -117 79.5 -198.5t196.5 -81.5q86 0 149 41t98 113l87 -46q-49 -93 -136 -148t-197 -55zM377 787
l-119 163h85l68 -98l70 98h84l-119 -163h-69z" />
    <glyph glyph-name="ccaron" unicode="&#x10d;" horiz-adv-x="659" 
d="M348 -12q-131 0 -219 88.5t-88 215.5q0 130 88.5 217.5t218.5 87.5q94 0 167.5 -49t106.5 -129l-85 -36q-27 60 -76 93t-114 33q-89 0 -149.5 -63t-60.5 -154q0 -90 61 -153t152 -63q67 0 116 36.5t74 96.5l87 -38q-35 -83 -107.5 -133t-171.5 -50zM317 652l-119 163h85
l68 -98l70 98h84l-119 -163h-69z" />
    <glyph glyph-name="Dcaron" unicode="&#x10e;" horiz-adv-x="684" 
d="M60 0v730h203q172 0 277 -103.5t105 -261.5q0 -156 -108 -260.5t-270 -104.5h-207zM254 641h-98v-551h101q128 0 209 78.5t81 196.5q0 121 -79 198.5t-214 77.5zM249 787l-119 163h85l68 -98l70 98h84l-119 -163h-69z" />
    <glyph glyph-name="dcaron" unicode="&#x10f;" horiz-adv-x="761" 
d="M339 -12q-124 0 -211 87.5t-87 216.5q0 130 86.5 217.5t211.5 87.5q62 0 121 -28.5t93 -79.5v251h94v-740h-93v99q-35 -54 -95 -82q-60 -29 -120 -29zM348 76q90 0 151.5 63t61.5 154q0 90 -61.5 153.5t-151.5 63.5q-88 0 -149.5 -63.5t-61.5 -153.5q0 -91 61.5 -154
t149.5 -63zM689 565l36 176h82l-56 -176h-62z" />
    <glyph glyph-name="Dcroat" unicode="&#x110;" horiz-adv-x="717" 
d="M22 323v88h73v319h201q172 0 277 -103.5t105 -261.5q0 -156 -108 -260.5t-270 -104.5h-205v323h-73zM286 641h-94v-230h198v-88h-198v-233h97q128 0 210 78.5t82 196.5q0 121 -79.5 198.5t-215.5 77.5z" />
    <glyph glyph-name="dslash" unicode="&#x111;" horiz-adv-x="715" 
d="M456 610v69h97v61h94v-61h68v-69h-68v-610h-93v99q-35 -54 -95 -82q-60 -29 -120 -29q-124 0 -211 87.5t-87 216.5q0 130 86.5 217.5t211.5 87.5q62 0 121 -28.5t93 -79.5v121h-97zM348 76q90 0 151.5 63t61.5 154q0 90 -61.5 153.5t-151.5 63.5q-88 0 -149.5 -63.5
t-61.5 -153.5q0 -91 61.5 -154t149.5 -63z" />
    <glyph glyph-name="Emacron" unicode="&#x112;" horiz-adv-x="551" 
d="M60 0v730h440v-92h-344v-226h344v-92h-344v-227h344v-93h-440zM145 787v70h264v-70h-264z" />
    <glyph glyph-name="emacron" unicode="&#x113;" horiz-adv-x="688" 
d="M350 -12q-138 0 -223.5 85.5t-85.5 215.5q0 131 87 219.5t217 88.5q129 0 214.5 -83t85.5 -214v-40h-511q10 -84 69 -135.5t147 -51.5q68 0 118 33t77 91l81 -43q-85 -166 -276 -166zM345 512q-77 0 -133 -46.5t-73 -120.5h409q-13 79 -66 123t-137 44zM219 654v70h264
v-70h-264z" />
    <glyph glyph-name="Ebreve" unicode="&#x114;" horiz-adv-x="551" 
d="M60 0v730h440v-92h-344v-226h344v-92h-344v-227h344v-93h-440zM280 782q-79 0 -120 46t-41 118h70q0 -101 91 -103q44 1 67.5 28t23.5 75h71q0 -70 -44 -117t-118 -47z" />
    <glyph glyph-name="ebreve" unicode="&#x115;" horiz-adv-x="688" 
d="M350 -12q-138 0 -223.5 85.5t-85.5 215.5q0 131 87 219.5t217 88.5q129 0 214.5 -83t85.5 -214v-40h-511q10 -84 69 -135.5t147 -51.5q68 0 118 33t77 91l81 -43q-85 -166 -276 -166zM345 512q-77 0 -133 -46.5t-73 -120.5h409q-13 79 -66 123t-137 44zM350 647
q-79 0 -120 46t-41 118h70q0 -101 91 -103q44 1 67.5 28t23.5 75h71q0 -70 -44 -117t-118 -47z" />
    <glyph glyph-name="Edotaccent" unicode="&#x116;" horiz-adv-x="551" 
d="M60 0v730h440v-92h-344v-226h344v-92h-344v-227h344v-93h-440zM227 861q0 29 18 46.5t47 17.5q32 0 49 -17t17 -47t-17 -47.5t-49 -17.5q-30 0 -47.5 17.5t-17.5 47.5z" />
    <glyph glyph-name="edotaccent" unicode="&#x117;" horiz-adv-x="688" 
d="M350 -12q-138 0 -223.5 85.5t-85.5 215.5q0 131 87 219.5t217 88.5q129 0 214.5 -83t85.5 -214v-40h-511q10 -84 69 -135.5t147 -51.5q68 0 118 33t77 91l81 -43q-85 -166 -276 -166zM345 512q-77 0 -133 -46.5t-73 -120.5h409q-13 79 -66 123t-137 44zM283 713
q0 29 18 46.5t47 17.5q32 0 49 -17t17 -47t-17 -47.5t-49 -17.5q-30 0 -47.5 17.5t-17.5 47.5z" />
    <glyph glyph-name="Eogonek" unicode="&#x118;" horiz-adv-x="551" 
d="M60 0v730h440v-92h-344v-226h344v-92h-344v-227h344v-93h-2l2 -1q-80 -51 -102.5 -70.5t-22.5 -41.5q0 -18 15 -28t39 -10q36 0 71 33l65 -44q-64 -57 -136 -57q-61 0 -99 29t-38 74q0 63 81 116h-313z" />
    <glyph glyph-name="eogonek" unicode="&#x119;" horiz-adv-x="688" 
d="M360 -219q-61 0 -99 29t-38 74q0 60 70 109q-116 18 -184 98.5t-68 197.5q0 131 87 219.5t217 88.5q129 0 214.5 -83t85.5 -214v-40h-511q10 -84 69 -135.5t147 -51.5q68 0 118 33t77 91l81 -43q-68 -130 -201 -158q-76 -49 -97.5 -68t-21.5 -41q0 -18 15 -28t39 -10
q36 0 71 33l65 -44q-64 -57 -136 -57zM345 512q-77 0 -133 -46.5t-73 -120.5h409q-13 79 -66 123t-137 44z" />
    <glyph glyph-name="Ecaron" unicode="&#x11a;" horiz-adv-x="552" 
d="M60 0v730h440v-92h-344v-226h344v-92h-344v-227h344v-93h-440zM241 787l-119 163h85l68 -98l70 98h84l-119 -163h-69z" />
    <glyph glyph-name="ecaron" unicode="&#x11b;" horiz-adv-x="688" 
d="M350 -12q-138 0 -223.5 85.5t-85.5 215.5q0 131 87 219.5t217 88.5q129 0 214.5 -83t85.5 -214v-40h-511q10 -84 69 -135.5t147 -51.5q68 0 118 33t77 91l81 -43q-85 -166 -276 -166zM345 512q-77 0 -133 -46.5t-73 -120.5h409q-13 79 -66 123t-137 44zM316 652l-119 163
h85l68 -98l70 98h84l-119 -163h-69z" />
    <glyph glyph-name="Gcircumflex" unicode="&#x11c;" horiz-adv-x="820" 
d="M418 -10q-162 0 -270.5 110t-108.5 265q0 158 108 266.5t271 108.5q106 0 191.5 -50.5t134.5 -136.5l-84 -51q-37 69 -99.5 107t-142.5 38q-122 0 -201.5 -82t-79.5 -200t80 -199.5t201 -81.5q109 0 177.5 60.5t84.5 159.5h-274v92h375v-34q0 -156 -99 -264t-264 -108z
M258 787l119 163h69l119 -163h-84l-70 98l-68 -98h-85z" />
    <glyph glyph-name="gcircumflex" unicode="&#x11d;" horiz-adv-x="714" 
d="M339 -12q-124 0 -211 87.5t-87 216.5q0 130 86.5 217.5t211.5 87.5q64 0 122 -29.5t93 -81.5v99h95v-574q0 -134 -83 -215t-217 -81q-195 0 -284 155l84 50q35 -59 80 -89t121 -30q94 0 149 57t55 150v91q-35 -54 -95 -82q-60 -29 -120 -29zM348 76q90 0 151.5 63
t61.5 154q0 90 -61.5 153.5t-151.5 63.5q-88 0 -149.5 -63.5t-61.5 -153.5q0 -91 61.5 -154t149.5 -63zM190 650l119 163h69l119 -163h-84l-70 98l-68 -98h-85z" />
    <glyph glyph-name="Gbreve" unicode="&#x11e;" horiz-adv-x="820" 
d="M418 -10q-162 0 -270.5 110t-108.5 265q0 158 108 266.5t271 108.5q106 0 191.5 -50.5t134.5 -136.5l-84 -51q-37 69 -99.5 107t-142.5 38q-122 0 -201.5 -82t-79.5 -200t80 -199.5t201 -81.5q109 0 177.5 60.5t84.5 159.5h-274v92h375v-34q0 -156 -99 -264t-264 -108z
M410 782q-79 0 -120 46t-41 118h70q0 -101 91 -103q44 1 67.5 28t23.5 75h71q0 -70 -44 -117t-118 -47z" />
    <glyph glyph-name="gbreve" unicode="&#x11f;" horiz-adv-x="714" 
d="M339 -12q-124 0 -211 87.5t-87 216.5q0 130 86.5 217.5t211.5 87.5q64 0 122 -29.5t93 -81.5v99h95v-574q0 -134 -83 -215t-217 -81q-195 0 -284 155l84 50q35 -59 80 -89t121 -30q94 0 149 57t55 150v91q-35 -54 -95 -82q-60 -29 -120 -29zM348 76q90 0 151.5 63
t61.5 154q0 90 -61.5 153.5t-151.5 63.5q-88 0 -149.5 -63.5t-61.5 -153.5q0 -91 61.5 -154t149.5 -63zM359 650q-79 0 -120 46t-41 118h70q0 -101 91 -103q44 1 67.5 28t23.5 75h71q0 -70 -44 -117t-118 -47z" />
    <glyph glyph-name="Gdotaccent" unicode="&#x120;" horiz-adv-x="820" 
d="M418 -10q-162 0 -270.5 110t-108.5 265q0 158 108 266.5t271 108.5q106 0 191.5 -50.5t134.5 -136.5l-84 -51q-37 69 -99.5 107t-142.5 38q-122 0 -201.5 -82t-79.5 -200t80 -199.5t201 -81.5q109 0 177.5 60.5t84.5 159.5h-274v92h375v-34q0 -156 -99 -264t-264 -108z
M348 861q0 29 18 46.5t47 17.5q32 0 49 -17t17 -47t-17 -47.5t-49 -17.5q-30 0 -47.5 17.5t-17.5 47.5z" />
    <glyph glyph-name="gdotaccent" unicode="&#x121;" horiz-adv-x="714" 
d="M339 -12q-124 0 -211 87.5t-87 216.5q0 130 86.5 217.5t211.5 87.5q64 0 122 -29.5t93 -81.5v99h95v-574q0 -134 -83 -215t-217 -81q-195 0 -284 155l84 50q35 -59 80 -89t121 -30q94 0 149 57t55 150v91q-35 -54 -95 -82q-60 -29 -120 -29zM348 76q90 0 151.5 63
t61.5 154q0 90 -61.5 153.5t-151.5 63.5q-88 0 -149.5 -63.5t-61.5 -153.5q0 -91 61.5 -154t149.5 -63zM275 716q0 29 18 46.5t47 17.5q32 0 49 -17t17 -47t-17 -47.5t-49 -17.5q-30 0 -47.5 17.5t-17.5 47.5z" />
    <glyph glyph-name="uni0122" unicode="&#x122;" horiz-adv-x="820" 
d="M418 -10q-162 0 -270.5 110t-108.5 265q0 158 108 266.5t271 108.5q106 0 191.5 -50.5t134.5 -136.5l-84 -51q-37 69 -99.5 107t-142.5 38q-122 0 -201.5 -82t-79.5 -200t80 -199.5t201 -81.5q109 0 177.5 60.5t84.5 159.5h-274v92h375v-34q0 -156 -99 -264t-264 -108z
M402 -259h-63l40 204h86z" />
    <glyph glyph-name="uni0123" unicode="&#x123;" horiz-adv-x="714" 
d="M339 -12q-124 0 -211 87.5t-87 216.5q0 130 86.5 217.5t211.5 87.5q64 0 122 -29.5t93 -81.5v99h95v-574q0 -134 -83 -215t-217 -81q-195 0 -284 155l84 50q35 -59 80 -89t121 -30q94 0 149 57t55 150v91q-35 -54 -95 -82q-60 -29 -120 -29zM348 76q90 0 151.5 63
t61.5 154q0 90 -61.5 153.5t-151.5 63.5q-88 0 -149.5 -63.5t-61.5 -153.5q0 -91 61.5 -154t149.5 -63zM367 652h-63l40 204h86z" />
    <glyph glyph-name="Hcircumflex" unicode="&#x124;" horiz-adv-x="666" 
d="M508 0v320h-352v-320h-96v730h96v-317h352v317h97v-730h-97zM178 787l119 163h69l119 -163h-84l-70 98l-68 -98h-85z" />
    <glyph glyph-name="hcircumflex" unicode="&#x125;" horiz-adv-x="669" 
d="M65 0v740h94v-243q68 100 198 100q115 0 182.5 -71t67.5 -194v-332h-97v327q0 88 -43 136.5t-128 48.5q-76 0 -127 -53.5t-51 -134.5v-324h-96zM-46 788l119 163h69l119 -163h-84l-70 98l-68 -98h-85z" />
    <glyph glyph-name="Hbar" unicode="&#x126;" horiz-adv-x="712" 
d="M18 535v74h64v121h96v-121h352v121h97v-121h61v-74h-61v-535h-97v320h-352v-320h-96v535h-64zM178 535v-122h352v122h-352z" />
    <glyph glyph-name="hbar" unicode="&#x127;" horiz-adv-x="680" 
d="M8 624v65h68v51h94v-51h86v-65h-86v-127q68 100 198 100q115 0 182.5 -71t67.5 -194v-332h-97v327q0 88 -43 136.5t-128 48.5q-76 0 -127 -53.5t-51 -134.5v-324h-96v624h-68z" />
    <glyph glyph-name="Itilde" unicode="&#x128;" horiz-adv-x="232" 
d="M68 0v730h97v-730h-97zM18 787h-65q0 56 27 89.5t73 33.5q39 0 80 -27q44 -27 61 -27q36 0 36 50h66q0 -58 -26 -90.5t-75 -32.5q-38 0 -91 32q-36 21 -51 21q-35 0 -35 -49z" />
    <glyph glyph-name="itilde" unicode="&#x129;" horiz-adv-x="224" 
d="M64 0v585h96v-585h-96zM7 652h-65q0 56 27 89.5t73 33.5q39 0 80 -27q44 -27 61 -27q36 0 36 50h66q0 -58 -26 -90.5t-75 -32.5q-38 0 -91 32q-36 21 -51 21q-35 0 -35 -49z" />
    <glyph glyph-name="Imacron" unicode="&#x12a;" horiz-adv-x="233" 
d="M68 0v730h97v-730h-97zM-16 787v70h264v-70h-264z" />
    <glyph glyph-name="imacron" unicode="&#x12b;" horiz-adv-x="224" 
d="M64 0v585h96v-585h-96zM-20 642v70h264v-70h-264z" />
    <glyph glyph-name="Ibreve" unicode="&#x12c;" horiz-adv-x="233" 
d="M68 0v730h97v-730h-97zM114 782q-79 0 -120 46t-41 118h70q0 -101 91 -103q44 1 67.5 28t23.5 75h71q0 -70 -44 -117t-118 -47z" />
    <glyph glyph-name="ibreve" unicode="&#x12d;" horiz-adv-x="224" 
d="M64 0v585h96v-585h-96zM113 638q-79 0 -120 46t-41 118h70q0 -101 91 -103q44 1 67.5 28t23.5 75h71q0 -70 -44 -117t-118 -47z" />
    <glyph glyph-name="Iogonek" unicode="&#x12e;" horiz-adv-x="233" 
d="M118 -223q-58 0 -90.5 31t-33.5 77q-1 66 74 125v720h97v-730h-2q-89 -64 -89 -110q0 -20 12.5 -31.5t33.5 -11.5q31 0 61 30l55 -52q-55 -48 -118 -48z" />
    <glyph glyph-name="iogonek" unicode="&#x12f;" horiz-adv-x="224" 
d="M116 -223q-58 0 -90.5 31t-33.5 77q-1 64 72 123v577h96v-585h1q-89 -64 -89 -110q0 -20 12.5 -31.5t33.5 -11.5q31 0 61 30l55 -52q-55 -48 -118 -48zM44 728q0 30 18.5 48.5t49.5 18.5q32 0 50.5 -18.5t18.5 -48.5q0 -31 -18 -49.5t-51 -18.5q-32 0 -50 18.5t-18 49.5z
" />
    <glyph glyph-name="Idot" unicode="&#x130;" horiz-adv-x="233" 
d="M68 0v730h97v-730h-97zM51 861q0 29 18 46.5t47 17.5q32 0 49 -17t17 -47t-17 -47.5t-49 -17.5q-30 0 -47.5 17.5t-17.5 47.5z" />
    <glyph glyph-name="dotlessi" unicode="&#x131;" horiz-adv-x="224" 
d="M64 0v585h96v-585h-96z" />
    <glyph glyph-name="IJ" unicode="&#x132;" horiz-adv-x="538" 
d="M233 0v93h56q53 0 75.5 24.5t22.5 82.5v530h97v-528q0 -105 -42.5 -153.5t-144.5 -48.5h-64zM54 0v730h98v-730h-98z" />
    <glyph glyph-name="ij" unicode="&#x133;" horiz-adv-x="445" 
d="M64 0v585h96v-585h-96zM44 728q0 30 18.5 48.5t49.5 18.5q32 0 50.5 -18.5t18.5 -48.5q0 -31 -18 -49.5t-51 -18.5q-32 0 -50 18.5t-18 49.5zM381 585v-610q0 -128 -46.5 -176t-170.5 -48h-100v91h85q87 0 111.5 24t24.5 110v609h96zM265 728q0 30 18.5 48.5t49.5 18.5
q33 0 51 -18.5t18 -48.5q0 -31 -18 -49.5t-51 -18.5q-32 0 -50 18.5t-18 49.5z" />
    <glyph glyph-name="Jcircumflex" unicode="&#x134;" horiz-adv-x="484" 
d="M230 -10q-73 0 -126.5 35t-74.5 93l92 43q12 -37 40 -59t67 -22q48 0 74.5 31.5t26.5 86.5v532h97v-526q0 -102 -51.5 -158t-144.5 -56zM221 787l119 163h69l119 -163h-84l-70 98l-68 -98h-85z" />
    <glyph glyph-name="jcircumflex" unicode="&#x135;" horiz-adv-x="225" 
d="M-75 -268v91q88 0 113.5 24t25.5 112v626h96v-627q0 -132 -46.5 -179t-173.5 -47h-15zM-41 642l119 163h69l119 -163h-84l-70 98l-68 -98h-85z" />
    <glyph glyph-name="uni0136" unicode="&#x136;" horiz-adv-x="635" 
d="M505 0l-228 375l-120 -142v-233h-96v730h96v-370l312 370h119l-243 -289l272 -441h-112zM308 -259h-63l40 204h86z" />
    <glyph glyph-name="uni0137" unicode="&#x137;" horiz-adv-x="606" 
d="M65 0v740h94v-472l301 317h118l-236 -248l242 -337h-109l-201 280l-115 -120v-160h-94zM243 -254h-63l40 204h86z" />
    <glyph glyph-name="kgreenlandic" unicode="&#x138;" horiz-adv-x="606" 
d="M474 0l-200 279l-115 -119v-160h-94v585h94v-317l300 317h118l-235 -248l242 -337h-110z" />
    <glyph glyph-name="Lacute" unicode="&#x139;" horiz-adv-x="512" 
d="M60 0v730h96v-637h309v-93h-405zM67 787l116 163h105l-146 -163h-75z" />
    <glyph glyph-name="lacute" unicode="&#x13a;" horiz-adv-x="226" 
d="M77 807l116 163h105l-146 -163h-75zM65 0v740h96v-740h-96z" />
    <glyph glyph-name="uni013B" unicode="&#x13b;" horiz-adv-x="512" 
d="M60 0v730h96v-637h309v-93h-405zM241 -259h-63l40 204h86z" />
    <glyph glyph-name="uni013C" unicode="&#x13c;" horiz-adv-x="226" 
d="M92 -254h-63l40 204h86zM65 0v740h96v-740h-96z" />
    <glyph glyph-name="Lcaron" unicode="&#x13d;" horiz-adv-x="512" 
d="M60 0v730h96v-637h309v-93h-405zM266 554l36 176h82l-56 -176h-62z" />
    <glyph glyph-name="lcaron" unicode="&#x13e;" horiz-adv-x="270" 
d="M192 564l36 176h82l-56 -176h-62zM60 0v740h96v-740h-96z" />
    <glyph glyph-name="Ldot" unicode="&#x13f;" horiz-adv-x="516" 
d="M60 0v730h96v-637h309v-93h-405zM351 362q0 29 18 46.5t47 17.5q32 0 49 -17t17 -47t-17 -47.5t-49 -17.5q-30 0 -47.5 17.5t-17.5 47.5z" />
    <glyph glyph-name="ldot" unicode="&#x140;" horiz-adv-x="366" 
d="M65 0v740h96v-740h-96zM230 294q0 29 18 46.5t47 17.5q32 0 49 -17t17 -47t-17 -47.5t-49 -17.5q-30 0 -47.5 17.5t-17.5 47.5z" />
    <glyph glyph-name="Lslash" unicode="&#x141;" horiz-adv-x="546" 
d="M14 322v70l80 24v314h96v-284l132 40v-70l-132 -40v-283h309v-93h-405v346z" />
    <glyph glyph-name="lslash" unicode="&#x142;" horiz-adv-x="329" 
d="M8 365v71l107 34v384h97v-353l110 36v-71l-110 -36v-430h-97v399z" />
    <glyph glyph-name="Nacute" unicode="&#x143;" horiz-adv-x="720" 
d="M60 0v730h110l393 -574v574h96v-730h-103l-400 582v-582h-96zM327 787l116 163h105l-146 -163h-75z" />
    <glyph glyph-name="nacute" unicode="&#x144;" horiz-adv-x="667" 
d="M64 0v585h94v-90q31 47 82.5 74.5t115.5 27.5q115 0 182 -71t67 -194v-332h-96v328q0 87 -43.5 135.5t-127.5 48.5q-77 0 -128 -53.5t-51 -134.5v-324h-95zM310 652l116 163h105l-146 -163h-75z" />
    <glyph glyph-name="uni0145" unicode="&#x145;" horiz-adv-x="720" 
d="M60 0v730h110l393 -574v574h96v-730h-103l-400 582v-582h-96zM337 -259h-63l40 204h86z" />
    <glyph glyph-name="uni0146" unicode="&#x146;" horiz-adv-x="667" 
d="M64 0v585h94v-90q31 47 82.5 74.5t115.5 27.5q115 0 182 -71t67 -194v-332h-96v328q0 87 -43.5 135.5t-127.5 48.5q-77 0 -128 -53.5t-51 -134.5v-324h-95zM316 -254h-63l40 204h86z" />
    <glyph glyph-name="Ncaron" unicode="&#x147;" horiz-adv-x="720" 
d="M60 0v730h110l393 -574v574h96v-730h-103l-400 582v-582h-96zM326 787l-119 163h85l68 -98l70 98h84l-119 -163h-69z" />
    <glyph glyph-name="ncaron" unicode="&#x148;" horiz-adv-x="667" 
d="M64 0v585h94v-90q31 47 82.5 74.5t115.5 27.5q115 0 182 -71t67 -194v-332h-96v328q0 87 -43.5 135.5t-127.5 48.5q-77 0 -128 -53.5t-51 -134.5v-324h-95zM320 652l-119 163h85l68 -98l70 98h84l-119 -163h-69z" />
    <glyph glyph-name="Eng" unicode="&#x14a;" horiz-adv-x="720" 
d="M449 -213v94h21q54 1 73.5 22.5t19.5 78.5v29l-405 571v-582h-98v730h110l393 -556v556h96v-747q0 -103 -41 -149.5t-139 -46.5h-30z" />
    <glyph glyph-name="eng" unicode="&#x14b;" horiz-adv-x="667" 
d="M370 -268v91q88 0 113.5 24t25.5 112v369q0 87 -43.5 135.5t-127.5 48.5q-77 0 -128 -53.5t-51 -134.5v-324h-95v585h94v-90q31 47 82.5 74.5t115.5 27.5q115 0 182 -71t67 -194v-374q0 -131 -47 -178.5t-174 -47.5h-14z" />
    <glyph glyph-name="Omacron" unicode="&#x14c;" horiz-adv-x="827" 
d="M277 787v70h264v-70h-264zM413 -10q-155 0 -264.5 110t-109.5 265t109.5 265t264.5 110q156 0 265.5 -110t109.5 -265t-109.5 -265t-265.5 -110zM413 84q116 0 197 82.5t81 198.5q0 117 -80.5 199t-197.5 82q-116 0 -196 -82t-80 -199q0 -116 80 -198.5t196 -82.5z" />
    <glyph glyph-name="omacron" unicode="&#x14d;" horiz-adv-x="691" 
d="M216 655v70h264v-70h-264zM344 -12q-126 0 -214.5 88t-88.5 216t88.5 216.5t214.5 88.5q127 0 215.5 -88.5t88.5 -216.5t-88.5 -216t-215.5 -88zM344 76q87 0 148 63t61 153t-60.5 153.5t-148.5 63.5q-87 0 -147 -63.5t-60 -153.5t60 -153t147 -63z" />
    <glyph glyph-name="Obreve" unicode="&#x14e;" horiz-adv-x="827" 
d="M413 -10q-155 0 -264.5 110t-109.5 265t109.5 265t264.5 110q156 0 265.5 -110t109.5 -265t-109.5 -265t-265.5 -110zM413 84q116 0 197 82.5t81 198.5q0 117 -80.5 199t-197.5 82q-116 0 -196 -82t-80 -199q0 -116 80 -198.5t196 -82.5zM408 783q-79 0 -120 46t-41 118
h70q0 -101 91 -103q44 1 67.5 28t23.5 75h71q0 -70 -44 -117t-118 -47z" />
    <glyph glyph-name="obreve" unicode="&#x14f;" horiz-adv-x="691" 
d="M344 -12q-126 0 -214.5 88t-88.5 216t88.5 216.5t214.5 88.5q127 0 215.5 -88.5t88.5 -216.5t-88.5 -216t-215.5 -88zM344 76q87 0 148 63t61 153t-60.5 153.5t-148.5 63.5q-87 0 -147 -63.5t-60 -153.5t60 -153t147 -63zM344 651q-79 0 -120 46t-41 118h70
q0 -101 91 -103q44 1 67.5 28t23.5 75h71q0 -70 -44 -117t-118 -47z" />
    <glyph glyph-name="Ohungarumlaut" unicode="&#x150;" horiz-adv-x="827" 
d="M291 787l116 163h100l-147 -163h-69zM438 787l117 163h99l-146 -163h-70zM413 -10q-155 0 -264.5 110t-109.5 265t109.5 265t264.5 110q156 0 265.5 -110t109.5 -265t-109.5 -265t-265.5 -110zM413 84q116 0 197 82.5t81 198.5q0 117 -80.5 199t-197.5 82
q-116 0 -196 -82t-80 -199q0 -116 80 -198.5t196 -82.5z" />
    <glyph glyph-name="ohungarumlaut" unicode="&#x151;" horiz-adv-x="691" 
d="M238 652l116 163h100l-147 -163h-69zM385 652l117 163h99l-146 -163h-70zM344 -12q-126 0 -214.5 88t-88.5 216t88.5 216.5t214.5 88.5q127 0 215.5 -88.5t88.5 -216.5t-88.5 -216t-215.5 -88zM344 76q87 0 148 63t61 153t-60.5 153.5t-148.5 63.5q-87 0 -147 -63.5
t-60 -153.5t60 -153t147 -63z" />
    <glyph glyph-name="OE" unicode="&#x152;" horiz-adv-x="1181" 
d="M691 0v122q-104 -132 -278 -132q-155 0 -264.5 110t-109.5 265t109.5 265t264.5 110q173 0 278 -133v123h440v-92h-343v-226h343v-92h-343v-227h343v-93h-440zM413 86q116 0 197 82t81 197v11q-4 112 -84.5 190.5t-193.5 78.5q-116 0 -196.5 -81.5t-80.5 -198.5
q0 -115 80.5 -197t196.5 -82z" />
    <glyph glyph-name="oe" unicode="&#x153;" horiz-adv-x="1203" 
d="M344 -12q-126 0 -214.5 88t-88.5 216t88.5 216.5t214.5 88.5q85 0 152 -39t106 -106q39 68 105 106.5t152 38.5q129 0 214.5 -83t85.5 -214v-37h-512q10 -84 70 -137t147 -53q70 0 121 34.5t77 93.5l82 -38q-38 -83 -109 -129t-171 -46q-181 0 -264 141
q-40 -66 -106.5 -103.5t-149.5 -37.5zM344 76q88 0 148.5 63t60.5 153q0 91 -60.5 154t-148.5 63q-87 0 -147 -63t-60 -154q0 -90 60 -153t147 -63zM860 512q-77 0 -133 -45.5t-74 -119.5h410q-14 78 -68 121.5t-135 43.5z" />
    <glyph glyph-name="Racute" unicode="&#x154;" horiz-adv-x="593" 
d="M60 0v730h234q112 0 183 -67.5t71 -168.5q0 -72 -41 -131t-108 -87l160 -276h-109l-144 254h-151v-254h-95zM284 640h-129v-297h128q78 0 122.5 46t44.5 105q0 67 -43.5 106.5t-122.5 39.5zM216 787l116 163h105l-146 -163h-75z" />
    <glyph glyph-name="racute" unicode="&#x155;" horiz-adv-x="434" 
d="M64 0v585h94v-84q43 85 148 85q60 0 114 -30l-40 -89q-40 26 -89 26q-62 0 -97 -40t-35 -123q0 -142 1 -169v-161h-96zM190 642l116 163h105l-146 -163h-75z" />
    <glyph glyph-name="uni0156" unicode="&#x156;" horiz-adv-x="593" 
d="M60 0v730h234q112 0 183 -67.5t71 -168.5q0 -72 -41 -131t-108 -87l160 -276h-109l-144 254h-151v-254h-95zM284 640h-129v-297h128q78 0 122.5 46t44.5 105q0 67 -43.5 106.5t-122.5 39.5zM290 -281h-63l40 204h86z" />
    <glyph glyph-name="uni0157" unicode="&#x157;" horiz-adv-x="434" 
d="M64 0v585h94v-84q43 85 148 85q60 0 114 -30l-40 -89q-40 26 -89 26q-62 0 -97 -40t-35 -123q0 -142 1 -169v-161h-96zM90 -254h-63l40 204h86z" />
    <glyph glyph-name="Rcaron" unicode="&#x158;" horiz-adv-x="593" 
d="M60 0v730h234q112 0 183 -67.5t71 -168.5q0 -72 -41 -131t-108 -87l160 -276h-109l-144 254h-151v-254h-95zM284 640h-129v-297h128q78 0 122.5 46t44.5 105q0 67 -43.5 106.5t-122.5 39.5zM266 787l-119 163h85l68 -98l70 98h84l-119 -163h-69z" />
    <glyph glyph-name="rcaron" unicode="&#x159;" horiz-adv-x="434" 
d="M64 0v585h94v-84q43 85 148 85q60 0 114 -30l-40 -89q-40 26 -89 26q-62 0 -97 -40t-35 -123q0 -142 1 -169v-161h-96zM202 644l-119 163h85l68 -98l70 98h84l-119 -163h-69z" />
    <glyph glyph-name="Sacute" unicode="&#x15a;" horiz-adv-x="562" 
d="M235 787l116 163h105l-146 -163h-75zM282 -10q-166 0 -265 130l85 66q68 -105 179 -105q63 0 102.5 35t39.5 90q0 23 -10 42t-23.5 31.5t-39 25t-44.5 19t-52 16.5q-47 15 -75.5 27.5t-62.5 36t-50.5 58.5t-16.5 82q0 83 66 139.5t164 56.5q140 0 231 -106l-79 -59
q-52 79 -152 79q-59 0 -95 -30t-36 -78q0 -60 74 -94q20 -10 92 -34q39 -13 61.5 -22.5t54.5 -28t49.5 -38.5t30.5 -52t13 -71q0 -88 -67 -152t-174 -64z" />
    <glyph glyph-name="sacute" unicode="&#x15b;" horiz-adv-x="533" 
d="M227 652l116 163h105l-146 -163h-75zM264 -12q-162 0 -246 121l81 53q61 -90 168 -90q62 0 96 28t34 69q0 20 -10 34t-33 24t-41 15t-53 13q-12 3 -18 4q-36 9 -58.5 16t-51.5 21t-46 30t-29 42.5t-12 59.5q0 70 59.5 120t155.5 50q148 0 223 -97l-75 -52q-57 68 -148 68
q-57 0 -88.5 -24.5t-31.5 -62.5q0 -25 18.5 -41.5t43.5 -25t67 -18.5q15 -3 22 -5q38 -10 58 -16t52 -20t48 -30t29 -43t13 -61q0 -68 -58.5 -125t-168.5 -57z" />
    <glyph glyph-name="Scircumflex" unicode="&#x15c;" horiz-adv-x="562" 
d="M282 -10q-166 0 -265 130l85 66q68 -105 179 -105q63 0 102.5 35t39.5 90q0 23 -10 42t-23.5 31.5t-39 25t-44.5 19t-52 16.5q-47 15 -75.5 27.5t-62.5 36t-50.5 58.5t-16.5 82q0 83 66 139.5t164 56.5q140 0 231 -106l-79 -59q-52 79 -152 79q-59 0 -95 -30t-36 -78
q0 -60 74 -94q20 -10 92 -34q39 -13 61.5 -22.5t54.5 -28t49.5 -38.5t30.5 -52t13 -71q0 -88 -67 -152t-174 -64zM126 787l119 163h69l119 -163h-84l-70 98l-68 -98h-85z" />
    <glyph glyph-name="scircumflex" unicode="&#x15d;" horiz-adv-x="533" 
d="M264 -12q-162 0 -246 121l81 53q61 -90 168 -90q62 0 96 28t34 69q0 20 -10 34t-33 24t-41 15t-53 13q-12 3 -18 4q-36 9 -58.5 16t-51.5 21t-46 30t-29 42.5t-12 59.5q0 70 59.5 120t155.5 50q148 0 223 -97l-75 -52q-57 68 -148 68q-57 0 -88.5 -24.5t-31.5 -62.5
q0 -25 18.5 -41.5t43.5 -25t67 -18.5q15 -3 22 -5q38 -10 58 -16t52 -20t48 -30t29 -43t13 -61q0 -68 -58.5 -125t-168.5 -57zM114 647l119 163h69l119 -163h-84l-70 98l-68 -98h-85z" />
    <glyph glyph-name="Scedilla" unicode="&#x15e;" horiz-adv-x="562" 
d="M279 -235q-82 0 -143 56l64 39q42 -35 84 -35q27 0 46 11t19 28q0 34 -68 34h-43v95q-135 15 -221 127l85 66q68 -105 179 -105q63 0 102.5 35t39.5 90q0 23 -10 42t-23.5 31.5t-39 25t-44.5 19t-52 16.5q-47 15 -75.5 27.5t-62.5 36t-50.5 58.5t-16.5 82q0 83 66 139.5
t164 56.5q140 0 231 -106l-79 -59q-52 79 -152 79q-59 0 -95 -30t-36 -78q0 -60 74 -94q20 -10 92 -34q39 -13 61.5 -22.5t54.5 -28t49.5 -38.5t30.5 -52t13 -71q0 -83 -59.5 -145t-156.5 -70v-44q53 1 85.5 -21.5t32.5 -58.5q0 -44 -42.5 -73t-103.5 -29z" />
    <glyph glyph-name="scedilla" unicode="&#x15f;" horiz-adv-x="533" 
d="M255 -238q-82 0 -143 56l64 39q42 -35 84 -35q27 0 46 11t19 28q0 34 -68 34h-43v97q-127 16 -196 117l81 53q61 -90 168 -90q62 0 96 28t34 69q0 20 -10 34t-33 24t-41 15t-53 13q-12 3 -18 4q-36 9 -58.5 16t-51.5 21t-46 30t-29 42.5t-12 59.5q0 70 59.5 120t155.5 50
q148 0 223 -97l-75 -52q-57 68 -148 68q-57 0 -88.5 -24.5t-31.5 -62.5q0 -25 18.5 -41.5t43.5 -25t67 -18.5q15 -3 22 -5q38 -10 58 -16t52 -20t48 -30t29 -43t13 -61q0 -65 -53.5 -120t-154.5 -61v-45q53 1 85.5 -21.5t32.5 -58.5q0 -44 -42.5 -73t-103.5 -29z" />
    <glyph glyph-name="Scaron" unicode="&#x160;" horiz-adv-x="562" 
d="M282 -10q-166 0 -265 130l85 66q68 -105 179 -105q63 0 102.5 35t39.5 90q0 23 -10 42t-23.5 31.5t-39 25t-44.5 19t-52 16.5q-47 15 -75.5 27.5t-62.5 36t-50.5 58.5t-16.5 82q0 83 66 139.5t164 56.5q140 0 231 -106l-79 -59q-52 79 -152 79q-59 0 -95 -30t-36 -78
q0 -60 74 -94q20 -10 92 -34q39 -13 61.5 -22.5t54.5 -28t49.5 -38.5t30.5 -52t13 -71q0 -88 -67 -152t-174 -64zM249 787l-119 163h85l68 -98l70 98h84l-119 -163h-69z" />
    <glyph glyph-name="scaron" unicode="&#x161;" horiz-adv-x="533" 
d="M264 -12q-162 0 -246 121l81 53q61 -90 168 -90q62 0 96 28t34 69q0 20 -10 34t-33 24t-41 15t-53 13q-12 3 -18 4q-36 9 -58.5 16t-51.5 21t-46 30t-29 42.5t-12 59.5q0 70 59.5 120t155.5 50q148 0 223 -97l-75 -52q-57 68 -148 68q-57 0 -88.5 -24.5t-31.5 -62.5
q0 -25 18.5 -41.5t43.5 -25t67 -18.5q15 -3 22 -5q38 -10 58 -16t52 -20t48 -30t29 -43t13 -61q0 -68 -58.5 -125t-168.5 -57zM227 652l-119 163h85l68 -98l70 98h84l-119 -163h-69z" />
    <glyph glyph-name="uni0162" unicode="&#x162;" horiz-adv-x="605" 
d="M284 -259h-63l40 204h86zM256 0v639h-212v91h520v-91h-212v-639h-96z" />
    <glyph glyph-name="uni0163" unicode="&#x163;" horiz-adv-x="403" 
d="M28 499v86h102v111l94 65v-176h137v-86h-137v-272q0 -88 25 -112.5t112 -24.5v-90h-14q-128 0 -172.5 47t-44.5 179v273h-102zM223 -257h-63l40 204h86z" />
    <glyph glyph-name="Tcaron" unicode="&#x164;" horiz-adv-x="605" 
d="M256 0v639h-212v91h520v-91h-212v-639h-96zM264 787l-119 163h85l68 -98l70 98h84l-119 -163h-69z" />
    <glyph glyph-name="tcaron" unicode="&#x165;" horiz-adv-x="403" 
d="M28 499v86h102v111l94 65v-176h137v-86h-137v-272q0 -88 25 -112.5t112 -24.5v-90h-14q-128 0 -172.5 47t-44.5 179v273h-102zM268 634l36 176h82l-56 -176h-62z" />
    <glyph glyph-name="Tbar" unicode="&#x166;" horiz-adv-x="605" 
d="M145 346v91h111v202h-212v91h520v-91h-212v-202h109v-91h-109v-346h-96v346h-111z" />
    <glyph glyph-name="tbar" unicode="&#x167;" horiz-adv-x="403" 
d="M28 499v86h101v111l95 65v-176h137v-86h-137v-152h137v-81h-137v-39q0 -88 25 -112.5t112 -24.5v-90h-14q-128 0 -173 47t-45 179v40h-101v81h101v152h-101z" />
    <glyph glyph-name="Utilde" unicode="&#x168;" horiz-adv-x="625" 
d="M312 -10q-111 0 -182.5 70t-71.5 184v486h96v-492q0 -64 46 -110.5t112 -46.5t112.5 46.5t46.5 110.5v492h96v-486q0 -113 -72 -183.5t-183 -70.5zM204 787h-65q0 56 27 89.5t73 33.5q39 0 80 -27q44 -27 61 -27q36 0 36 50h66q0 -58 -26 -90.5t-75 -32.5q-38 0 -91 32
q-36 21 -51 21q-35 0 -35 -49z" />
    <glyph glyph-name="utilde" unicode="&#x169;" horiz-adv-x="636" 
d="M302 -12q-116 0 -178 69t-62 196v332h47q6 44 32 69.5t66 25.5q39 0 80 -27q44 -27 61 -27q36 0 36 50h66q0 -58 -26 -90.5t-75 -32.5q-38 0 -91 32q-36 21 -51 21q-35 0 -35 -49h-14v-300q0 -184 160 -184q74 0 116.5 51.5t42.5 135.5v325h95v-585h-93v82
q-58 -94 -177 -94z" />
    <glyph glyph-name="Umacron" unicode="&#x16a;" horiz-adv-x="625" 
d="M312 -10q-111 0 -182.5 70t-71.5 184v486h96v-492q0 -64 46 -110.5t112 -46.5t112.5 46.5t46.5 110.5v492h96v-486q0 -113 -72 -183.5t-183 -70.5zM178 787v70h264v-70h-264z" />
    <glyph glyph-name="umacron" unicode="&#x16b;" horiz-adv-x="636" 
d="M302 -12q-116 0 -178 69t-62 196v332h96v-328q0 -184 160 -184q74 0 116.5 51.5t42.5 135.5v325h95v-585h-93v82q-58 -94 -177 -94zM185 642v70h264v-70h-264z" />
    <glyph glyph-name="Ubreve" unicode="&#x16c;" horiz-adv-x="625" 
d="M312 -10q-111 0 -182.5 70t-71.5 184v486h96v-492q0 -64 46 -110.5t112 -46.5t112.5 46.5t46.5 110.5v492h96v-486q0 -113 -72 -183.5t-183 -70.5zM311 782q-79 0 -120 46t-41 118h70q0 -101 91 -103q44 1 67.5 28t23.5 75h71q0 -70 -44 -117t-118 -47z" />
    <glyph glyph-name="ubreve" unicode="&#x16d;" horiz-adv-x="636" 
d="M302 -12q-116 0 -178 69t-62 196v332h96v-328q0 -184 160 -184q74 0 116.5 51.5t42.5 135.5v325h95v-585h-93v82q-58 -94 -177 -94zM322 618q-79 0 -120 46t-41 118h70q0 -101 91 -103q44 1 67.5 28t23.5 75h71q0 -70 -44 -117t-118 -47z" />
    <glyph glyph-name="Uring" unicode="&#x16e;" horiz-adv-x="625" 
d="M308 764q-45 0 -76.5 31.5t-31.5 77.5t31.5 78t76.5 32q46 0 78.5 -32t32.5 -78t-32 -77.5t-79 -31.5zM308 827q20 0 33.5 13t13.5 33q0 19 -13.5 33t-33.5 14q-19 0 -32.5 -14t-13.5 -33q0 -20 13.5 -33t32.5 -13zM312 -10q-111 0 -182.5 70t-71.5 184v486h96v-492
q0 -64 46 -110.5t112 -46.5t112.5 46.5t46.5 110.5v492h96v-486q0 -113 -72 -183.5t-183 -70.5z" />
    <glyph glyph-name="uring" unicode="&#x16f;" horiz-adv-x="636" 
d="M302 -12q-116 0 -178 69t-62 196v332h96v-328q0 -184 160 -184q74 0 116.5 51.5t42.5 135.5v325h95v-585h-93v82q-58 -94 -177 -94zM279 553q-45 0 -76.5 31.5t-31.5 77.5t31.5 78t76.5 32q46 0 78.5 -32t32.5 -78t-32 -77.5t-79 -31.5zM279 616q20 0 33.5 13t13.5 33
q0 19 -13.5 33t-33.5 14q-19 0 -32.5 -14t-13.5 -33q0 -20 13.5 -33t32.5 -13z" />
    <glyph glyph-name="Uhungarumlaut" unicode="&#x170;" horiz-adv-x="625" 
d="M312 -10q-111 0 -182.5 70t-71.5 184v486h96v-492q0 -64 46 -110.5t112 -46.5t112.5 46.5t46.5 110.5v492h96v-486q0 -113 -72 -183.5t-183 -70.5zM185 787l116 163h100l-147 -163h-69zM332 787l117 163h99l-146 -163h-70z" />
    <glyph glyph-name="uhungarumlaut" unicode="&#x171;" horiz-adv-x="636" 
d="M302 -12q-116 0 -178 69t-62 196v332h96v-328q0 -184 160 -184q74 0 116.5 51.5t42.5 135.5v325h95v-585h-93v82q-58 -94 -177 -94zM347 636l117 163h99l-146 -163h-70zM200 636l116 163h100l-147 -163h-69z" />
    <glyph glyph-name="Uogonek" unicode="&#x172;" horiz-adv-x="625" 
d="M319 -217q-61 0 -99 29t-38 74q0 60 71 110q-88 18 -141.5 84t-53.5 164v486h96v-492q0 -64 46 -110.5t112 -46.5t112.5 46.5t46.5 110.5v492h96v-486q0 -94 -48.5 -158t-130.5 -86q-75 -45 -99 -67t-24 -44q0 -18 15 -28t39 -10q36 0 71 33l65 -44q-64 -57 -136 -57z
" />
    <glyph glyph-name="uogonek" unicode="&#x173;" horiz-adv-x="636" 
d="M500 -223q-58 0 -90.5 31t-33.5 77q-1 76 103 147v50q-58 -94 -177 -94q-116 0 -178 69t-62 196v332h96v-328q0 -184 160 -184q74 0 116.5 51.5t42.5 135.5v325h95v-585h-27q-89 -64 -89 -110q0 -20 12.5 -31.5t33.5 -11.5q31 0 61 30l55 -52q-55 -48 -118 -48z" />
    <glyph glyph-name="Wcircumflex" unicode="&#x174;" horiz-adv-x="1051" 
d="M240 0l-211 730h102l162 -578l185 578h95l184 -579l167 579h99l-217 -730h-97l-184 579l-186 -579h-99zM370 787l119 163h69l119 -163h-84l-70 98l-68 -98h-85z" />
    <glyph glyph-name="wcircumflex" unicode="&#x175;" horiz-adv-x="990" 
d="M222 0l-190 585h99l144 -453l174 453h88l174 -455l149 455h99l-199 -585h-92l-176 455l-176 -455h-94zM336 639l119 163h69l119 -163h-84l-70 98l-68 -98h-85z" />
    <glyph glyph-name="Ycircumflex" unicode="&#x176;" horiz-adv-x="621" 
d="M263 0v346l-239 384h107l180 -291l180 291h107l-239 -384v-346h-96zM156 787l119 163h69l119 -163h-84l-70 98l-68 -98h-85z" />
    <glyph glyph-name="ycircumflex" unicode="&#x177;" horiz-adv-x="635" 
d="M144 -270l132 301l-252 554h104l197 -443l183 443h102l-366 -855h-100zM168 639l119 163h69l119 -163h-84l-70 98l-68 -98h-85z" />
    <glyph glyph-name="Ydieresis" unicode="&#x178;" horiz-adv-x="621" 
d="M263 0v346l-239 384h107l180 -291l180 291h107l-239 -384v-346h-96zM344 861q0 28 17 45t46 17q30 0 47 -17t17 -45q0 -29 -16.5 -46t-47.5 -17q-30 0 -46.5 17t-16.5 46zM149 861q0 28 17 45t46 17q30 0 47 -17t17 -45q0 -29 -17 -46t-47 -17t-46.5 17t-16.5 46z" />
    <glyph glyph-name="Zacute" unicode="&#x179;" horiz-adv-x="583" 
d="M50 0v89l369 549h-357v92h471v-88l-369 -549h370v-93h-484zM244 787l116 163h105l-146 -163h-75z" />
    <glyph glyph-name="zacute" unicode="&#x17a;" horiz-adv-x="603" 
d="M45 0v89l391 411h-381v85h499v-89l-391 -410h395v-86h-513zM255 642l116 163h105l-146 -163h-75z" />
    <glyph glyph-name="Zdotaccent" unicode="&#x17b;" horiz-adv-x="583" 
d="M50 0v89l369 549h-357v92h471v-88l-369 -549h370v-93h-484zM231 861q0 29 18 46.5t47 17.5q32 0 49 -17t17 -47t-17 -47.5t-49 -17.5q-30 0 -47.5 17.5t-17.5 47.5z" />
    <glyph glyph-name="zdotaccent" unicode="&#x17c;" horiz-adv-x="603" 
d="M45 0v89l391 411h-381v85h499v-89l-391 -410h395v-86h-513zM241 704q0 29 18 46.5t47 17.5q32 0 49 -17t17 -47t-17 -47.5t-49 -17.5q-30 0 -47.5 17.5t-17.5 47.5z" />
    <glyph glyph-name="Zcaron" unicode="&#x17d;" horiz-adv-x="583" 
d="M50 0v89l369 549h-357v92h471v-88l-369 -549h370v-93h-484zM260 787l-119 163h85l68 -98l70 98h84l-119 -163h-69z" />
    <glyph glyph-name="zcaron" unicode="&#x17e;" horiz-adv-x="603" 
d="M45 0v89l391 411h-381v85h499v-89l-391 -410h395v-86h-513zM271 642l-119 163h85l68 -98l70 98h84l-119 -163h-69z" />
    <glyph glyph-name="uni018f" unicode="&#x18f;" horiz-adv-x="827" 
d="M409 -10q-83 0 -154 32.5t-117.5 85.5t-72.5 119t-26 135v34h649q-10 107 -87.5 179t-191.5 72q-76 0 -139.5 -41t-99.5 -104l-83 51q46 81 133.5 134t188.5 53q163 0 271 -108.5t108 -266.5q0 -155 -108.5 -265t-270.5 -110zM409 84q103 0 177.5 61t96.5 156h-538
q16 -84 88.5 -150.5t175.5 -66.5z" />
    <glyph glyph-name="florin" unicode="&#x192;" horiz-adv-x="588" 
d="M89 329v86h172l35 114q33 112 86.5 156.5t143.5 44.5h8v-88q-60 0 -90.5 -24.5t-49.5 -92.5l-34 -110h152v-86h-178l-39 -128q-34 -114 -83 -157.5t-145 -43.5h-12v89q63 0 91.5 23.5t51.5 93.5l37 123h-146z" />
    <glyph glyph-name="Aringacute" unicode="&#x1fa;" horiz-adv-x="696" 
d="M27 0l256 691q-42 31 -42 87q0 46 31.5 78t76.5 32q46 0 78.5 -32t32.5 -78q0 -56 -46 -89l255 -689h-101l-62 167h-316l-61 -167h-102zM348 597l-124 -337h248zM310 922l116 163h105l-146 -163h-75zM349 732q20 0 33.5 13t13.5 33q0 19 -13.5 33t-33.5 14
q-19 0 -32.5 -14t-13.5 -33q0 -20 13.5 -33t32.5 -13z" />
    <glyph glyph-name="aringacute" unicode="&#x1fb;" horiz-adv-x="712" 
d="M339 -12q-124 0 -211 87.5t-87 216.5q0 105 58 184t151 107q-17 26 -17 60q0 46 31.5 78t76.5 32q46 0 78.5 -32t32.5 -78q0 -34 -20 -63q81 -31 122 -92v97h94v-585h-94v99q-35 -54 -95 -82q-60 -29 -120 -29zM348 76q90 0 151.5 63t61.5 154q0 90 -61.5 153.5
t-151.5 63.5q-88 0 -149.5 -63.5t-61.5 -153.5q0 -91 61.5 -154t149.5 -63zM300 785l116 163h105l-146 -163h-75zM339 597h2q20 0 33.5 13t13.5 33q0 19 -13.5 33t-33.5 14q-19 0 -32.5 -14t-13.5 -33q0 -20 12.5 -32.5t31.5 -13.5z" />
    <glyph glyph-name="AEacute" unicode="&#x1fc;" horiz-adv-x="993" 
d="M23 0l346 730h565v-92h-441l54 -226h387v-92h-365l54 -227h311v-93h-390l-39 164h-300l-77 -164h-105zM405 589l-158 -335h237zM498 797l116 163h105l-146 -163h-75z" />
    <glyph glyph-name="aeacute" unicode="&#x1fd;" horiz-adv-x="1094" 
d="M756 -12q-177 0 -262 135q-30 -56 -96.5 -95.5t-150.5 -39.5q-105 0 -156 44t-53 117q0 42 15.5 73t46 51.5t64.5 33.5t82 24l42.5 9.5t43.5 10t37 10t34.5 12.5t24 14.5t18 19.5t5.5 24q0 40 -37.5 65t-106.5 25q-79 0 -123 -37.5t-44 -97.5v-3h-88v2q0 98 67.5 155
t184.5 57q164 0 219 -101q88 101 227 101q130 0 215.5 -83t85.5 -214v-37h-512q10 -84 70 -137t147 -53q69 0 119.5 34.5t77.5 93.5l82 -38q-83 -175 -279 -175zM750 512q-76 0 -131.5 -45.5t-73.5 -119.5h409q-14 78 -67.5 121.5t-136.5 43.5zM252 68q76 0 133 48t71 100
q-7 29 -7 73q0 22 1 33q-11 -20 -46.5 -32t-113.5 -29q-80 -16 -117.5 -39t-37.5 -71q0 -38 28.5 -60.5t88.5 -22.5zM497 648l116 163h105l-146 -163h-75z" />
    <glyph glyph-name="Oslashacute" unicode="&#x1fe;" horiz-adv-x="827" 
d="M74 0l76 98q-111 109 -111 267q0 155 109.5 265t264.5 110q106 0 196 -55l35 45h112l-78 -100q110 -110 110 -265t-109.5 -265t-265.5 -110q-107 0 -193 53l-34 -43h-112zM137 365q0 -112 73 -191l340 436q-63 36 -137 36q-116 0 -196 -82t-80 -199zM413 84
q116 0 197 82.5t81 198.5q0 107 -72 189l-340 -435q61 -35 134 -35zM364 787l116 163h105l-146 -163h-75z" />
    <glyph glyph-name="oslashacute" unicode="&#x1ff;" horiz-adv-x="691" 
d="M344 -12q-82 0 -152 40l-22 -28h-101l59 77q-87 89 -87 215q0 128 88.5 216.5t214.5 88.5q82 0 153 -41l22 29h102l-60 -78q87 -89 87 -215q0 -128 -88.5 -216t-215.5 -88zM344 76q88 0 148.5 63t60.5 153q0 79 -49 141l-257 -333q42 -24 97 -24zM137 292q0 -83 48 -140
l256 332q-44 25 -97 25q-87 0 -147 -63t-60 -154zM313 648l116 163h105l-146 -163h-75z" />
    <glyph glyph-name="uni0218" unicode="&#x218;" horiz-adv-x="562" 
d="M265 -252h-63l40 204h86zM282 -10q-166 0 -265 130l85 66q68 -105 179 -105q63 0 102.5 35t39.5 90q0 23 -10 42t-23.5 31.5t-39 25t-44.5 19t-52 16.5q-47 15 -75.5 27.5t-62.5 36t-50.5 58.5t-16.5 82q0 83 66 139.5t164 56.5q140 0 231 -106l-79 -59q-52 79 -152 79
q-59 0 -95 -30t-36 -78q0 -60 74 -94q20 -10 92 -34q39 -13 61.5 -22.5t54.5 -28t49.5 -38.5t30.5 -52t13 -71q0 -88 -67 -152t-174 -64z" />
    <glyph glyph-name="uni0219" unicode="&#x219;" horiz-adv-x="533" 
d="M243 -259h-63l40 204h86zM264 -12q-162 0 -246 121l81 53q61 -90 168 -90q62 0 96 28t34 69q0 20 -10 34t-33 24t-41 15t-53 13q-12 3 -18 4q-36 9 -58.5 16t-51.5 21t-46 30t-29 42.5t-12 59.5q0 70 59.5 120t155.5 50q148 0 223 -97l-75 -52q-57 68 -148 68
q-57 0 -88.5 -24.5t-31.5 -62.5q0 -25 18.5 -41.5t43.5 -25t67 -18.5q15 -3 22 -5q38 -10 58 -16t52 -20t48 -30t29 -43t13 -61q0 -68 -58.5 -125t-168.5 -57z" />
    <glyph glyph-name="uni0237" unicode="&#x237;" horiz-adv-x="224" 
d="M-75 -268v91q88 0 113.5 24t25.5 112v626h96v-627q0 -132 -46.5 -179t-173.5 -47h-15z" />
    <glyph glyph-name="uni0259" unicode="&#x259;" horiz-adv-x="690" 
d="M338 597q136 0 222.5 -89.5t86.5 -211.5q0 -131 -87 -219.5t-217 -88.5q-128 0 -215 86.5t-87 210.5v40h509q-10 75 -68 129.5t-142 54.5q-63 0 -111 -34.5t-74 -87.5l-83 47q37 69 107 116t159 47zM343 75q74 0 131.5 48.5t72.5 116.5h-406q11 -61 68 -113t134 -52z" />
    <glyph glyph-name="circumflex" unicode="&#x2c6;" horiz-adv-x="489" 
d="M91 557l119 163h69l119 -163h-84l-70 98l-68 -98h-85z" />
    <glyph glyph-name="caron" unicode="&#x2c7;" horiz-adv-x="489" 
d="M209 557l-119 163h85l68 -98l70 98h84l-119 -163h-69z" />
    <glyph glyph-name="breve" unicode="&#x2d8;" horiz-adv-x="489" 
d="M243 551q-79 0 -120 46t-41 118h70q0 -101 91 -103q44 1 67.5 28t23.5 75h71q0 -70 -44 -117t-118 -47z" />
    <glyph glyph-name="dotaccent" unicode="&#x2d9;" horiz-adv-x="492" 
d="M171 631q0 29 18 46.5t47 17.5q32 0 49 -17t17 -47t-17 -47.5t-49 -17.5q-30 0 -47.5 17.5t-17.5 47.5z" />
    <glyph glyph-name="ring" unicode="&#x2da;" horiz-adv-x="489" 
d="M242 553q-45 0 -76.5 31.5t-31.5 77.5t31.5 78t76.5 32q46 0 78.5 -32t32.5 -78t-32 -77.5t-79 -31.5zM242 616q20 0 33.5 13t13.5 33q0 19 -13.5 33t-33.5 14q-19 0 -32.5 -14t-13.5 -33q0 -20 13.5 -33t32.5 -13z" />
    <glyph glyph-name="ogonek" unicode="&#x2db;" horiz-adv-x="489" 
d="M239 -219q-61 0 -99 29t-38 74q0 40 31.5 75.5t110.5 74.5l66 -35q-80 -51 -102.5 -70.5t-22.5 -41.5q0 -18 15 -28t39 -10q36 0 71 33l65 -44q-64 -57 -136 -57z" />
    <glyph glyph-name="tilde" unicode="&#x2dc;" horiz-adv-x="489" 
d="M136 557h-65q0 56 27 89.5t73 33.5q39 0 80 -27q44 -27 61 -27q36 0 36 50h66q0 -58 -26 -90.5t-75 -32.5q-38 0 -91 32q-36 21 -51 21q-35 0 -35 -49z" />
    <glyph glyph-name="hungarumlaut" unicode="&#x2dd;" horiz-adv-x="489" 
d="M62 557l116 163h100l-147 -163h-69zM209 557l117 163h99l-146 -163h-70z" />
    <glyph glyph-name="uni0328" unicode="&#x328;" horiz-adv-x="489" 
d="M267 -223q-58 0 -90.5 31t-33.5 77q-1 75 106 149l63 -34q-89 -64 -89 -110q0 -20 12.5 -31.5t33.5 -11.5q31 0 61 30l55 -52q-55 -48 -118 -48z" />
    <glyph glyph-name="pi" unicode="&#x3c0;" horiz-adv-x="760" 
d="M41 637v93h680v-93h-138v-440q0 -58 18.5 -81t68.5 -23h36v-93h-44q-99 0 -137.5 46.5t-38.5 151.5v439h-222v-637h-96v637h-127z" />
    <glyph glyph-name="pi" unicode="&#x3d6;" horiz-adv-x="760" 
d="M41 637v93h680v-93h-138v-440q0 -58 18.5 -81t68.5 -23h36v-93h-44q-99 0 -137.5 46.5t-38.5 151.5v439h-222v-637h-96v637h-127z" />
    <glyph glyph-name="uni0E3F" unicode="&#xe3f;" horiz-adv-x="514" 
d="M53 65v596h173v69h64v-70q85 -4 132 -46t47 -116q0 -86 -74 -125q81 -42 81 -135q1 -79 -48.5 -123.5t-137.5 -49.5v-65h-64v65h-173zM148 326v-175h78v175h-78zM148 574v-159h78v159h-78zM380 239q0 79 -90 86v-174q42 4 66 28t24 60zM374 496q0 34 -22 54t-62 23v-158
q41 3 62.5 25t21.5 56z" />
    <glyph glyph-name="Wgrave" unicode="&#x1e80;" horiz-adv-x="1051" 
d="M240 0l-211 730h102l162 -578l185 578h95l184 -579l167 579h99l-217 -730h-97l-184 579l-186 -579h-99zM484 787l-146 163h104l117 -163h-75z" />
    <glyph glyph-name="wgrave" unicode="&#x1e81;" horiz-adv-x="990" 
d="M222 0l-190 585h99l144 -453l174 453h88l174 -455l149 455h99l-199 -585h-92l-176 455l-176 -455h-94zM457 642l-146 163h104l117 -163h-75z" />
    <glyph glyph-name="Wacute" unicode="&#x1e82;" horiz-adv-x="1051" 
d="M240 0l-211 730h102l162 -578l185 578h95l184 -579l167 579h99l-217 -730h-97l-184 579l-186 -579h-99zM482 787l116 163h105l-146 -163h-75z" />
    <glyph glyph-name="wacute" unicode="&#x1e83;" horiz-adv-x="990" 
d="M222 0l-190 585h99l144 -453l174 453h88l174 -455l149 455h99l-199 -585h-92l-176 455l-176 -455h-94zM458 642l116 163h105l-146 -163h-75z" />
    <glyph glyph-name="Wdieresis" unicode="&#x1e84;" horiz-adv-x="1051" 
d="M240 0l-211 730h102l162 -578l185 578h95l184 -579l167 579h99l-217 -730h-97l-184 579l-186 -579h-99zM559 861q0 28 17 45t46 17q30 0 47 -17t17 -45q0 -29 -17 -46t-47 -17t-46.5 17t-16.5 46zM364 861q0 28 17 45t46 17q30 0 47 -17t17 -45q0 -29 -16.5 -46
t-47.5 -17q-30 0 -46.5 17t-16.5 46z" />
    <glyph glyph-name="wdieresis" unicode="&#x1e85;" horiz-adv-x="990" 
d="M222 0l-190 585h99l144 -453l174 453h88l174 -455l149 455h99l-199 -585h-92l-176 455l-176 -455h-94zM527 703q0 28 17 45t46 17q30 0 47 -17t17 -45q0 -29 -17 -46t-47 -17t-46.5 17t-16.5 46zM332 703q0 28 17 45t46 17q30 0 47 -17t17 -45q0 -29 -16.5 -46t-47.5 -17
q-30 0 -46.5 17t-16.5 46z" />
    <glyph glyph-name="Ygrave" unicode="&#x1ef2;" horiz-adv-x="621" 
d="M263 0v346l-239 384h107l180 -291l180 291h107l-239 -384v-346h-96zM271 774l-146 163h104l117 -163h-75z" />
    <glyph glyph-name="ygrave" unicode="&#x1ef3;" horiz-adv-x="635" 
d="M144 -270l132 301l-252 554h104l197 -443l183 443h102l-366 -855h-100zM276 644l-146 163h104l117 -163h-75z" />
    <glyph glyph-name="figuredash" unicode="&#x2012;" horiz-adv-x="654" 
d="M46 211v83h562v-83h-562z" />
    <glyph glyph-name="endash" unicode="&#x2013;" horiz-adv-x="504" 
d="M46 211v83h412v-83h-412z" />
    <glyph glyph-name="emdash" unicode="&#x2014;" horiz-adv-x="704" 
d="M46 211v83h612v-83h-612z" />
    <glyph glyph-name="uni2015" unicode="&#x2015;" horiz-adv-x="1004" 
d="M46 211v83h912v-83h-912z" />
    <glyph glyph-name="uni2016" unicode="&#x2016;" horiz-adv-x="382" 
d="M53 -230v960h96v-960h-96zM232 -230v960h97v-960h-97z" />
    <glyph glyph-name="quoteleft" unicode="&#x2018;" horiz-adv-x="201" 
d="M122 730l40 -204h-63l-65 204h88z" />
    <glyph glyph-name="quoteright" unicode="&#x2019;" horiz-adv-x="201" 
d="M98 526h-61l39 204h89z" />
    <glyph glyph-name="quotesinglbase" unicode="&#x201a;" horiz-adv-x="201" 
d="M90 -117h-62l39 204h89z" />
    <glyph glyph-name="quotereversed" unicode="&#x201b;" horiz-adv-x="201" 
d="M98 526h-61l39 204h89z" />
    <glyph glyph-name="quotedblleft" unicode="&#x201c;" horiz-adv-x="333" 
d="M124 730l39 -204h-61l-65 204h87zM256 730l40 -204h-62l-64 204h86z" />
    <glyph glyph-name="quotedblright" unicode="&#x201d;" horiz-adv-x="333" 
d="M98 526h-61l39 204h89zM232 526h-62l39 204h89z" />
    <glyph glyph-name="quotedblbase" unicode="&#x201e;" horiz-adv-x="334" 
d="M91 -117h-61l39 204h89zM225 -117h-63l40 204h89z" />
    <glyph glyph-name="uni201F" unicode="&#x201f;" horiz-adv-x="333" 
d="M98 526h-61l39 204h89zM232 526h-62l39 204h89z" />
    <glyph glyph-name="dagger" unicode="&#x2020;" horiz-adv-x="558" 
d="M53 414v86h177v230h97v-230h179v-86h-179v-414h-97v414h-177z" />
    <glyph glyph-name="daggerdbl" unicode="&#x2021;" horiz-adv-x="558" 
d="M53 452v85h177v193h97v-193h179v-85h-179v-165h179v-85h-179v-202h-97v202h-177v85h177v165h-177z" />
    <glyph glyph-name="bullet" unicode="&#x2022;" horiz-adv-x="353" 
d="M177 167q-35 0 -60.5 25.5t-25.5 60.5t25.5 60t60.5 25t60 -25t25 -60t-25 -60.5t-60 -25.5z" />
    <glyph glyph-name="ellipsis" unicode="&#x2026;" horiz-adv-x="521" 
d="M32 54q0 28 17 45t46 17q30 0 47 -17t17 -45q0 -29 -17 -46t-47 -17t-46.5 17t-16.5 46zM364 54q0 28 17 45t46 17q30 0 47 -17t17 -45q0 -29 -17 -46t-47 -17t-46.5 17t-16.5 46zM198 54q0 28 17 45t46 17q30 0 47 -17t17 -45q0 -29 -17 -46t-47 -17t-46.5 17t-16.5 46z
" />
    <glyph glyph-name="perthousand" unicode="&#x2030;" horiz-adv-x="1240" 
d="M52 0l627 730h122l-627 -730h-122zM630 -11q-72 0 -122 50.5t-50 122.5q0 71 50 121.5t122 50.5q71 0 121.5 -50.5t50.5 -121.5q0 -72 -50.5 -122.5t-121.5 -50.5zM630 70q37 0 63 27t26 65t-26 64.5t-63 26.5q-38 0 -64 -26.5t-26 -64.5t26 -65t64 -27zM223 395
q-71 0 -121.5 50.5t-50.5 122.5t50.5 122t121.5 50t121.5 -50t50.5 -122t-50.5 -122.5t-121.5 -50.5zM223 476q37 0 63 27t26 65t-26 64.5t-63 26.5t-63.5 -26.5t-26.5 -64.5t26.5 -65t63.5 -27zM1018 -11q-72 0 -122.5 50.5t-50.5 122.5q0 71 50.5 121.5t122.5 50.5
t122.5 -50.5t50.5 -121.5q0 -72 -50.5 -122.5t-122.5 -50.5zM1018 70q37 0 63.5 27t26.5 65t-26.5 64.5t-63.5 26.5t-63.5 -26.5t-26.5 -64.5t26.5 -65t63.5 -27z" />
    <glyph glyph-name="minute" unicode="&#x2032;" horiz-adv-x="201" 
d="M98 526h-61l39 204h89z" />
    <glyph glyph-name="second" unicode="&#x2033;" horiz-adv-x="333" 
d="M98 526h-61l39 204h89zM232 526h-62l39 204h89z" />
    <glyph glyph-name="uni2034" unicode="&#x2034;" horiz-adv-x="433" 
d="M105 500h-29q-7 21 -16 70t-9 76v84h79v-84q0 -27 -9 -76t-16 -70zM231 500h-29q-7 21 -16 70t-9 76v84h80v-84q0 -26 -9.5 -75.5t-16.5 -70.5zM357 500h-28q-7 21 -16.5 70.5t-9.5 75.5v84h80v-84q0 -26 -9.5 -75.5t-16.5 -70.5z" />
    <glyph glyph-name="guilsinglleft" unicode="&#x2039;" horiz-adv-x="284" 
d="M222 103l-159 119v61l159 119v-75l-102 -75l102 -74v-75z" />
    <glyph glyph-name="guilsinglright" unicode="&#x203a;" horiz-adv-x="284" 
d="M63 104v74l103 74l-103 76v75l159 -119v-61z" />
    <glyph glyph-name="fraction" unicode="&#x2044;" horiz-adv-x="679" 
d="M21 0l527 730h112l-527 -730h-112z" />
    <glyph glyph-name="uni2070" unicode="&#x2070;" horiz-adv-x="475" 
d="M237 302q-90 0 -152.5 63.5t-62.5 153.5t62.5 153.5t152.5 63.5q91 0 154 -63.5t63 -153.5t-63 -153.5t-154 -63.5zM237 384q57 0 95.5 39t38.5 96t-38.5 96.5t-95.5 39.5q-56 0 -93.5 -39.5t-37.5 -96.5t37.5 -96t93.5 -39z" />
    <glyph glyph-name="uni2074" unicode="&#x2074;" horiz-adv-x="372" 
d="M206 308v92h-180v75l178 255h82v-257h61v-73h-61v-92h-80zM113 473h93v133z" />
    <glyph glyph-name="uni2075" unicode="&#x2075;" horiz-adv-x="336" 
d="M167 302q-51 0 -89 21.5t-58 57.5l78 44q22 -45 69 -45q28 0 46.5 18t18.5 47t-19 47.5t-47 18.5q-46 0 -66 -41l-75 30l31 230h235v-77h-170l-12 -85q28 18 67 18q60 0 99.5 -37t39.5 -104q0 -64 -41.5 -103.5t-106.5 -39.5z" />
    <glyph glyph-name="uni2076" unicode="&#x2076;" horiz-adv-x="355" 
d="M177 302q-68 0 -112 43t-44 107q0 56 36 112l107 166h96l-86 -132q14 2 18 2q59 0 100 -42t41 -106t-44 -107t-112 -43zM176 379q31 0 53 21.5t22 53.5q0 31 -22 52t-53 21t-52 -21t-21 -53q0 -31 21 -52.5t52 -21.5z" />
    <glyph glyph-name="uni2077" unicode="&#x2077;" horiz-adv-x="319" 
d="M51 308l157 344h-183v78h269v-72l-153 -350h-90z" />
    <glyph glyph-name="uni2078" unicode="&#x2078;" horiz-adv-x="335" 
d="M167 302q-62 0 -101 37.5t-39 95.5q0 61 49 97q-35 32 -35 83q0 54 34.5 87.5t91.5 33.5t92.5 -33.5t35.5 -87.5q0 -49 -35 -81q47 -39 47 -99q0 -58 -38.5 -95.5t-101.5 -37.5zM167 375q27 0 44 17.5t17 42.5t-17 42.5t-44 17.5t-43.5 -17.5t-16.5 -42.5t16.5 -42.5
t43.5 -17.5zM167 566q23 0 36 13.5t13 35.5q0 21 -13 35t-36 14q-22 0 -35 -14t-13 -35q0 -22 12.5 -35.5t35.5 -13.5z" />
    <glyph glyph-name="uni2079" unicode="&#x2079;" horiz-adv-x="353" 
d="M93 308l86 133q-7 -1 -17 -1q-59 0 -100 41t-41 106q0 64 44 106.5t111 42.5q68 0 112 -43t44 -106q0 -57 -35 -111l-107 -168h-97zM177 512q31 0 52 22t21 53q0 30 -21 51.5t-52 21.5q-30 0 -51.5 -21.5t-21.5 -52.5t21.5 -52.5t51.5 -21.5z" />
    <glyph glyph-name="uni207A" unicode="&#x207a;" horiz-adv-x="268" 
d="M27 485v68h74v72h67v-72h72v-68h-72v-73h-67v73h-74z" />
    <glyph glyph-name="uni207B" unicode="&#x207b;" horiz-adv-x="268" 
d="M27 485v69h213v-69h-213z" />
    <glyph glyph-name="uni207C" unicode="&#x207c;" horiz-adv-x="265" 
d="M27 534v66h213v-66h-213zM27 435v67h213v-67h-213z" />
    <glyph glyph-name="uni207D" unicode="&#x207d;" horiz-adv-x="269" 
d="M232 300l-51 -69q-153 111 -153 291q0 176 152 290l51 -67q-119 -84 -119 -223q0 -135 120 -222z" />
    <glyph glyph-name="uni207E" unicode="&#x207e;" horiz-adv-x="269" 
d="M89 231l-52 69q120 85 120 222q0 139 -119 223l52 67q152 -115 152 -290q0 -177 -153 -291z" />
    <glyph glyph-name="uni2080" unicode="&#x2080;" horiz-adv-x="475" 
d="M237 -6q-90 0 -152.5 63.5t-62.5 153.5t62.5 153.5t152.5 63.5q91 0 154 -63.5t63 -153.5t-63 -153.5t-154 -63.5zM237 76q57 0 95.5 39t38.5 96t-38.5 96.5t-95.5 39.5q-56 0 -93.5 -39.5t-37.5 -96.5t37.5 -96t93.5 -39z" />
    <glyph glyph-name="uni2081" unicode="&#x2081;" horiz-adv-x="294" 
d="M26 0v78h83v222q-21 -31 -67 -31h-6v83h3q38 0 55 21t17 49h81v-344h80v-78h-246z" />
    <glyph glyph-name="uni2082" unicode="&#x2082;" horiz-adv-x="336" 
d="M27 0v69q0 36 19.5 67t39.5 47t56 39q30 18 43 27t26.5 25.5t13.5 32.5q0 21 -15.5 35t-42.5 14q-49 0 -76 -59l-71 37q45 94 147 94q65 0 104.5 -34.5t39.5 -86.5q0 -34 -20 -64t-37.5 -43t-55.5 -38q-60 -38 -74 -56q-10 -13 -10 -27h196v-79h-283z" />
    <glyph glyph-name="uni2083" unicode="&#x2083;" horiz-adv-x="324" 
d="M156 -6q-92 0 -142 57l67 55q29 -36 72 -36q28 0 46 15t18 40q0 26 -20.5 40t-53.5 14h-43v75h42q32 0 49.5 14t17.5 38q0 23 -16 36.5t-44 13.5q-42 0 -66 -37l-64 46q45 63 132 63q65 0 103.5 -32.5t38.5 -86.5q0 -55 -47 -89q57 -33 57 -97q0 -56 -40 -92.5
t-107 -36.5z" />
    <glyph glyph-name="uni2084" unicode="&#x2084;" horiz-adv-x="372" 
d="M206 0v92h-180v75l178 255h82v-257h61v-73h-61v-92h-80zM113 165h93v133z" />
    <glyph glyph-name="uni2085" unicode="&#x2085;" horiz-adv-x="336" 
d="M167 -6q-51 0 -89 21.5t-58 57.5l78 44q22 -45 69 -45q28 0 46.5 18t18.5 47t-19 47.5t-47 18.5q-46 0 -66 -41l-75 30l31 230h235v-77h-170l-12 -85q28 18 67 18q60 0 99.5 -37t39.5 -104q0 -64 -41.5 -103.5t-106.5 -39.5z" />
    <glyph glyph-name="uni2086" unicode="&#x2086;" horiz-adv-x="356" 
d="M178 -6q-68 0 -112 43t-44 107q0 56 36 112l107 166h96l-86 -132q14 2 18 2q59 0 100 -42t41 -106t-44 -107t-112 -43zM177 71q31 0 53 21.5t22 53.5q0 31 -22 52t-53 21t-52 -21t-21 -53q0 -31 21 -52.5t52 -21.5z" />
    <glyph glyph-name="uni2087" unicode="&#x2087;" horiz-adv-x="319" 
d="M51 0l157 344h-183v78h269v-72l-153 -350h-90z" />
    <glyph glyph-name="uni2088" unicode="&#x2088;" horiz-adv-x="335" 
d="M167 -6q-62 0 -101 37.5t-39 95.5q0 61 49 97q-35 32 -35 83q0 54 34.5 87.5t91.5 33.5t92.5 -33.5t35.5 -87.5q0 -49 -35 -81q47 -39 47 -99q0 -58 -38.5 -95.5t-101.5 -37.5zM167 67q27 0 44 17.5t17 42.5t-17 42.5t-44 17.5t-43.5 -17.5t-16.5 -42.5t16.5 -42.5
t43.5 -17.5zM167 258q23 0 36 13.5t13 35.5q0 21 -13 35t-36 14q-22 0 -35 -14t-13 -35q0 -22 12.5 -35.5t35.5 -13.5z" />
    <glyph glyph-name="uni2089" unicode="&#x2089;" horiz-adv-x="353" 
d="M93 0l86 133q-7 -1 -17 -1q-59 0 -100 41t-41 106q0 64 44 106.5t111 42.5q68 0 112 -43t44 -106q0 -57 -35 -111l-107 -168h-97zM177 204q31 0 52 22t21 53q0 30 -21 51.5t-52 21.5q-30 0 -51.5 -21.5t-21.5 -52.5t21.5 -52.5t51.5 -21.5z" />
    <glyph glyph-name="uni208A" unicode="&#x208a;" horiz-adv-x="268" 
d="M27 177v68h74v72h67v-72h72v-68h-72v-73h-67v73h-74z" />
    <glyph glyph-name="uni208B" unicode="&#x208b;" horiz-adv-x="268" 
d="M27 177v69h213v-69h-213z" />
    <glyph glyph-name="uni208C" unicode="&#x208c;" horiz-adv-x="265" 
d="M27 226v66h213v-66h-213zM27 127v67h213v-67h-213z" />
    <glyph glyph-name="uni208D" unicode="&#x208d;" horiz-adv-x="269" 
d="M232 -8l-51 -69q-153 111 -153 291q0 176 152 290l51 -67q-119 -84 -119 -223q0 -135 120 -222z" />
    <glyph glyph-name="uni208E" unicode="&#x208e;" horiz-adv-x="269" 
d="M89 -77l-52 69q120 85 120 222q0 139 -119 223l52 67q152 -115 152 -290q0 -177 -153 -291z" />
    <glyph glyph-name="colonmonetary" unicode="&#x20a1;" horiz-adv-x="768" 
d="M173 -120h-64l76 186q-69 52 -107.5 129.5t-38.5 169.5q0 159 109 267t266 108q24 0 46 -3l42 103h66l-48 -116q31 -8 56 -21l56 137h66l-69 -168q68 -48 107 -116l-83 -52q-25 43 -62 77l-203 -495q8 -1 25 -1q84 0 146 39.5t97 108.5l87 -48q-50 -89 -135.5 -142
t-193.5 -53q-29 0 -64 5l-47 -115h-65l53 129q-32 12 -55 24zM137 365q0 -125 86 -205l200 487h-9q-118 0 -197.5 -82t-79.5 -200zM485 638l-213 -516q25 -14 55 -24l213 518q-24 13 -55 22z" />
    <glyph glyph-name="uni20A2" unicode="&#x20a2;" horiz-adv-x="768" 
d="M414 -10q-159 0 -267 109.5t-108 265.5q0 159 109 267t266 108q102 0 187.5 -50t134.5 -134l-83 -52q-37 67 -98.5 105t-140.5 38q-118 0 -197.5 -82t-79.5 -200q0 -99 59 -175t153 -98v328h95v-84q43 84 144 84h49v-92h-61q-69 0 -100 -38t-31 -120v-84q74 8 129 48
t86 104l87 -46q-50 -93 -137 -147.5t-196 -54.5z" />
    <glyph glyph-name="franc" unicode="&#x20a3;" horiz-adv-x="517" 
d="M53 0v730h413v-92h-317v-150h317v-86h-317v-84h317v-85h-317v-233h-96z" />
    <glyph glyph-name="lira" unicode="&#x20a4;" horiz-adv-x="694" 
d="M78 338v80h103q-25 58 -25 118q0 90 60.5 147t157.5 57q152 0 216 -118l-86 -46q-38 80 -130 80q-56 0 -90 -33.5t-34 -85.5q0 -58 27 -119h203v-80h-166q42 -88 42 -159q0 -37 -10 -64q61 -47 112 -47q49 0 70 25.5t21 86.5v30h98v-42q0 -91 -40 -134.5t-131 -43.5
q-81 0 -163 63q-53 -64 -134 -64q-65 0 -99 28.5t-34 77.5q0 46 33 76t87 31q56 0 121 -43q0 2 0.5 7.5t0.5 9.5q0 28 -11.5 60.5t-19.5 46.5l-33 55h-146zM179 55q51 0 82 39q-50 40 -90 40q-47 0 -47 -39q0 -18 14.5 -29t40.5 -11z" />
    <glyph glyph-name="uni20A6" unicode="&#x20a6;" horiz-adv-x="816" 
d="M33 398v60h84v272h103l178 -272h205v272h97v-272h84v-60h-84v-62h84v-60h-84v-276h-98l-181 276h-208v-276h-96v276h-84v60h84v62h-84zM213 398v-62h168l-40 62h-128zM437 398l41 -62h125v62h-166zM301 458l-88 134v-134h88zM517 276l86 -130v130h-86z" />
    <glyph glyph-name="peseta" unicode="&#x20a7;" horiz-adv-x="1324" 
d="M1051 0h-228q-114 0 -155.5 43t-41.5 158v213h-80q-21 -86 -91 -139.5t-167 -53.5h-139v-221h-96v730h235q109 0 182 -65t81 -165h75v118l96 53v-171h114v-86h-114v-212q0 -72 21 -92t93 -20h219q51 0 77 17.5t26 48.5q0 21 -19 34.5t-40.5 19t-61.5 11.5q-32 6 -50 10.5
t-45.5 15.5t-42 24.5t-26 36.5t-11.5 53q0 64 51.5 107t135.5 43q133 0 199 -92l-79 -46q-43 58 -118 58q-44 0 -68.5 -18.5t-24.5 -46.5q0 -19 17.5 -32t35.5 -17.5t56 -12.5l15 -3q38 -7 62.5 -15t53 -23.5t43 -42t14.5 -63.5q0 -68 -49 -112.5t-155 -44.5zM282 641h-133
v-329h133q78 0 125.5 47t47.5 117q0 71 -47 118t-126 47z" />
    <glyph glyph-name="uni20A8" unicode="&#x20a8;" horiz-adv-x="986" 
d="M730 -7q-166 0 -289.5 83.5t-230.5 266.5h59q76 0 121.5 46t45.5 105q0 67 -44 106.5t-123 39.5h-120v-640h-96v730h225q113 0 184 -67.5t71 -168.5q0 -77 -43 -137.5t-122 -82.5q70 -99 158 -146.5t206 -47.5q60 0 90 20t30 52q0 36 -64 54q-15 4 -60 13q-37 7 -62 15
t-53.5 23.5t-43 41.5t-14.5 62q0 65 51.5 107.5t136.5 42.5q133 0 198 -92l-78 -46q-43 58 -119 58q-44 0 -68.5 -18.5t-24.5 -46.5q0 -36 64 -54q15 -4 60 -13q37 -7 62.5 -15.5t53.5 -24t42.5 -42.5t14.5 -64q0 -67 -52.5 -113.5t-165.5 -46.5z" />
    <glyph glyph-name="uni20A9" unicode="&#x20a9;" horiz-adv-x="1089" 
d="M30 398v60h96l-79 272h102l76 -272h189l87 272h90l87 -272h191l78 272h98l-81 -272h95v-60h-113l-18 -62h131v-60h-149l-82 -276h-97l-87 276h-198l-88 -276h-99l-80 276h-149v60h131l-18 62h-113zM485 398l-20 -62h160l-20 62h-120zM697 398l20 -62h116l18 62h-154z
M242 398l18 -62h115l20 62h-153zM736 276l42 -132l38 132h-80zM546 585l-41 -127h81zM277 276l37 -131l42 131h-79z" />
    <glyph glyph-name="uni20AA" unicode="&#x20aa;" horiz-adv-x="741" 
d="M232 0v563q59 0 78 -18.5t19 -72.5v-382h103q90 0 125 38.5t35 132.5v469h96v-469q0 -135 -61 -198t-192 -63h-203zM53 0v730h201q132 0 193.5 -63t61.5 -198v-216q1 -52 -19.5 -72t-76.5 -20v308q0 94 -35.5 132.5t-127.5 38.5h-101v-640h-96z" />
    <glyph glyph-name="Euro" unicode="&#x20ac;" horiz-adv-x="588" 
d="M30 433v77h75q4 101 69.5 165.5t168.5 64.5q113 0 179 -76l-70 -63q-39 47 -109 47q-64 0 -100.5 -37.5t-40.5 -100.5h252l-14 -77h-238v-136h217l-12 -76h-205q2 -65 37 -101.5t102 -36.5q75 0 113 54l81 -59q-63 -88 -193 -88q-112 0 -174.5 62.5t-62.5 168.5h-75v76
h75v136h-75z" />
    <glyph glyph-name="uni20AE" unicode="&#x20ae;" horiz-adv-x="609" 
d="M130 328v63l127 52v196h-212v91h520v-91h-212v-157l125 52v-63l-125 -52v-75l125 52v-64l-125 -51v-281h-96v242l-127 -52v63l127 52v75z" />
    <glyph glyph-name="uni20B1" unicode="&#x20b1;" horiz-adv-x="717" 
d="M34 507v60h80v163h234q90 0 156 -44.5t94 -118.5h88v-60h-74q2 -22 2 -31t-2 -31h74v-60h-88q-28 -75 -94 -119.5t-156 -44.5h-138v-221h-96v385h-80v60h80v62h-80zM516 476q0 16 -3 31h-303v-62h303q3 15 3 31zM342 641h-132v-74h280q-48 74 -148 74zM210 312h132
q101 0 148 73h-280v-73z" />
    <glyph glyph-name="uni2117" unicode="&#x2117;" horiz-adv-x="826" 
d="M414 -81q-155 0 -265 110t-110 266q0 155 110 265t265 110t264.5 -110t109.5 -265q0 -156 -109.5 -266t-264.5 -110zM414 -1q122 0 206.5 86.5t84.5 209.5q0 122 -84.5 208.5t-206.5 86.5q-123 0 -207 -86t-84 -209t83.5 -209.5t207.5 -86.5zM280 103v384h170
q62 0 102 -40t40 -99q0 -60 -39 -102t-101 -42h-87v-101h-85zM438 415h-73v-138h73q30 0 49.5 20.5t19.5 50.5q0 28 -19.5 47.5t-49.5 19.5z" />
    <glyph glyph-name="uni2120" unicode="&#x2120;" horiz-adv-x="642" 
d="M276 440v290h65l95 -124l99 124h60v-290h-70v178l-90 -109l-90 109v-178h-69zM133 433q-74 0 -111 52l61 42q19 -32 50 -32q15 0 24.5 8.5t9.5 22.5t-21 23.5t-46 16t-46 28t-21 56.5q0 36 28 59t71 23q59 0 98 -46l-57 -36q-17 24 -42 24q-14 0 -22.5 -7t-8.5 -17
q0 -12 21 -21t46.5 -16t46.5 -28.5t21 -55.5q0 -43 -27.5 -69.5t-74.5 -26.5z" />
    <glyph glyph-name="trademark" unicode="&#x2122;" horiz-adv-x="669" 
d="M303 440v290h65l95 -124l99 124h60v-290h-69v179l-91 -110l-90 109v-178h-69zM119 440v226h-85v64h237v-64h-83v-226h-69z" />
    <glyph glyph-name="onethird" unicode="&#x2153;" horiz-adv-x="850" 
d="M99 0l527 730h112l-527 -730h-112zM681 -6q-92 0 -142 57l67 55q28 -36 72 -36q28 0 46 15t18 40q0 26 -20.5 40t-53.5 14h-43v75h42q32 0 49.5 14t17.5 38q0 23 -16 36.5t-44 13.5q-42 0 -66 -37l-64 46q45 63 132 63q65 0 103.5 -32.5t38.5 -86.5q0 -55 -47 -89
q57 -33 57 -97q0 -56 -40 -92.5t-107 -36.5zM26 308v78h83v222q-21 -31 -67 -31h-6v83h3q38 0 55 21t17 49h81v-344h80v-78h-246z" />
    <glyph glyph-name="twothirds" unicode="&#x2154;" horiz-adv-x="865" 
d="M116 0l527 730h112l-527 -730h-112zM27 308v69q0 36 19.5 67t39.5 47t56 39q30 18 43 27t26.5 25.5t13.5 32.5q0 21 -15.5 35t-42.5 14q-49 0 -76 -59l-71 37q45 94 147 94q65 0 104.5 -34.5t39.5 -86.5q0 -34 -20 -64t-37.5 -43t-55.5 -38q-60 -38 -74 -56
q-10 -13 -10 -27h196v-79h-283zM696 -6q-92 0 -142 57l67 55q29 -36 72 -36q28 0 46 15t18 40q0 26 -20.5 40t-53.5 14h-43v75h42q32 0 49.5 14t17.5 38q0 23 -16 36.5t-44 13.5q-42 0 -66 -37l-64 46q45 63 132 63q65 0 103.5 -32.5t38.5 -86.5q0 -55 -47 -89
q57 -33 57 -97q0 -56 -40 -92.5t-107 -36.5z" />
    <glyph glyph-name="uni2155" unicode="&#x2155;" horiz-adv-x="846" 
d="M99 0l527 730h112l-527 -730h-112zM677 -6q-51 0 -89 21.5t-58 57.5l78 44q22 -45 69 -45q28 0 46.5 18t18.5 47t-19 47.5t-47 18.5q-46 0 -66 -41l-75 30l31 230h235v-77h-170l-12 -85q28 18 67 18q60 0 99.5 -37t39.5 -104q0 -64 -41.5 -103.5t-106.5 -39.5zM26 308v78
h83v222q-21 -31 -67 -31h-6v83h3q38 0 55 21t17 49h81v-344h80v-78h-246z" />
    <glyph glyph-name="uni2156" unicode="&#x2156;" horiz-adv-x="861" 
d="M115 0l527 730h112l-527 -730h-112zM692 -6q-51 0 -89 21.5t-58 57.5l78 44q22 -45 69 -45q28 0 46.5 18t18.5 47t-19 47.5t-47 18.5q-45 0 -66 -41l-75 30l31 230h235v-77h-170l-12 -85q28 18 67 18q60 0 99.5 -37t39.5 -104q0 -64 -41.5 -103.5t-106.5 -39.5zM27 308
v69q0 36 19.5 67t39.5 47t56 39q30 18 43 27t26.5 25.5t13.5 32.5q0 21 -15.5 35t-42.5 14q-49 0 -76 -59l-71 37q45 94 147 94q65 0 104.5 -34.5t39.5 -86.5q0 -34 -20 -64t-37.5 -43t-55.5 -38q-60 -38 -74 -56q-10 -13 -10 -27h196v-79h-283z" />
    <glyph glyph-name="uni2157" unicode="&#x2157;" horiz-adv-x="855" 
d="M108 0l527 730h112l-527 -730h-112zM686 -6q-51 0 -89 21.5t-58 57.5l78 44q22 -45 69 -45q28 0 46.5 18t18.5 47t-19 47.5t-47 18.5q-45 0 -66 -41l-75 30l31 230h235v-77h-170l-12 -85q28 18 67 18q60 0 99.5 -37t39.5 -104q0 -64 -41.5 -103.5t-106.5 -39.5zM156 302
q-92 0 -142 57l67 55q29 -36 72 -36q28 0 46 15t18 40q0 26 -20.5 40t-53.5 14h-43v75h42q32 0 49.5 14t17.5 38q0 23 -16 36.5t-44 13.5q-42 0 -66 -37l-64 46q45 63 132 63q65 0 103.5 -32.5t38.5 -86.5q0 -55 -47 -89q57 -33 57 -97q0 -56 -40 -92.5t-107 -36.5z" />
    <glyph glyph-name="uni2158" unicode="&#x2158;" horiz-adv-x="849" 
d="M102 0l527 730h112l-527 -730h-112zM206 308v92h-180v75l178 255h82v-257h61v-73h-61v-92h-80zM680 -6q-51 0 -89 21.5t-58 57.5l78 44q22 -45 69 -45q28 0 46.5 18t18.5 47t-19 47.5t-47 18.5q-45 0 -66 -41l-75 30l31 230h235v-77h-170l-12 -85q28 18 67 18
q60 0 99.5 -37t39.5 -104q0 -64 -41.5 -103.5t-106.5 -39.5zM113 473h93v133z" />
    <glyph glyph-name="uni2159" unicode="&#x2159;" horiz-adv-x="827" 
d="M649 -6q-68 0 -112 43t-44 107q0 56 36 112l107 166h96l-86 -132q14 2 18 2q59 0 100 -42t41 -106t-44 -107t-112 -43zM99 0l527 730h112l-527 -730h-112zM26 308v78h83v222q-21 -31 -67 -31h-6v83h3q38 0 55 21t17 49h81v-344h80v-78h-246zM648 71q31 0 53 21.5t22 53.5
q0 31 -22 52t-53 21t-52 -21t-21 -53q0 -31 21 -52.5t52 -21.5z" />
    <glyph glyph-name="uni215A" unicode="&#x215a;" horiz-adv-x="834" 
d="M656 -6q-68 0 -112 43t-44 107q0 56 36 112l107 166h96l-86 -132q14 2 18 2q59 0 100 -42t41 -106t-44 -107t-112 -43zM106 0l527 730h112l-527 -730h-112zM167 302q-51 0 -89 21.5t-58 57.5l78 44q22 -45 69 -45q28 0 46.5 18t18.5 47t-19 47.5t-47 18.5q-46 0 -66 -41
l-75 30l31 230h235v-77h-170l-12 -85q28 18 67 18q60 0 99.5 -37t39.5 -104q0 -64 -41.5 -103.5t-106.5 -39.5zM655 71q31 0 53 21.5t22 53.5q0 31 -22 52t-53 21t-52 -21t-21 -53q0 -31 21 -52.5t52 -21.5z" />
    <glyph glyph-name="oneeighth" unicode="&#x215b;" horiz-adv-x="848" 
d="M680 -6q-62 0 -101 37.5t-39 95.5q0 61 49 97q-35 32 -35 83q0 54 34.5 87.5t91.5 33.5t92.5 -33.5t35.5 -87.5q0 -49 -35 -81q47 -39 47 -99q0 -58 -38.5 -95.5t-101.5 -37.5zM99 0l527 730h112l-527 -730h-112zM26 308v78h83v222q-21 -31 -67 -31h-6v83h3q38 0 55 21
t17 49h81v-344h80v-78h-246zM680 67q27 0 44 17.5t17 42.5t-17 42.5t-44 17.5t-43.5 -17.5t-16.5 -42.5t16.5 -42.5t43.5 -17.5zM680 258q23 0 36 13.5t13 35.5q0 21 -13 35t-36 14q-22 0 -35 -14t-13 -35q0 -22 12.5 -35.5t35.5 -13.5z" />
    <glyph glyph-name="threeeighths" unicode="&#x215c;" horiz-adv-x="858" 
d="M690 -6q-62 0 -101 37.5t-39 95.5q0 61 49 97q-35 32 -35 83q0 54 34.5 87.5t91.5 33.5t92.5 -33.5t35.5 -87.5q0 -49 -35 -81q47 -39 47 -99q0 -58 -38.5 -95.5t-101.5 -37.5zM108 0l527 730h112l-527 -730h-112zM156 302q-92 0 -142 57l67 55q29 -36 72 -36q28 0 46 15
t18 40q0 26 -20.5 40t-53.5 14h-43v75h42q32 0 49.5 14t17.5 38q0 23 -16 36.5t-44 13.5q-42 0 -66 -37l-64 46q45 63 132 63q65 0 103.5 -32.5t38.5 -86.5q0 -55 -47 -89q57 -33 57 -97q0 -56 -40 -92.5t-107 -36.5zM690 67q27 0 44 17.5t17 42.5t-17 42.5t-44 17.5
t-43.5 -17.5t-16.5 -42.5t16.5 -42.5t43.5 -17.5zM690 258q23 0 36 13.5t13 35.5q0 21 -13 35t-36 14q-22 0 -35 -14t-13 -35q0 -22 12.5 -35.5t35.5 -13.5z" />
    <glyph glyph-name="fiveeighths" unicode="&#x215d;" horiz-adv-x="856" 
d="M688 -6q-62 0 -101 37.5t-39 95.5q0 61 49 97q-35 32 -35 83q0 54 34.5 87.5t91.5 33.5t92.5 -33.5t35.5 -87.5q0 -49 -35 -81q47 -39 47 -99q0 -58 -38.5 -95.5t-101.5 -37.5zM106 0l527 730h112l-527 -730h-112zM167 302q-51 0 -89 21.5t-58 57.5l78 44q22 -45 69 -45
q28 0 46.5 18t18.5 47t-19 47.5t-47 18.5q-46 0 -66 -41l-75 30l31 230h235v-77h-170l-12 -85q28 18 67 18q60 0 99.5 -37t39.5 -104q0 -64 -41.5 -103.5t-106.5 -39.5zM688 67q27 0 44 17.5t17 42.5t-17 42.5t-44 17.5t-43.5 -17.5t-16.5 -42.5t16.5 -42.5t43.5 -17.5z
M688 258q23 0 36 13.5t13 35.5q0 21 -13 35t-36 14q-22 0 -35 -14t-13 -35q0 -22 12.5 -35.5t35.5 -13.5z" />
    <glyph glyph-name="seveneighths" unicode="&#x215e;" horiz-adv-x="797" 
d="M628 -6q-62 0 -101 37.5t-39 95.5q0 61 49 97q-35 32 -35 83q0 54 34.5 87.5t91.5 33.5t92.5 -33.5t35.5 -87.5q0 -49 -35 -81q47 -39 47 -99q0 -58 -38.5 -95.5t-101.5 -37.5zM47 0l527 730h112l-527 -730h-112zM56 308l157 344h-183v78h269v-72l-153 -350h-90zM628 67
q27 0 44 17.5t17 42.5t-17 42.5t-44 17.5t-43.5 -17.5t-16.5 -42.5t16.5 -42.5t43.5 -17.5zM628 258q23 0 36 13.5t13 35.5q0 21 -13 35t-36 14q-22 0 -35 -14t-13 -35q0 -22 12.5 -35.5t35.5 -13.5z" />
    <glyph glyph-name="uni215F" unicode="&#x215f;" horiz-adv-x="757" 
d="M99 0l527 730h112l-527 -730h-112zM26 308v78h83v222q-21 -31 -67 -31h-6v83h3q38 0 55 21t17 49h81v-344h80v-78h-246z" />
    <glyph glyph-name="arrowleft" unicode="&#x2190;" horiz-adv-x="896" 
d="M358 153l-79 -55q-34 72 -94 138.5t-126 104.5v48q65 42 124.5 112t86.5 134l85 -50q-23 -48 -63 -94t-83 -78h608v-93h-608q42 -28 82.5 -73.5t66.5 -93.5z" />
    <glyph glyph-name="arrowup" unicode="&#x2191;" horiz-adv-x="896" 
d="M392 0v596q-78 -100 -172 -144l-49 84q64 26 135 86t110 125h47q39 -65 109.5 -124.5t134.5 -86.5l-49 -84q-48 22 -93.5 61.5t-78.5 82.5v-596h-94z" />
    <glyph glyph-name="arrowright" unicode="&#x2192;" horiz-adv-x="896" 
d="M598 98l-79 54q26 49 66.5 94.5t82.5 73.5h-608v93h607q-98 71 -144 172l84 50q27 -65 87 -136t124 -110v-48q-65 -38 -125 -104.5t-95 -138.5z" />
    <glyph glyph-name="arrowdown" unicode="&#x2193;" horiz-adv-x="896" 
d="M462 -17h-47q-39 64 -110 123.5t-134 87.5l48 85q96 -46 171 -143v594h95v-598q73 100 172 147l49 -85q-63 -28 -134 -87.5t-110 -123.5z" />
    <glyph glyph-name="uni2196" unicode="&#x2196;" horiz-adv-x="896" 
d="M677 66l-431 430q19 -118 -18 -225l-94 25q26 61 33.5 153.5t-9.5 168.5l32 33q78 -19 168.5 -11t153.5 35l25 -94q-98 -37 -226 -20l432 -430z" />
    <glyph glyph-name="uni2197" unicode="&#x2197;" horiz-adv-x="896" 
d="M136 131l429 430q-131 -17 -224 19l25 94q64 -27 154 -34t168 10l33 -33q-17 -78 -9.5 -167t32.5 -155l-94 -24q-36 98 -19 223l-430 -429z" />
    <glyph glyph-name="uni2198" unicode="&#x2198;" horiz-adv-x="896" 
d="M732 131l-33 -34q-76 19 -167.5 11.5t-154.5 -34.5l-24 94q98 36 224 19l-430 430l66 66l429 -430q-17 127 20 225l93 -25q-25 -67 -32.5 -154.5t9.5 -167.5z" />
    <glyph glyph-name="uni2199" unicode="&#x2199;" horiz-adv-x="896" 
d="M538 157l-26 -94q-61 27 -154.5 34.5t-167.5 -10.5l-33 32q17 79 9.5 168t-32.5 155l94 25q37 -107 18 -226l431 431l66 -66l-429 -429q120 16 224 -20z" />
    <glyph glyph-name="partialdiff" unicode="&#x2202;" horiz-adv-x="589" 
d="M293 -8q-105 0 -179 72.5t-74 179.5q0 106 71 176.5t172 70.5q74 0 122 -38q-74 120 -297 277h145q295 -229 295 -483q0 -106 -74 -180.5t-181 -74.5zM294 82q66 0 113 48t47 114t-46.5 114t-112.5 48q-67 0 -113.5 -47t-46.5 -115t47.5 -115t111.5 -47z" />
    <glyph glyph-name="increment" unicode="&#x2206;" horiz-adv-x="897" 
d="M877 0h-857l429 742zM448 556l-265 -463h532z" />
    <glyph glyph-name="product" unicode="&#x220f;" horiz-adv-x="760" 
d="M41 637v93h680v-93h-129v-637h-96v637h-232v-637h-96v637h-127z" />
    <glyph glyph-name="summation" unicode="&#x2211;" horiz-adv-x="566" 
d="M37 0v102l246 275l-238 258v95h483v-92h-361l240 -262l-256 -283h377v-93h-491z" />
    <glyph glyph-name="minus" unicode="&#x2212;" 
d="M46 324v82h370v-82h-370z" />
    <glyph glyph-name="radical" unicode="&#x221a;" horiz-adv-x="786" 
d="M296 0l-158 410h-93v90h160l146 -391l287 621h104l-343 -730h-103z" />
    <glyph glyph-name="infinity" unicode="&#x221e;" horiz-adv-x="921" 
d="M252 215q-70 0 -120 50t-50 119q0 70 50 120t120 50q88 0 210 -112q60 55 107.5 83.5t100.5 28.5q70 0 120 -50t50 -120q0 -69 -50 -119t-120 -50q-52 0 -101 29.5t-107 82.5q-122 -112 -210 -112zM253 298q55 0 149 87q-91 84 -149 84q-34 0 -60 -25.5t-26 -59.5t26 -60
t60 -26zM670 299q35 0 60 25.5t25 60.5q0 34 -25.5 59.5t-59.5 25.5q-55 0 -148 -84q94 -87 148 -87z" />
    <glyph glyph-name="integral" unicode="&#x222b;" horiz-adv-x="355" 
d="M5 -204v88q73 0 92 19.5t19 91.5v536q0 115 42 157t157 42h8v-88q-73 0 -92 -19.5t-19 -92.5v-534q0 -116 -42 -158t-157 -42h-8z" />
    <glyph glyph-name="approxequal" unicode="&#x2248;" horiz-adv-x="454" 
d="M42 398v84q50 26 97 26q32 0 91.5 -19t85.5 -19q41 0 96 25v-84q-44 -25 -96 -25q-28 0 -90.5 19t-86.5 19q-43 0 -97 -26zM42 232v83q52 27 94 27q30 0 94 -18.5t88 -18.5q40 0 94 23v-83q-40 -23 -94 -23q-29 0 -93 18.5t-89 18.5q-38 0 -94 -27z" />
    <glyph glyph-name="notequal" unicode="&#x2260;" 
d="M356 555l-32 -68h92v-83h-131l-38 -82h169v-82h-208l-31 -67h-77l31 67h-85v82h123l38 82h-161v83h199l32 68h79z" />
    <glyph glyph-name="equivalence" unicode="&#x2261;" 
d="M46 322v82h370v-82h-370zM46 159v81h370v-81h-370zM46 486v82h370v-82h-370z" />
    <glyph glyph-name="lessequal" unicode="&#x2264;" 
d="M415 267l-370 139v83l370 137v-85l-269 -93l269 -96v-85zM45 145v82h370v-82h-370z" />
    <glyph glyph-name="greaterequal" unicode="&#x2265;" 
d="M45 267v85l268 96l-268 93v85l370 -137v-83zM45 145v82h370v-82h-370z" />
    <glyph glyph-name="uni22A0" unicode="&#x22a0;" horiz-adv-x="926" 
d="M100 0v730h726v-730h-726zM197 637v-544h532v544h-532zM324 163l-58 57l141 146l-142 148l57 56l141 -146l141 147l57 -56l-142 -149l141 -145l-57 -57l-140 144z" />
    <glyph glyph-name="house" unicode="&#x2302;" horiz-adv-x="874" 
d="M774 0h-674v427l337 323l337 -323v-427z" />
    <glyph glyph-name="filledbox" unicode="&#x25a0;" horiz-adv-x="926" 
d="M100 0v730h726v-730h-726z" />
    <glyph glyph-name="filledbox" unicode="&#xe740;" horiz-adv-x="926" 
d="M100 0v730h726v-730h-726z" />
    <glyph glyph-name="H22073" unicode="&#x25a1;" horiz-adv-x="926" 
d="M100 0v730h726v-730h-726zM197 637v-544h532v544h-532z" />
    <glyph glyph-name="H18543" unicode="&#x25aa;" horiz-adv-x="700" 
d="M100 0v500h500v-500h-500z" />
    <glyph glyph-name="H18551" unicode="&#x25ab;" horiz-adv-x="700" 
d="M100 0v500h500v-500h-500zM197 406v-312h307v312h-307z" />
    <glyph glyph-name="triagup" unicode="&#x25b2;" horiz-adv-x="897" 
d="M877 0h-857l429 742z" />
    <glyph glyph-name="triagrt" unicode="&#x25ba;" horiz-adv-x="897" 
d="M100 -57v857l742 -428z" />
    <glyph glyph-name="triagdn" unicode="&#x25bc;" horiz-adv-x="897" 
d="M20 730h857l-428 -742z" />
    <glyph glyph-name="triaglf" unicode="&#x25c4;" horiz-adv-x="897" 
d="M797 800v-857l-742 429z" />
    <glyph glyph-name="lozenge" unicode="&#x25ca;" horiz-adv-x="843" 
d="M415 -16l-382 382l380 380l382 -382zM157 367l259 -259l255 256l-259 258z" />
    <glyph glyph-name="circle" unicode="&#x25cb;" horiz-adv-x="927" 
d="M464 -10q-155 0 -264.5 110t-109.5 265t109.5 265t264.5 110t264.5 -110t109.5 -265t-109.5 -265t-264.5 -110zM464 84q116 0 196.5 82.5t80.5 198.5q0 117 -80.5 199t-196.5 82t-196.5 -82t-80.5 -199q0 -116 80.5 -198.5t196.5 -82.5z" />
    <glyph glyph-name="circle" unicode="&#x25ef;" horiz-adv-x="927" 
d="M464 -10q-155 0 -264.5 110t-109.5 265t109.5 265t264.5 110t264.5 -110t109.5 -265t-109.5 -265t-264.5 -110zM464 84q116 0 196.5 82.5t80.5 198.5q0 117 -80.5 199t-196.5 82t-196.5 -82t-80.5 -199q0 -116 80.5 -198.5t196.5 -82.5z" />
    <glyph glyph-name="uni25CE" unicode="&#x25ce;" horiz-adv-x="927" 
d="M753 279q-36 -119 -145.5 -179t-229.5 -24q-119 36 -179 145.5t-24 229.5q36 119 145.5 179t229.5 24q119 -36 179 -145.5t24 -229.5zM678 292q30 89 -11.5 171.5t-130.5 112.5q-90 30 -173 -9t-113 -129q-30 -89 11.5 -171.5t130.5 -112.5q90 -30 173 9t113 129z
M644 316q-20 -76 -85.5 -113.5t-142.5 -18.5q-76 22 -113 87.5t-17 142.5q20 75 85.5 113t142.5 19q76 -20 113 -87.5t17 -142.5zM569 328q17 41 -4 83t-64 56q-44 16 -84.5 -3.5t-56.5 -62.5q-15 -43 4.5 -82.5t64.5 -55.5t85 3t55 62zM525 365q0 -36 -17 -60.5t-43 -24.5
t-44 25t-18 60t18 60t44 25t43 -24.5t17 -60.5z" />
    <glyph glyph-name="H18533" unicode="&#x25cf;" horiz-adv-x="927" 
d="M464 -10q-155 0 -264.5 110t-109.5 265t109.5 265t264.5 110t264.5 -110t109.5 -265t-109.5 -265t-264.5 -110z" />
    <glyph glyph-name="uni25E2" unicode="&#x25e2;" horiz-adv-x="897" 
d="M873 533l-606 -606l-222 828z" />
    <glyph glyph-name="uni25E3" unicode="&#x25e3;" horiz-adv-x="897" 
d="M632 -73l-606 606l828 222z" />
    <glyph glyph-name="uni25E4" unicode="&#x25e4;" horiz-adv-x="897" 
d="M857 -54l-828 222l606 606z" />
    <glyph glyph-name="uni25E5" unicode="&#x25e5;" horiz-adv-x="897" 
d="M872 163l-828 -221l223 828z" />
    <glyph glyph-name="uni2605" unicode="&#x2605;" horiz-adv-x="900" 
d="M562 303l72 -218l-187 135l-186 -135l72 219l-186 135l229 -1l72 218l71 -218l230 -1z" />
    <glyph glyph-name="uni2612" unicode="&#x2612;" horiz-adv-x="700" 
d="M100 0v500h500v-500h-500zM190 413v-326h320v326h-320zM271 377l78 -77l78 80l51 -51l-78 -80l80 -78l-51 -51l-79 77l-77 -79l-51 51l77 79l-79 78z" />
    <glyph glyph-name="sun" unicode="&#x263c;" horiz-adv-x="928" 
d="M287 365q0 71 51.5 122.5t122.5 51.5t122.5 -51.5t51.5 -122.5t-51.5 -122.5t-122.5 -51.5t-122.5 51.5t-51.5 122.5zM451 577l-17 142h54l-17 -142h-20zM471 155l17 -142h-54l17 142h20zM250 356l-142 -17v54l142 -17v-20zM672 376l142 17v-54l-142 17v20zM273 464
l-133 55l28 47l115 -87zM649 268l133 -55l-28 -47l-115 87zM348 544l-87 115l47 28l55 -133zM574 188l87 -115l-47 -28l-55 133zM559 554l55 133l47 -28l-87 -115zM363 178l-55 -133l-47 28l87 115zM639 480l113 86l30 -46l-133 -56zM283 252l-113 -86l-30 46l133 56z" />
    <glyph glyph-name="uni263E" unicode="&#x263e;" horiz-adv-x="787" 
d="M534 616q-99 0 -169 -73.5t-70 -177.5t70 -177.5t169 -73.5q32 0 71 12q-81 -57 -178 -57q-122 0 -209 87t-87 209t87 209t209 87q97 0 178 -57q-39 12 -71 12z" />
    <glyph glyph-name="spade" unicode="&#x2660;" horiz-adv-x="920" 
d="M594 0h-259q66 124 84 204q10 45 10 86q-20 -58 -63.5 -97t-106.5 -39q-70 0 -120.5 47t-50.5 111q0 83 52 151t183 172l140 112h1l140 -112q128 -102 178 -170.5t50 -152.5q0 -64 -46.5 -110.5t-110.5 -46.5q-68 0 -114.5 38.5t-66.5 96.5q0 -29 6 -61t13 -55.5
t21.5 -56t21 -45.5t22.5 -42t16 -30z" />
    <glyph glyph-name="club" unicode="&#x2663;" horiz-adv-x="920" 
d="M595 0h-259q1 2 11.5 21.5t15.5 29.5l15 31.5t16.5 38t13.5 38.5t12 44.5t7 44.5q-22 -53 -66.5 -85.5t-100.5 -32.5q-74 0 -125.5 52t-51.5 125t51.5 125t125.5 52q19 0 42 -7q-19 39 -19 87q0 72 51.5 124t123.5 52t124 -52t52 -124q0 -46 -19 -88q24 8 46 8
q74 0 125 -51.5t51 -125.5q0 -73 -51.5 -125t-125.5 -52q-56 0 -99 32t-64 85q4 -30 12 -60t22 -61l22 -48t24.5 -47t17.5 -31z" />
    <glyph glyph-name="heart" unicode="&#x2665;" horiz-adv-x="920" 
d="M89 550q0 79 53 134.5t130 55.5q75 0 126 -45.5t59 -115.5q10 71 59.5 116t125.5 45q77 0 133 -56t56 -134q0 -85 -53 -177t-179 -233l-142 -157l-141 157q-125 139 -176 231.5t-51 178.5z" />
    <glyph glyph-name="diamond" unicode="&#x2666;" horiz-adv-x="920" 
d="M133 390l327 401l327 -401l-327 -400z" />
    <glyph glyph-name="uni267B" unicode="&#x267b;" horiz-adv-x="921" 
d="M821 246l1 -2l-91 -157q-13 -19 -19.5 -27.5t-23 -16.5t-39.5 -8h-54v-47l-106 128l106 127v-46h136q35 0 66 25q13 10 24 24zM184 111h-2l-90 158q-10 20 -14 30.5t-3 28.5t13 37l27 46l-40 23l164 29l55 -156l-38 23q-20 -32 -33 -57q-33 -56 -35 -61q-18 -29 -12 -68
q1 -15 8 -33zM389 728v1h182q18 -1 26 -1.5t20.5 -4.5t21.5 -13.5t18 -24.5l26 -46l41 23l-58 -157l-162 30l38 22l-67 118q-19 30 -54 45q-19 7 -32 8zM197 558l63 112q11 18 32 29q42 21 91.5 9t63.5 -42l-109 -189zM429 35h-127q-22 0 -42 12q-40 23 -54 74t5 76h218
v-162zM767 491l65 -110q9 -13 9 -41q0 -45 -36.5 -81.5t-68.5 -36.5l-109 189z" />
    <glyph glyph-name="uni267C" unicode="&#x267c;" horiz-adv-x="921" 
d="M837 366q0 -156 -110 -265.5t-265 -109.5q-157 0 -267 109.5t-110 265.5t110 266.5t267 110.5q155 0 265 -110.5t110 -266.5zM304 606l-49 -86l109 -63l84 146q-13 23 -50.5 33t-69.5 -7q-19 -12 -24 -23zM399 652v-1q8 -1 26 -7q26 -9 41 -34l53 -91l-30 -18l126 -23
l44 122l-31 -18l-21 36q-13 22 -27.5 28t-39.5 6h-141zM332 114h99v126h-170q-14 -20 -3 -59t42 -58q14 -9 32 -9zM243 173h1q-5 12 -6 25q-5 29 9 54l53 91l30 -18l-43 121l-127 -22l31 -18l-21 -36q-9 -15 -10 -29.5t2 -21.5t11 -24zM746 383l-49 85l-110 -63l85 -147
q26 0 54 28.5t28 64.5q0 18 -8 32zM739 276l-1 1q-31 -37 -70 -37h-105v35l-83 -98l83 -99v36h41q27 0 39.5 9.5t24.5 30.5z" />
    <glyph glyph-name="uni267D" unicode="&#x267d;" horiz-adv-x="921" 
d="M837 366q0 -156 -110 -265.5t-265 -109.5q-157 0 -267 109.5t-110 265.5t110 266.5t267 110.5q155 0 265 -110.5t110 -266.5zM818 366q0 149 -104 253.5t-252 104.5q-149 0 -254 -104.5t-105 -253.5q0 -148 105 -252.5t254 -104.5q148 0 252 104.5t104 252.5zM255 520
l49 86q5 11 24 23q32 17 69.5 7t50.5 -33l-84 -146zM399 651v1h141q25 0 39.5 -6t27.5 -28l21 -36l31 18l-44 -122l-126 23l30 18l-53 91q-14 23 -41 34q-18 6 -26 7zM431 114h-99q-18 0 -32 9q-31 19 -42 58t3 59h170v-126zM244 173h-1l-70 122q-8 17 -11 24t-2 21.5
t10 29.5l21 36l-31 18l127 22l43 -121l-30 18l-53 -91q-14 -25 -9 -54q1 -13 6 -25zM697 468l49 -85q8 -14 8 -32q0 -36 -28 -64.5t-54 -28.5l-85 147zM738 277l1 -1l-71 -122q-12 -21 -24.5 -30.5t-39.5 -9.5h-41v-36l-83 99l83 98v-35h105q25 0 52 19q10 7 18 18z" />
    <glyph glyph-name="uni26AA" unicode="&#x26aa;" horiz-adv-x="698" 
d="M349 -10q-108 0 -183.5 76t-75.5 184q0 110 75.5 185t183.5 75q109 0 184.5 -75t75.5 -185q0 -108 -76 -184t-184 -76zM349 79q69 0 117 50.5t48 120.5q0 71 -48 121t-117 50q-68 0 -116 -50t-48 -121q0 -70 48 -120.5t116 -50.5z" />
    <glyph glyph-name="uni26AB" unicode="&#x26ab;" horiz-adv-x="698" 
d="M349 -10q-108 0 -183.5 76t-75.5 184t75.5 184t183.5 76t183.5 -76t75.5 -184t-75.5 -184t-183.5 -76z" />
    <glyph glyph-name="uni3008" unicode="&#x3008;" horiz-adv-x="376" 
d="M252 -230l-227 480l227 480h103l-228 -480l228 -480h-103z" />
    <glyph glyph-name="uni3009" unicode="&#x3009;" horiz-adv-x="376" 
d="M127 -230h-103l228 480l-228 480h103l227 -480z" />
    <glyph glyph-name="uniE141" unicode="&#xe141;" horiz-adv-x="593" 
d="M60 0v730h234q112 0 183 -67.5t71 -168.5q0 -72 -40.5 -130.5t-107.5 -86.5l162 -277h-109l-146 254h-149v-254h-98zM284 640h-126v-297h125q78 0 122.5 46t44.5 105q0 67 -43.5 106.5t-122.5 39.5z" />
    <glyph glyph-name="uniE142" unicode="&#xe142;" horiz-adv-x="593" 
d="M60 0v730h234q112 0 183 -67.5t71 -168.5q0 -72 -40.5 -130.5t-107.5 -86.5l162 -277h-109l-146 254h-149v-254h-98zM284 640h-126v-297h125q78 0 122.5 46t44.5 105q0 67 -43.5 106.5t-122.5 39.5zM216 787l116 163h105l-146 -163h-75z" />
    <glyph glyph-name="uniE143" unicode="&#xe143;" horiz-adv-x="593" 
d="M60 0v730h234q112 0 183 -67.5t71 -168.5q0 -72 -40.5 -130.5t-107.5 -86.5l162 -277h-109l-146 254h-149v-254h-98zM284 640h-126v-297h125q78 0 122.5 46t44.5 105q0 67 -43.5 106.5t-122.5 39.5zM266 787l-119 163h85l68 -98l70 98h84l-119 -163h-69z" />
    <glyph glyph-name="uniE146" unicode="&#xe146;" horiz-adv-x="593" 
d="M60 0v730h234q112 0 183 -67.5t71 -168.5q0 -72 -40.5 -130.5t-107.5 -86.5l162 -277h-109l-146 254h-149v-254h-98zM284 640h-126v-297h125q78 0 122.5 46t44.5 105q0 67 -43.5 106.5t-122.5 39.5zM290 -281h-63l40 204h86z" />
    <glyph glyph-name="uniE181" unicode="&#xe181;" horiz-adv-x="367" 
d="M191 435q-62 0 -106 44t-44 106q0 63 43.5 107t106.5 44q45 0 81 -22.5t54 -59.5l-62 -32q-21 46 -73 46q-34 0 -57 -24t-23 -59q0 -34 23 -58t57 -24q54 0 74 48l63 -30q-19 -39 -54.5 -62.5t-82.5 -23.5z" />
    <glyph glyph-name="uniE200" unicode="&#xe200;" horiz-adv-x="510" 
d="M57 0v596h194q98 0 159 -60.5t61 -149.5q0 -90 -62 -151t-159 -61h-97v-174h-96zM247 508h-94v-245h94q57 0 92.5 34.5t35.5 88.5t-35.5 88t-92.5 34z" />
    <glyph glyph-name="uniE200" unicode="&#xf770;" horiz-adv-x="510" 
d="M57 0v596h194q98 0 159 -60.5t61 -149.5q0 -90 -62 -151t-159 -61h-97v-174h-96zM247 508h-94v-245h94q57 0 92.5 34.5t35.5 88.5t-35.5 88t-92.5 34z" />
    <glyph glyph-name="uniE201" unicode="&#xe201;" horiz-adv-x="580" 
d="M26 0l216 596h96l217 -596h-98l-44 123h-246l-44 -123h-97zM290 466l-91 -253h182z" />
    <glyph glyph-name="uniE201" unicode="&#xf761;" horiz-adv-x="580" 
d="M26 0l216 596h96l217 -596h-98l-44 123h-246l-44 -123h-97zM290 466l-91 -253h182z" />
    <glyph glyph-name="uniE202" unicode="&#xe202;" horiz-adv-x="517" 
d="M57 0v596h208q94 0 145.5 -42.5t51.5 -119.5q0 -84 -69 -123q87 -37 87 -138q1 -85 -53 -129t-151 -44h-219zM275 261h-122v-174h125q50 0 77.5 24t27.5 64q0 86 -108 86zM267 510h-114v-160h118q47 0 72 22.5t25 59.5q0 36 -26.5 57t-74.5 21z" />
    <glyph glyph-name="uniE202" unicode="&#xf762;" horiz-adv-x="517" 
d="M57 0v596h208q94 0 145.5 -42.5t51.5 -119.5q0 -84 -69 -123q87 -37 87 -138q1 -85 -53 -129t-151 -44h-219zM275 261h-122v-174h125q50 0 77.5 24t27.5 64q0 86 -108 86zM267 510h-114v-160h118q47 0 72 22.5t25 59.5q0 36 -26.5 57t-74.5 21z" />
    <glyph glyph-name="uniE203" unicode="&#xe203;" horiz-adv-x="646" 
d="M348 -8q-132 0 -219.5 89t-87.5 217q0 129 88.5 217.5t217.5 88.5q85 0 157 -42.5t111 -112.5l-85 -49q-27 51 -75 81.5t-107 30.5q-91 0 -150.5 -62.5t-59.5 -151.5q0 -88 60.5 -151t147.5 -63q65 0 113 33.5t74 89.5l89 -43q-40 -80 -110.5 -126t-163.5 -46z" />
    <glyph glyph-name="uniE203" unicode="&#xf763;" horiz-adv-x="646" 
d="M348 -8q-132 0 -219.5 89t-87.5 217q0 129 88.5 217.5t217.5 88.5q85 0 157 -42.5t111 -112.5l-85 -49q-27 51 -75 81.5t-107 30.5q-91 0 -150.5 -62.5t-59.5 -151.5q0 -88 60.5 -151t147.5 -63q65 0 113 33.5t74 89.5l89 -43q-40 -80 -110.5 -126t-163.5 -46z" />
    <glyph glyph-name="uniE204" unicode="&#xe204;" horiz-adv-x="578" 
d="M57 0v596h170q139 0 224.5 -85t85.5 -213q0 -129 -87 -213.5t-221 -84.5h-172zM220 508h-68v-419h71q95 0 156 60t61 149q0 92 -59 151t-161 59z" />
    <glyph glyph-name="uniE204" unicode="&#xf764;" horiz-adv-x="578" 
d="M57 0v596h170q139 0 224.5 -85t85.5 -213q0 -129 -87 -213.5t-221 -84.5h-172zM220 508h-68v-419h71q95 0 156 60t61 149q0 92 -59 151t-161 59z" />
    <glyph glyph-name="uniE205" unicode="&#xe205;" horiz-adv-x="462" 
d="M58 0v596h357v-89h-263v-163h263v-90h-263v-164h263v-90h-357z" />
    <glyph glyph-name="uniE205" unicode="&#xf765;" horiz-adv-x="462" 
d="M58 0v596h357v-89h-263v-163h263v-90h-263v-164h263v-90h-357z" />
    <glyph glyph-name="uniE206" unicode="&#xe206;" horiz-adv-x="438" 
d="M57 0v596h338v-89h-243v-163h243v-90h-243v-254h-95z" />
    <glyph glyph-name="uniE206" unicode="&#xf766;" horiz-adv-x="438" 
d="M57 0v596h338v-89h-243v-163h243v-90h-243v-254h-95z" />
    <glyph glyph-name="uniE207" unicode="&#xe207;" horiz-adv-x="681" 
d="M347 -8q-133 0 -221 90t-88 216q0 129 88.5 217.5t219.5 88.5q90 0 159 -40.5t108 -110.5l-84 -48q-58 109 -183 109q-90 0 -151 -63t-61 -153q0 -91 60.5 -153.5t151.5 -62.5q78 0 128.5 43.5t65.5 115.5h-209v90h312v-38q0 -126 -82 -213.5t-214 -87.5z" />
    <glyph glyph-name="uniE207" unicode="&#xf767;" horiz-adv-x="681" 
d="M347 -8q-133 0 -221 90t-88 216q0 129 88.5 217.5t219.5 88.5q90 0 159 -40.5t108 -110.5l-84 -48q-58 109 -183 109q-90 0 -151 -63t-61 -153q0 -91 60.5 -153.5t151.5 -62.5q78 0 128.5 43.5t65.5 115.5h-209v90h312v-38q0 -126 -82 -213.5t-214 -87.5z" />
    <glyph glyph-name="uniE208" unicode="&#xe208;" horiz-adv-x="562" 
d="M410 0v253h-257v-253h-96v596h96v-250h257v250h96v-596h-96z" />
    <glyph glyph-name="uniE208" unicode="&#xf768;" horiz-adv-x="562" 
d="M410 0v253h-257v-253h-96v596h96v-250h257v250h96v-596h-96z" />
    <glyph glyph-name="uniE209" unicode="&#xe209;" horiz-adv-x="221" 
d="M62 0v596h97v-596h-97z" />
    <glyph glyph-name="uniE209" unicode="&#xf769;" horiz-adv-x="221" 
d="M62 0v596h97v-596h-97z" />
    <glyph glyph-name="uniE20A" unicode="&#xe20a;" horiz-adv-x="416" 
d="M193 -8q-64 0 -109 30t-63 81l91 39q21 -62 80 -62q35 0 54.5 23.5t19.5 63.5v429h96v-424q0 -87 -43 -133.5t-126 -46.5z" />
    <glyph glyph-name="uniE20A" unicode="&#xf76a;" horiz-adv-x="416" 
d="M193 -8q-64 0 -109 30t-63 81l91 39q21 -62 80 -62q35 0 54.5 23.5t19.5 63.5v429h96v-424q0 -87 -43 -133.5t-126 -46.5z" />
    <glyph glyph-name="uniE20B" unicode="&#xe20b;" horiz-adv-x="541" 
d="M411 0l-173 292l-85 -98v-194h-95v596h95v-282l238 282h116l-200 -237l212 -359h-108z" />
    <glyph glyph-name="uniE20B" unicode="&#xf76b;" horiz-adv-x="541" 
d="M411 0l-173 292l-85 -98v-194h-95v596h95v-282l238 282h116l-200 -237l212 -359h-108z" />
    <glyph glyph-name="uniE20C" unicode="&#xe20c;" horiz-adv-x="429" 
d="M57 0v596h96v-504h236v-92h-332z" />
    <glyph glyph-name="uniE20C" unicode="&#xf76c;" horiz-adv-x="429" 
d="M57 0v596h96v-504h236v-92h-332z" />
    <glyph glyph-name="uniE20D" unicode="&#xe20d;" horiz-adv-x="698" 
d="M57 0v596h95l198 -275l200 275h91v-596h-95v437l-197 -268l-197 272v-441h-95z" />
    <glyph glyph-name="uniE20D" unicode="&#xf76d;" horiz-adv-x="698" 
d="M57 0v596h95l198 -275l200 275h91v-596h-95v437l-197 -268l-197 272v-441h-95z" />
    <glyph glyph-name="uniE20E" unicode="&#xe20e;" horiz-adv-x="609" 
d="M57 0v596h105l295 -437v437h95v-596h-98l-302 445v-445h-95z" />
    <glyph glyph-name="uniE20E" unicode="&#xf76e;" horiz-adv-x="609" 
d="M57 0v596h105l295 -437v437h95v-596h-98l-302 445v-445h-95z" />
    <glyph glyph-name="uniE20F" unicode="&#xe20f;" horiz-adv-x="686" 
d="M343 -8q-127 0 -216 89.5t-89 216.5t89 216.5t216 89.5t216.5 -89.5t89.5 -216.5t-89.5 -216.5t-216.5 -89.5zM343 84q87 0 147.5 63t60.5 151t-60.5 151t-147.5 63t-147.5 -63t-60.5 -151q0 -89 59.5 -151.5t148.5 -62.5z" />
    <glyph glyph-name="uniE20F" unicode="&#xf76f;" horiz-adv-x="686" 
d="M343 -8q-127 0 -216 89.5t-89 216.5t89 216.5t216 89.5t216.5 -89.5t89.5 -216.5t-89.5 -216.5t-216.5 -89.5zM343 84q87 0 147.5 63t60.5 151t-60.5 151t-147.5 63t-147.5 -63t-60.5 -151q0 -89 59.5 -151.5t148.5 -62.5z" />
    <glyph glyph-name="uniE211" unicode="&#xe211;" horiz-adv-x="692" 
d="M345 -8q-126 0 -215 89.5t-89 216.5t89 216.5t215 89.5q127 0 216.5 -89.5t89.5 -216.5q0 -117 -77 -202l77 -96h-112l-217 276h109l83 -104q39 56 39 126q0 88 -60.5 151t-147.5 63t-147.5 -63t-60.5 -151t60.5 -151t147.5 -63q43 0 79 16l59 -75q-65 -33 -138 -33z" />
    <glyph glyph-name="uniE211" unicode="&#xf771;" horiz-adv-x="692" 
d="M345 -8q-126 0 -215 89.5t-89 216.5t89 216.5t215 89.5q127 0 216.5 -89.5t89.5 -216.5q0 -117 -77 -202l77 -96h-112l-217 276h109l83 -104q39 56 39 126q0 88 -60.5 151t-147.5 63t-147.5 -63t-60.5 -151t60.5 -151t147.5 -63q43 0 79 16l59 -75q-65 -33 -138 -33z" />
    <glyph glyph-name="uniE212" unicode="&#xe212;" horiz-adv-x="501" 
d="M57 0v596h194q94 0 153 -56.5t59 -139.5q0 -61 -34 -109.5t-96 -68.5l141 -222h-111l-175 288h53q57 0 90 34t33 77q0 50 -30.5 79.5t-88.5 29.5h-92v-508h-96z" />
    <glyph glyph-name="uniE212" unicode="&#xf772;" horiz-adv-x="501" 
d="M57 0v596h194q94 0 153 -56.5t59 -139.5q0 -61 -34 -109.5t-96 -68.5l141 -222h-111l-175 288h53q57 0 90 34t33 77q0 50 -30.5 79.5t-88.5 29.5h-92v-508h-96z" />
    <glyph glyph-name="uniE213" unicode="&#xe213;" horiz-adv-x="480" 
d="M239 -8q-135 0 -221 105l84 66q50 -82 136 -82q47 0 75.5 25.5t28.5 64.5q0 17 -8 31t-17.5 22.5t-30.5 18t-34 13.5l-41 13q-40 14 -61.5 23t-50.5 28.5t-42.5 48.5t-13.5 69q0 72 54.5 119.5t136.5 47.5q121 0 196 -89l-77 -59q-40 64 -118 64q-42 0 -68.5 -22.5
t-26.5 -56.5q0 -9 2 -17t7 -15.5t9 -12.5t14 -10.5t15 -9t19 -9t19.5 -7.5t22.5 -7.5t22 -7.5q36 -11 61.5 -22t53.5 -30.5t42.5 -50t14.5 -70.5q0 -74 -56 -127.5t-147 -53.5z" />
    <glyph glyph-name="uniE213" unicode="&#xf773;" horiz-adv-x="480" 
d="M239 -8q-135 0 -221 105l84 66q50 -82 136 -82q47 0 75.5 25.5t28.5 64.5q0 17 -8 31t-17.5 22.5t-30.5 18t-34 13.5l-41 13q-40 14 -61.5 23t-50.5 28.5t-42.5 48.5t-13.5 69q0 72 54.5 119.5t136.5 47.5q121 0 196 -89l-77 -59q-40 64 -118 64q-42 0 -68.5 -22.5
t-26.5 -56.5q0 -9 2 -17t7 -15.5t9 -12.5t14 -10.5t15 -9t19 -9t19.5 -7.5t22.5 -7.5t22 -7.5q36 -11 61.5 -22t53.5 -30.5t42.5 -50t14.5 -70.5q0 -74 -56 -127.5t-147 -53.5z" />
    <glyph glyph-name="uniE214" unicode="&#xe214;" horiz-adv-x="504" 
d="M206 0v506h-167v90h427v-90h-166v-506h-94z" />
    <glyph glyph-name="uniE214" unicode="&#xf774;" horiz-adv-x="504" 
d="M206 0v506h-167v90h427v-90h-166v-506h-94z" />
    <glyph glyph-name="uniE215" unicode="&#xe215;" horiz-adv-x="532" 
d="M266 -8q-95 0 -153.5 56.5t-58.5 153.5v394h96v-398q0 -54 32 -86t84 -32q51 0 83.5 32.5t32.5 86.5v397h96v-394q0 -97 -59 -153.5t-153 -56.5z" />
    <glyph glyph-name="uniE215" unicode="&#xf775;" horiz-adv-x="532" 
d="M266 -8q-95 0 -153.5 56.5t-58.5 153.5v394h96v-398q0 -54 32 -86t84 -32q51 0 83.5 32.5t32.5 86.5v397h96v-394q0 -97 -59 -153.5t-153 -56.5z" />
    <glyph glyph-name="uniE216" unicode="&#xe216;" horiz-adv-x="560" 
d="M231 0l-206 596h100l156 -455l154 455h100l-205 -596h-99z" />
    <glyph glyph-name="uniE216" unicode="&#xf776;" horiz-adv-x="560" 
d="M231 0l-206 596h100l156 -455l154 455h100l-205 -596h-99z" />
    <glyph glyph-name="uniE217" unicode="&#xe217;" horiz-adv-x="865" 
d="M195 0l-169 596h100l120 -445l138 445h93l138 -449l128 449h96l-175 -596h-96l-137 448l-138 -448h-98z" />
    <glyph glyph-name="uniE217" unicode="&#xf777;" horiz-adv-x="865" 
d="M195 0l-169 596h100l120 -445l138 445h93l138 -449l128 449h96l-175 -596h-96l-137 448l-138 -448h-98z" />
    <glyph glyph-name="uniE218" unicode="&#xe218;" horiz-adv-x="539" 
d="M411 0l-140 222l-140 -222h-108l195 303l-185 293h106l133 -212l131 212h108l-185 -291l191 -305h-106z" />
    <glyph glyph-name="uniE218" unicode="&#xf778;" horiz-adv-x="539" 
d="M411 0l-140 222l-140 -222h-108l195 303l-185 293h106l133 -212l131 212h108l-185 -291l191 -305h-106z" />
    <glyph glyph-name="uniE219" unicode="&#xe219;" horiz-adv-x="529" 
d="M217 0v281l-193 315h105l135 -223l137 223h105l-193 -315v-281h-96z" />
    <glyph glyph-name="uniE219" unicode="&#xf779;" horiz-adv-x="529" 
d="M217 0v281l-193 315h105l135 -223l137 223h105l-193 -315v-281h-96z" />
    <glyph glyph-name="uniE21A" unicode="&#xe21a;" horiz-adv-x="478" 
d="M42 0v88l281 419h-274v89h387v-87l-284 -419h284v-90h-394z" />
    <glyph glyph-name="uniE21A" unicode="&#xf77a;" horiz-adv-x="478" 
d="M42 0v88l281 419h-274v89h387v-87l-284 -419h284v-90h-394z" />
    <glyph glyph-name="uniE220" unicode="&#xe220;" horiz-adv-x="580" 
d="M26 0l216 596h96l217 -596h-98l-167 466l-167 -466h-97z" />
    <glyph glyph-name="uniE221" unicode="&#xe221;" horiz-adv-x="580" 
d="M26 0l216 596h96l217 -596h-98l-44 123h-246l-44 -123h-97zM290 466l-91 -253h182zM251 653l116 163h105l-146 -163h-75z" />
    <glyph glyph-name="uniE221" unicode="&#xf7e1;" horiz-adv-x="580" 
d="M26 0l216 596h96l217 -596h-98l-44 123h-246l-44 -123h-97zM290 466l-91 -253h182zM251 653l116 163h105l-146 -163h-75z" />
    <glyph glyph-name="uniE222" unicode="&#xe222;" horiz-adv-x="580" 
d="M26 0l216 596h96l217 -596h-98l-44 123h-246l-44 -123h-97zM290 466l-91 -253h182zM252 653l-146 163h104l117 -163h-75z" />
    <glyph glyph-name="uniE222" unicode="&#xf7e0;" horiz-adv-x="580" 
d="M26 0l216 596h96l217 -596h-98l-44 123h-246l-44 -123h-97zM290 466l-91 -253h182zM252 653l-146 163h104l117 -163h-75z" />
    <glyph glyph-name="uniE223" unicode="&#xe223;" horiz-adv-x="580" 
d="M26 0l216 596h96l217 -596h-98l-44 123h-246l-44 -123h-97zM135 648l119 163h69l119 -163h-84l-70 98l-68 -98h-85zM290 466l-91 -253h182z" />
    <glyph glyph-name="uniE223" unicode="&#xf7e2;" horiz-adv-x="580" 
d="M26 0l216 596h96l217 -596h-98l-44 123h-246l-44 -123h-97zM135 648l119 163h69l119 -163h-84l-70 98l-68 -98h-85zM290 466l-91 -253h182z" />
    <glyph glyph-name="uniE224" unicode="&#xe224;" horiz-adv-x="580" 
d="M26 0l216 596h96l217 -596h-98l-44 123h-246l-44 -123h-97zM290 466l-91 -253h182zM324 727q0 28 17 45t46 17q30 0 47 -17t17 -45q0 -29 -16.5 -46t-47.5 -17q-30 0 -46.5 17t-16.5 46zM129 727q0 28 17 45t46 17q30 0 47 -17t17 -45q0 -29 -17 -46t-47 -17t-46.5 17
t-16.5 46z" />
    <glyph glyph-name="uniE224" unicode="&#xf7e4;" horiz-adv-x="580" 
d="M26 0l216 596h96l217 -596h-98l-44 123h-246l-44 -123h-97zM290 466l-91 -253h182zM324 727q0 28 17 45t46 17q30 0 47 -17t17 -45q0 -29 -16.5 -46t-47.5 -17q-30 0 -46.5 17t-16.5 46zM129 727q0 28 17 45t46 17q30 0 47 -17t17 -45q0 -29 -17 -46t-47 -17t-46.5 17
t-16.5 46z" />
    <glyph glyph-name="uniE225" unicode="&#xe225;" horiz-adv-x="580" 
d="M26 0l216 596h96l217 -596h-98l-44 123h-246l-44 -123h-97zM183 653h-65q0 56 27 89.5t73 33.5q39 0 80 -27q44 -27 61 -27q36 0 36 50h66q0 -58 -26 -90.5t-75 -32.5q-38 0 -91 32q-36 21 -51 21q-35 0 -35 -49zM290 466l-91 -253h182z" />
    <glyph glyph-name="uniE225" unicode="&#xf7e3;" horiz-adv-x="580" 
d="M26 0l216 596h96l217 -596h-98l-44 123h-246l-44 -123h-97zM183 653h-65q0 56 27 89.5t73 33.5q39 0 80 -27q44 -27 61 -27q36 0 36 50h66q0 -58 -26 -90.5t-75 -32.5q-38 0 -91 32q-36 21 -51 21q-35 0 -35 -49zM290 466l-91 -253h182z" />
    <glyph glyph-name="uniE226" unicode="&#xe226;" horiz-adv-x="580" 
d="M26 0l204 563q-50 31 -50 92q0 46 31.5 78t76.5 32q46 0 78.5 -32t32.5 -78q0 -60 -50 -91l206 -564h-98l-44 123h-246l-44 -123h-97zM290 466l-91 -253h182zM288 609q20 0 33.5 13t13.5 33q0 19 -13.5 33t-33.5 14q-19 0 -32.5 -14t-13.5 -33q0 -20 13.5 -33t32.5 -13z
" />
    <glyph glyph-name="uniE226" unicode="&#xf7e5;" horiz-adv-x="580" 
d="M26 0l204 563q-50 31 -50 92q0 46 31.5 78t76.5 32q46 0 78.5 -32t32.5 -78q0 -60 -50 -91l206 -564h-98l-44 123h-246l-44 -123h-97zM290 466l-91 -253h182zM288 609q20 0 33.5 13t13.5 33q0 19 -13.5 33t-33.5 14q-19 0 -32.5 -14t-13.5 -33q0 -20 13.5 -33t32.5 -13z
" />
    <glyph glyph-name="uniE228" unicode="&#xe228;" horiz-adv-x="580" 
d="M26 0l216 596h96l217 -596h-98l-44 123h-246l-44 -123h-97zM290 466l-91 -253h182zM156 653v70h264v-70h-264z" />
    <glyph glyph-name="uniE228" unicode="&#xf641;" horiz-adv-x="580" 
d="M26 0l216 596h96l217 -596h-98l-44 123h-246l-44 -123h-97zM290 466l-91 -253h182zM156 653v70h264v-70h-264z" />
    <glyph glyph-name="uniE229" unicode="&#xe229;" horiz-adv-x="580" 
d="M26 0l216 596h96l217 -596h-98l-44 123h-246l-44 -123h-97zM287 645q-79 0 -120 46t-41 118h70q0 -101 91 -103q44 1 67.5 28t23.5 75h71q0 -70 -44 -117t-118 -47zM290 466l-91 -253h182z" />
    <glyph glyph-name="uniE229" unicode="&#xf640;" horiz-adv-x="580" 
d="M26 0l216 596h96l217 -596h-98l-44 123h-246l-44 -123h-97zM287 645q-79 0 -120 46t-41 118h70q0 -101 91 -103q44 1 67.5 28t23.5 75h71q0 -70 -44 -117t-118 -47zM290 466l-91 -253h182z" />
    <glyph glyph-name="uniE22D" unicode="&#xe22d;" horiz-adv-x="580" 
d="M26 0l204 563q-50 31 -50 92q0 46 31.5 78t76.5 32q46 0 78.5 -32t32.5 -78q0 -60 -50 -91l206 -564h-98l-44 123h-246l-44 -123h-97zM290 466l-91 -253h182zM248 804l116 163h105l-146 -163h-75zM288 609q20 0 33.5 13t13.5 33q0 19 -13.5 33t-33.5 14q-19 0 -32.5 -14
t-13.5 -33q0 -20 13.5 -33t32.5 -13z" />
    <glyph glyph-name="uniE22D" unicode="&#xf625;" horiz-adv-x="580" 
d="M26 0l204 563q-50 31 -50 92q0 46 31.5 78t76.5 32q46 0 78.5 -32t32.5 -78q0 -60 -50 -91l206 -564h-98l-44 123h-246l-44 -123h-97zM290 466l-91 -253h182zM248 804l116 163h105l-146 -163h-75zM288 609q20 0 33.5 13t13.5 33q0 19 -13.5 33t-33.5 14q-19 0 -32.5 -14
t-13.5 -33q0 -20 13.5 -33t32.5 -13z" />
    <glyph glyph-name="uniE22F" unicode="&#xe22f;" horiz-adv-x="580" 
d="M26 0l216 596h96l217 -596h-3l2 -1q-80 -51 -102.5 -70.5t-22.5 -41.5q0 -18 15 -28t39 -10q36 0 71 33l65 -44q-64 -57 -136 -57q-61 0 -99 29t-38 74q0 35 23.5 66t81.5 65l-38 108h-246l-44 -123h-97zM290 466l-91 -253h182z" />
    <glyph glyph-name="uniE22F" unicode="&#xf642;" horiz-adv-x="580" 
d="M26 0l216 596h96l217 -596h-3l2 -1q-80 -51 -102.5 -70.5t-22.5 -41.5q0 -18 15 -28t39 -10q36 0 71 33l65 -44q-64 -57 -136 -57q-61 0 -99 29t-38 74q0 35 23.5 66t81.5 65l-38 108h-246l-44 -123h-97zM290 466l-91 -253h182z" />
    <glyph glyph-name="uniE230" unicode="&#xe230;" 
d="M58 0v596h357v-89h-263v-163h263v-90h-263v-164h263v-90h-357zM275 727q0 28 17 45t46 17q30 0 47 -17t17 -45q0 -29 -17 -46t-47 -17t-46.5 17t-16.5 46zM80 727q0 28 17 45t46 17q30 0 47 -17t17 -45q0 -29 -16.5 -46t-47.5 -17q-30 0 -46.5 17t-16.5 46z" />
    <glyph glyph-name="uniE230" unicode="&#xf7eb;" 
d="M58 0v596h357v-89h-263v-163h263v-90h-263v-164h263v-90h-357zM275 727q0 28 17 45t46 17q30 0 47 -17t17 -45q0 -29 -17 -46t-47 -17t-46.5 17t-16.5 46zM80 727q0 28 17 45t46 17q30 0 47 -17t17 -45q0 -29 -16.5 -46t-47.5 -17q-30 0 -46.5 17t-16.5 46z" />
    <glyph glyph-name="uniE231" unicode="&#xe231;" horiz-adv-x="832" 
d="M24 0l282 596h480v-90h-358l32 -161h326v-91h-308l33 -163h275v-91h-355l-24 120h-223l-56 -120h-104zM341 455l-116 -247h165z" />
    <glyph glyph-name="uniE231" unicode="&#xf7e6;" horiz-adv-x="832" 
d="M24 0l282 596h480v-90h-358l32 -161h326v-91h-308l33 -163h275v-91h-355l-24 120h-223l-56 -120h-104zM341 455l-116 -247h165z" />
    <glyph glyph-name="uniE232" unicode="&#xe232;" horiz-adv-x="835" 
d="M24 0l282 596h480v-90h-358l32 -161h326v-91h-308l33 -163h275v-91h-355l-24 120h-223l-56 -120h-104zM341 455l-116 -247h165zM450 653l116 163h105l-146 -163h-75z" />
    <glyph glyph-name="uniE232" unicode="&#xf624;" horiz-adv-x="835" 
d="M24 0l282 596h480v-90h-358l32 -161h326v-91h-308l33 -163h275v-91h-355l-24 120h-223l-56 -120h-104zM341 455l-116 -247h165zM450 653l116 163h105l-146 -163h-75z" />
    <glyph glyph-name="uniE234" unicode="&#xe234;" horiz-adv-x="646" 
d="M306 653l116 163h105l-146 -163h-75zM348 -8q-132 0 -219.5 89t-87.5 217q0 129 88.5 217.5t217.5 88.5q85 0 157 -42.5t111 -112.5l-85 -49q-27 51 -75 81.5t-107 30.5q-91 0 -150.5 -62.5t-59.5 -151.5q0 -88 60.5 -151t147.5 -63q65 0 113 33.5t74 89.5l89 -43
q-40 -80 -110.5 -126t-163.5 -46z" />
    <glyph glyph-name="uniE234" unicode="&#xf643;" horiz-adv-x="646" 
d="M306 653l116 163h105l-146 -163h-75zM348 -8q-132 0 -219.5 89t-87.5 217q0 129 88.5 217.5t217.5 88.5q85 0 157 -42.5t111 -112.5l-85 -49q-27 51 -75 81.5t-107 30.5q-91 0 -150.5 -62.5t-59.5 -151.5q0 -88 60.5 -151t147.5 -63q65 0 113 33.5t74 89.5l89 -43
q-40 -80 -110.5 -126t-163.5 -46z" />
    <glyph glyph-name="uniE235" unicode="&#xe235;" horiz-adv-x="646" 
d="M348 -8q-132 0 -219.5 89t-87.5 217q0 129 88.5 217.5t217.5 88.5q85 0 157 -42.5t111 -112.5l-85 -49q-27 51 -75 81.5t-107 30.5q-91 0 -150.5 -62.5t-59.5 -151.5q0 -88 60.5 -151t147.5 -63q65 0 113 33.5t74 89.5l89 -43q-40 -80 -110.5 -126t-163.5 -46zM197 651
l119 163h69l119 -163h-84l-70 98l-68 -98h-85z" />
    <glyph glyph-name="uniE235" unicode="&#xf628;" horiz-adv-x="646" 
d="M348 -8q-132 0 -219.5 89t-87.5 217q0 129 88.5 217.5t217.5 88.5q85 0 157 -42.5t111 -112.5l-85 -49q-27 51 -75 81.5t-107 30.5q-91 0 -150.5 -62.5t-59.5 -151.5q0 -88 60.5 -151t147.5 -63q65 0 113 33.5t74 89.5l89 -43q-40 -80 -110.5 -126t-163.5 -46zM197 651
l119 163h69l119 -163h-84l-70 98l-68 -98h-85z" />
    <glyph glyph-name="uniE236" unicode="&#xe236;" horiz-adv-x="646" 
d="M348 -8q-132 0 -219.5 89t-87.5 217q0 129 88.5 217.5t217.5 88.5q85 0 157 -42.5t111 -112.5l-85 -49q-27 51 -75 81.5t-107 30.5q-91 0 -150.5 -62.5t-59.5 -151.5q0 -88 60.5 -151t147.5 -63q65 0 113 33.5t74 89.5l89 -43q-40 -80 -110.5 -126t-163.5 -46zM315 653
l-119 163h85l68 -98l70 98h84l-119 -163h-69z" />
    <glyph glyph-name="uniE236" unicode="&#xf644;" horiz-adv-x="646" 
d="M348 -8q-132 0 -219.5 89t-87.5 217q0 129 88.5 217.5t217.5 88.5q85 0 157 -42.5t111 -112.5l-85 -49q-27 51 -75 81.5t-107 30.5q-91 0 -150.5 -62.5t-59.5 -151.5q0 -88 60.5 -151t147.5 -63q65 0 113 33.5t74 89.5l89 -43q-40 -80 -110.5 -126t-163.5 -46zM315 653
l-119 163h85l68 -98l70 98h84l-119 -163h-69z" />
    <glyph glyph-name="uniE237" unicode="&#xe237;" horiz-adv-x="646" 
d="M348 -8q-132 0 -219.5 89t-87.5 217q0 129 88.5 217.5t217.5 88.5q85 0 157 -42.5t111 -112.5l-85 -49q-27 51 -75 81.5t-107 30.5q-91 0 -150.5 -62.5t-59.5 -151.5q0 -88 60.5 -151t147.5 -63q65 0 113 33.5t74 89.5l89 -43q-40 -80 -110.5 -126t-163.5 -46zM286 727
q0 29 18 46.5t47 17.5q32 0 49 -17t17 -47t-17 -47.5t-49 -17.5q-30 0 -47.5 17.5t-17.5 47.5z" />
    <glyph glyph-name="uniE237" unicode="&#xf629;" horiz-adv-x="646" 
d="M348 -8q-132 0 -219.5 89t-87.5 217q0 129 88.5 217.5t217.5 88.5q85 0 157 -42.5t111 -112.5l-85 -49q-27 51 -75 81.5t-107 30.5q-91 0 -150.5 -62.5t-59.5 -151.5q0 -88 60.5 -151t147.5 -63q65 0 113 33.5t74 89.5l89 -43q-40 -80 -110.5 -126t-163.5 -46zM286 727
q0 29 18 46.5t47 17.5q32 0 49 -17t17 -47t-17 -47.5t-49 -17.5q-30 0 -47.5 17.5t-17.5 47.5z" />
    <glyph glyph-name="uniE238" unicode="&#xe238;" horiz-adv-x="646" 
d="M341 -235q-82 0 -143 56l64 39q42 -35 84 -35q27 0 46 11t19 28q0 34 -68 34h-43v98q-114 16 -186.5 101.5t-72.5 200.5q0 129 88.5 217.5t217.5 88.5q85 0 157 -42.5t111 -112.5l-85 -49q-27 51 -75 81.5t-107 30.5q-91 0 -150.5 -62.5t-59.5 -151.5q0 -88 60.5 -151
t147.5 -63q65 0 113 33.5t74 89.5l89 -43q-38 -75 -103 -120.5t-150 -50.5v-46q53 1 85.5 -21.5t32.5 -58.5q0 -44 -42.5 -73t-103.5 -29z" />
    <glyph glyph-name="uniE238" unicode="&#xf7e7;" horiz-adv-x="646" 
d="M341 -235q-82 0 -143 56l64 39q42 -35 84 -35q27 0 46 11t19 28q0 34 -68 34h-43v98q-114 16 -186.5 101.5t-72.5 200.5q0 129 88.5 217.5t217.5 88.5q85 0 157 -42.5t111 -112.5l-85 -49q-27 51 -75 81.5t-107 30.5q-91 0 -150.5 -62.5t-59.5 -151.5q0 -88 60.5 -151
t147.5 -63q65 0 113 33.5t74 89.5l89 -43q-38 -75 -103 -120.5t-150 -50.5v-46q53 1 85.5 -21.5t32.5 -58.5q0 -44 -42.5 -73t-103.5 -29z" />
    <glyph glyph-name="uniE239" unicode="&#xe239;" horiz-adv-x="578" 
d="M57 0v596h170q139 0 224.5 -85t85.5 -213q0 -129 -87 -213.5t-221 -84.5h-172zM220 508h-68v-419h71q95 0 156 60t61 149q0 92 -59 151t-161 59zM224 653l-119 163h85l68 -98l70 98h84l-119 -163h-69z" />
    <glyph glyph-name="uniE239" unicode="&#xf645;" horiz-adv-x="578" 
d="M57 0v596h170q139 0 224.5 -85t85.5 -213q0 -129 -87 -213.5t-221 -84.5h-172zM220 508h-68v-419h71q95 0 156 60t61 149q0 92 -59 151t-161 59zM224 653l-119 163h85l68 -98l70 98h84l-119 -163h-69z" />
    <glyph glyph-name="uniE23C" unicode="&#xe23c;" horiz-adv-x="607" 
d="M25 258v82h61v256h170q139 0 225 -85t86 -213t-88 -213t-220 -85h-173v258h-61zM319 258h-137v-169h71q96 0 156 59.5t60 149.5q0 93 -58.5 151.5t-160.5 58.5h-68v-168h137v-82z" />
    <glyph glyph-name="uniE23C" unicode="&#xf646;" horiz-adv-x="607" 
d="M25 258v82h61v256h170q139 0 225 -85t86 -213t-88 -213t-220 -85h-173v258h-61zM319 258h-137v-169h71q96 0 156 59.5t60 149.5q0 93 -58.5 151.5t-160.5 58.5h-68v-168h137v-82z" />
    <glyph glyph-name="uniE23D" unicode="&#xe23d;" 
d="M58 0v596h357v-89h-263v-163h263v-90h-263v-164h263v-90h-357zM185 653l116 163h105l-146 -163h-75z" />
    <glyph glyph-name="uniE23D" unicode="&#xf7e9;" 
d="M58 0v596h357v-89h-263v-163h263v-90h-263v-164h263v-90h-357zM185 653l116 163h105l-146 -163h-75z" />
    <glyph glyph-name="uniE23E" unicode="&#xe23e;" 
d="M58 0v596h357v-89h-263v-163h263v-90h-263v-164h263v-90h-357zM220 653l-146 163h104l117 -163h-75z" />
    <glyph glyph-name="uniE23E" unicode="&#xf7e8;" 
d="M58 0v596h357v-89h-263v-163h263v-90h-263v-164h263v-90h-357zM220 653l-146 163h104l117 -163h-75z" />
    <glyph glyph-name="uniE23F" unicode="&#xe23f;" 
d="M58 0v596h357v-89h-263v-163h263v-90h-263v-164h263v-90h-357zM86 653l119 163h69l119 -163h-84l-70 98l-68 -98h-85z" />
    <glyph glyph-name="uniE23F" unicode="&#xf7ea;" 
d="M58 0v596h357v-89h-263v-163h263v-90h-263v-164h263v-90h-357zM86 653l119 163h69l119 -163h-84l-70 98l-68 -98h-85z" />
    <glyph glyph-name="uniE240" unicode="&#xe240;" horiz-adv-x="681" 
d="M347 -8q-133 0 -221 90t-88 216q0 129 88.5 217.5t219.5 88.5q90 0 159 -40.5t108 -110.5l-84 -48q-58 109 -183 109q-90 0 -151 -63t-61 -153q0 -91 60.5 -153.5t151.5 -62.5q78 0 128.5 43.5t65.5 115.5h-209v90h312v-38q0 -126 -82 -213.5t-214 -87.5zM326 -265h-63
l40 204h86z" />
    <glyph glyph-name="uniE240" unicode="&#xf64c;" horiz-adv-x="681" 
d="M347 -8q-133 0 -221 90t-88 216q0 129 88.5 217.5t219.5 88.5q90 0 159 -40.5t108 -110.5l-84 -48q-58 109 -183 109q-90 0 -151 -63t-61 -153q0 -91 60.5 -153.5t151.5 -62.5q78 0 128.5 43.5t65.5 115.5h-209v90h312v-38q0 -126 -82 -213.5t-214 -87.5zM326 -265h-63
l40 204h86z" />
    <glyph glyph-name="uniE241" unicode="&#xe241;" 
d="M58 0v596h357v-89h-263v-163h263v-90h-263v-164h263v-90h-357zM205 653l-119 163h85l68 -98l70 98h84l-119 -163h-69z" />
    <glyph glyph-name="uniE241" unicode="&#xf647;" 
d="M58 0v596h357v-89h-263v-163h263v-90h-263v-164h263v-90h-357zM205 653l-119 163h85l68 -98l70 98h84l-119 -163h-69z" />
    <glyph glyph-name="uniE242" unicode="&#xe242;" 
d="M58 0v596h357v-89h-263v-163h263v-90h-263v-164h263v-90h-357zM106 653v70h264v-70h-264z" />
    <glyph glyph-name="uniE242" unicode="&#xf649;" 
d="M58 0v596h357v-89h-263v-163h263v-90h-263v-164h263v-90h-357zM106 653v70h264v-70h-264z" />
    <glyph glyph-name="uniE243" unicode="&#xe243;" 
d="M58 0v596h357v-89h-263v-163h263v-90h-263v-164h263v-90h-357zM241 646q-79 0 -120 46t-41 118h70q0 -101 91 -103q44 1 67.5 28t23.5 75h71q0 -70 -44 -117t-118 -47z" />
    <glyph glyph-name="uniE243" unicode="&#xf62a;" 
d="M58 0v596h357v-89h-263v-163h263v-90h-263v-164h263v-90h-357zM241 646q-79 0 -120 46t-41 118h70q0 -101 91 -103q44 1 67.5 28t23.5 75h71q0 -70 -44 -117t-118 -47z" />
    <glyph glyph-name="uniE246" unicode="&#xe246;" 
d="M58 0v596h357v-89h-263v-163h263v-90h-263v-164h263v-90h-357zM177 727q0 29 18 46.5t47 17.5q32 0 49 -17t17 -47t-17 -47.5t-49 -17.5q-30 0 -47.5 17.5t-17.5 47.5z" />
    <glyph glyph-name="uniE246" unicode="&#xf648;" 
d="M58 0v596h357v-89h-263v-163h263v-90h-263v-164h263v-90h-357zM177 727q0 29 18 46.5t47 17.5q32 0 49 -17t17 -47t-17 -47.5t-49 -17.5q-30 0 -47.5 17.5t-17.5 47.5z" />
    <glyph glyph-name="uniE249" unicode="&#xe249;" 
d="M58 0v596h357v-89h-263v-163h263v-90h-263v-164h263v-90h-3l2 -1q-80 -51 -102.5 -70.5t-22.5 -41.5q0 -18 15 -28t39 -10q36 0 71 33l65 -44q-64 -57 -136 -57q-61 0 -99 29t-38 74q0 63 81 116h-229z" />
    <glyph glyph-name="uniE249" unicode="&#xf64a;" 
d="M58 0v596h357v-89h-263v-163h263v-90h-263v-164h263v-90h-3l2 -1q-80 -51 -102.5 -70.5t-22.5 -41.5q0 -18 15 -28t39 -10q36 0 71 33l65 -44q-64 -57 -136 -57q-61 0 -99 29t-38 74q0 63 81 116h-229z" />
    <glyph glyph-name="uniE24B" unicode="&#xe24b;" horiz-adv-x="681" 
d="M347 -8q-133 0 -221 90t-88 216q0 129 88.5 217.5t219.5 88.5q90 0 159 -40.5t108 -110.5l-84 -48q-58 109 -183 109q-90 0 -151 -63t-61 -153q0 -91 60.5 -153.5t151.5 -62.5q78 0 128.5 43.5t65.5 115.5h-209v90h312v-38q0 -126 -82 -213.5t-214 -87.5zM191 652
l119 163h69l119 -163h-84l-70 98l-68 -98h-85z" />
    <glyph glyph-name="uniE24B" unicode="&#xf62c;" horiz-adv-x="681" 
d="M347 -8q-133 0 -221 90t-88 216q0 129 88.5 217.5t219.5 88.5q90 0 159 -40.5t108 -110.5l-84 -48q-58 109 -183 109q-90 0 -151 -63t-61 -153q0 -91 60.5 -153.5t151.5 -62.5q78 0 128.5 43.5t65.5 115.5h-209v90h312v-38q0 -126 -82 -213.5t-214 -87.5zM191 652
l119 163h69l119 -163h-84l-70 98l-68 -98h-85z" />
    <glyph glyph-name="uniE24E" unicode="&#xe24e;" horiz-adv-x="681" 
d="M347 -8q-133 0 -221 90t-88 216q0 129 88.5 217.5t219.5 88.5q90 0 159 -40.5t108 -110.5l-84 -48q-58 109 -183 109q-90 0 -151 -63t-61 -153q0 -91 60.5 -153.5t151.5 -62.5q78 0 128.5 43.5t65.5 115.5h-209v90h312v-38q0 -126 -82 -213.5t-214 -87.5zM345 649
q-79 0 -120 46t-41 118h70q0 -101 91 -103q44 1 67.5 28t23.5 75h71q0 -70 -44 -117t-118 -47z" />
    <glyph glyph-name="uniE24E" unicode="&#xf64b;" horiz-adv-x="681" 
d="M347 -8q-133 0 -221 90t-88 216q0 129 88.5 217.5t219.5 88.5q90 0 159 -40.5t108 -110.5l-84 -48q-58 109 -183 109q-90 0 -151 -63t-61 -153q0 -91 60.5 -153.5t151.5 -62.5q78 0 128.5 43.5t65.5 115.5h-209v90h312v-38q0 -126 -82 -213.5t-214 -87.5zM345 649
q-79 0 -120 46t-41 118h70q0 -101 91 -103q44 1 67.5 28t23.5 75h71q0 -70 -44 -117t-118 -47z" />
    <glyph glyph-name="uniE24F" unicode="&#xe24f;" horiz-adv-x="681" 
d="M347 -8q-133 0 -221 90t-88 216q0 129 88.5 217.5t219.5 88.5q90 0 159 -40.5t108 -110.5l-84 -48q-58 109 -183 109q-90 0 -151 -63t-61 -153q0 -91 60.5 -153.5t151.5 -62.5q78 0 128.5 43.5t65.5 115.5h-209v90h312v-38q0 -126 -82 -213.5t-214 -87.5zM282 727
q0 29 18 46.5t47 17.5q32 0 49 -17t17 -47t-17 -47.5t-49 -17.5q-30 0 -47.5 17.5t-17.5 47.5z" />
    <glyph glyph-name="uniE24F" unicode="&#xf62d;" horiz-adv-x="681" 
d="M347 -8q-133 0 -221 90t-88 216q0 129 88.5 217.5t219.5 88.5q90 0 159 -40.5t108 -110.5l-84 -48q-58 109 -183 109q-90 0 -151 -63t-61 -153q0 -91 60.5 -153.5t151.5 -62.5q78 0 128.5 43.5t65.5 115.5h-209v90h312v-38q0 -126 -82 -213.5t-214 -87.5zM282 727
q0 29 18 46.5t47 17.5q32 0 49 -17t17 -47t-17 -47.5t-49 -17.5q-30 0 -47.5 17.5t-17.5 47.5z" />
    <glyph glyph-name="uniE253" unicode="&#xe253;" horiz-adv-x="562" 
d="M410 0v253h-257v-253h-96v596h96v-250h257v250h96v-596h-96zM126 652l119 163h69l119 -163h-84l-70 98l-68 -98h-85z" />
    <glyph glyph-name="uniE253" unicode="&#xf62f;" horiz-adv-x="562" 
d="M410 0v253h-257v-253h-96v596h96v-250h257v250h96v-596h-96zM126 652l119 163h69l119 -163h-84l-70 98l-68 -98h-85z" />
    <glyph glyph-name="uniE257" unicode="&#xe257;" horiz-adv-x="599" 
d="M428 0v246h-257v-246h-95v423h-56v93h56v80h95v-80h257v80h96v-80h55v-93h-55v-423h-96zM171 423v-85h257v85h-257z" />
    <glyph glyph-name="uniE257" unicode="&#xf62e;" horiz-adv-x="599" 
d="M428 0v246h-257v-246h-95v423h-56v93h56v80h95v-80h257v80h96v-80h55v-93h-55v-423h-96zM171 423v-85h257v85h-257z" />
    <glyph glyph-name="uniE258" unicode="&#xe258;" horiz-adv-x="221" 
d="M69 653l116 163h105l-146 -163h-75zM62 0v596h97v-596h-97z" />
    <glyph glyph-name="uniE258" unicode="&#xf7ed;" horiz-adv-x="221" 
d="M69 653l116 163h105l-146 -163h-75zM62 0v596h97v-596h-97z" />
    <glyph glyph-name="uniE259" unicode="&#xe259;" horiz-adv-x="221" 
d="M75 653l-146 163h104l117 -163h-75zM62 0v596h97v-596h-97z" />
    <glyph glyph-name="uniE259" unicode="&#xf7ec;" horiz-adv-x="221" 
d="M75 653l-146 163h104l117 -163h-75zM62 0v596h97v-596h-97z" />
    <glyph glyph-name="uniE25A" unicode="&#xe25a;" horiz-adv-x="221" 
d="M62 0v596h97v-596h-97zM-40 648l119 163h69l119 -163h-84l-70 98l-68 -98h-85z" />
    <glyph glyph-name="uniE25A" unicode="&#xf7ee;" horiz-adv-x="221" 
d="M62 0v596h97v-596h-97zM-40 648l119 163h69l119 -163h-84l-70 98l-68 -98h-85z" />
    <glyph glyph-name="uniE25B" unicode="&#xe25b;" horiz-adv-x="221" 
d="M174 657v138h95v-138h-95zM-39 657v138h95v-138h-95zM62 0v596h97v-596h-97z" />
    <glyph glyph-name="uniE25B" unicode="&#xf7ef;" horiz-adv-x="221" 
d="M174 657v138h95v-138h-95zM-39 657v138h95v-138h-95zM62 0v596h97v-596h-97z" />
    <glyph glyph-name="uniE25C" unicode="&#xe25c;" horiz-adv-x="221" 
d="M62 0v596h97v-596h-97zM8 653h-65q0 56 27 89.5t73 33.5q39 0 80 -27q44 -27 61 -27q36 0 36 50h66q0 -58 -26 -90.5t-75 -32.5q-38 0 -91 32q-36 21 -51 21q-35 0 -35 -49z" />
    <glyph glyph-name="uniE25C" unicode="&#xf632;" horiz-adv-x="221" 
d="M62 0v596h97v-596h-97zM8 653h-65q0 56 27 89.5t73 33.5q39 0 80 -27q44 -27 61 -27q36 0 36 50h66q0 -58 -26 -90.5t-75 -32.5q-38 0 -91 32q-36 21 -51 21q-35 0 -35 -49z" />
    <glyph glyph-name="uniE25E" unicode="&#xe25e;" horiz-adv-x="221" 
d="M-23 653v70h264v-70h-264zM62 0v596h97v-596h-97z" />
    <glyph glyph-name="uniE25E" unicode="&#xf64d;" horiz-adv-x="221" 
d="M-23 653v70h264v-70h-264zM62 0v596h97v-596h-97z" />
    <glyph glyph-name="uniE25F" unicode="&#xe25f;" horiz-adv-x="221" 
d="M62 0v596h97v-596h-97zM110 646q-79 0 -120 46t-41 118h70q0 -101 91 -103q44 1 67.5 28t23.5 75h71q0 -70 -44 -117t-118 -47z" />
    <glyph glyph-name="uniE25F" unicode="&#xf630;" horiz-adv-x="221" 
d="M62 0v596h97v-596h-97zM110 646q-79 0 -120 46t-41 118h70q0 -101 91 -103q44 1 67.5 28t23.5 75h71q0 -70 -44 -117t-118 -47z" />
    <glyph glyph-name="uniE262" unicode="&#xe262;" horiz-adv-x="221" 
d="M62 0v596h97v-596h-97zM45 723q0 29 18 46.5t47 17.5q32 0 49 -17t17 -47t-17 -47.5t-49 -17.5q-30 0 -47.5 17.5t-17.5 47.5z" />
    <glyph glyph-name="uniE262" unicode="&#xf666;" horiz-adv-x="221" 
d="M62 0v596h97v-596h-97zM45 723q0 29 18 46.5t47 17.5q32 0 49 -17t17 -47t-17 -47.5t-49 -17.5q-30 0 -47.5 17.5t-17.5 47.5z" />
    <glyph glyph-name="uniE264" unicode="&#xe264;" horiz-adv-x="221" 
d="M114 -223q-58 0 -90.5 31t-33.5 77q-1 64 72 123v588h97v-596q-89 -64 -89 -110q0 -20 12.5 -31.5t33.5 -11.5q31 0 61 30l55 -52q-55 -48 -118 -48z" />
    <glyph glyph-name="uniE264" unicode="&#xf64e;" horiz-adv-x="221" 
d="M114 -223q-58 0 -90.5 31t-33.5 77q-1 64 72 123v588h97v-596q-89 -64 -89 -110q0 -20 12.5 -31.5t33.5 -11.5q31 0 61 30l55 -52q-55 -48 -118 -48z" />
    <glyph glyph-name="uniE265" unicode="&#xe265;" horiz-adv-x="416" 
d="M193 -8q-64 0 -109 30t-63 81l91 39q21 -62 80 -62q35 0 54.5 23.5t19.5 63.5v429h96v-424q0 -87 -43 -133.5t-126 -46.5zM157 647l119 163h69l119 -163h-84l-70 98l-68 -98h-85z" />
    <glyph glyph-name="uniE265" unicode="&#xf633;" horiz-adv-x="416" 
d="M193 -8q-64 0 -109 30t-63 81l91 39q21 -62 80 -62q35 0 54.5 23.5t19.5 63.5v429h96v-424q0 -87 -43 -133.5t-126 -46.5zM157 647l119 163h69l119 -163h-84l-70 98l-68 -98h-85z" />
    <glyph glyph-name="uniE268" unicode="&#xe268;" horiz-adv-x="541" 
d="M411 0l-173 292l-85 -98v-194h-95v596h95v-282l238 282h116l-200 -237l212 -359h-108zM260 -252h-63l40 204h86z" />
    <glyph glyph-name="uniE268" unicode="&#xf64f;" horiz-adv-x="541" 
d="M411 0l-173 292l-85 -98v-194h-95v596h95v-282l238 282h116l-200 -237l212 -359h-108zM260 -252h-63l40 204h86z" />
    <glyph glyph-name="uniE26B" unicode="&#xe26b;" horiz-adv-x="429" 
d="M57 0v596h96v-504h236v-92h-332zM64 653l116 163h105l-146 -163h-75z" />
    <glyph glyph-name="uniE26B" unicode="&#xf650;" horiz-adv-x="429" 
d="M57 0v596h96v-504h236v-92h-332zM64 653l116 163h105l-146 -163h-75z" />
    <glyph glyph-name="uniE26C" unicode="&#xe26c;" horiz-adv-x="429" 
d="M57 0v596h96v-504h236v-92h-332zM271 420l36 176h82l-56 -176h-62z" />
    <glyph glyph-name="uniE26C" unicode="&#xf651;" horiz-adv-x="429" 
d="M57 0v596h96v-504h236v-92h-332zM271 420l36 176h82l-56 -176h-62z" />
    <glyph glyph-name="uniE26D" unicode="&#xe26d;" horiz-adv-x="429" 
d="M57 0v596h96v-504h236v-92h-332zM207 -256h-63l40 204h86z" />
    <glyph glyph-name="uniE26D" unicode="&#xf652;" horiz-adv-x="429" 
d="M57 0v596h96v-504h236v-92h-332zM207 -256h-63l40 204h86z" />
    <glyph glyph-name="uniE271" unicode="&#xe271;" horiz-adv-x="430" 
d="M57 0v596h96v-504h236v-92h-332zM275 319q0 29 18 46.5t47 17.5q32 0 49 -17t17 -47t-17 -47.5t-49 -17.5q-30 0 -47.5 17.5t-17.5 47.5z" />
    <glyph glyph-name="uniE271" unicode="&#xf634;" horiz-adv-x="430" 
d="M57 0v596h96v-504h236v-92h-332zM275 319q0 29 18 46.5t47 17.5q32 0 49 -17t17 -47t-17 -47.5t-49 -17.5q-30 0 -47.5 17.5t-17.5 47.5z" />
    <glyph glyph-name="uniE272" unicode="&#xe272;" horiz-adv-x="455" 
d="M16 216v76l67 26v278h96v-241l159 61v-76l-159 -61v-187h236v-92h-332v242z" />
    <glyph glyph-name="uniE272" unicode="&#xf6f9;" horiz-adv-x="455" 
d="M16 216v76l67 26v278h96v-241l159 61v-76l-159 -61v-187h236v-92h-332v242z" />
    <glyph glyph-name="uniE276" unicode="&#xe276;" horiz-adv-x="609" 
d="M57 0v596h105l295 -437v437h95v-596h-98l-302 445v-445h-95zM270 647l116 163h105l-146 -163h-75z" />
    <glyph glyph-name="uniE276" unicode="&#xf653;" horiz-adv-x="609" 
d="M57 0v596h105l295 -437v437h95v-596h-98l-302 445v-445h-95zM270 647l116 163h105l-146 -163h-75z" />
    <glyph glyph-name="uniE279" unicode="&#xe279;" horiz-adv-x="609" 
d="M57 0v596h105l295 -437v437h95v-596h-98l-302 445v-445h-95zM202 653h-65q0 56 27 89.5t73 33.5q39 0 80 -27q44 -27 61 -27q36 0 36 50h66q0 -58 -26 -90.5t-75 -32.5q-38 0 -91 32q-36 21 -51 21q-35 0 -35 -49z" />
    <glyph glyph-name="uniE27A" unicode="&#xe27a;" horiz-adv-x="609" 
d="M57 0v596h105l295 -437v437h95v-596h-98l-302 445v-445h-95zM273 645l-119 163h85l68 -98l70 98h84l-119 -163h-69z" />
    <glyph glyph-name="uniE27A" unicode="&#xf654;" horiz-adv-x="609" 
d="M57 0v596h105l295 -437v437h95v-596h-98l-302 445v-445h-95zM273 645l-119 163h85l68 -98l70 98h84l-119 -163h-69z" />
    <glyph glyph-name="uniE27D" unicode="&#xe27d;" horiz-adv-x="609" 
d="M57 0v596h105l295 -437v437h95v-596h-98l-302 445v-445h-95zM295 -255h-63l40 204h86z" />
    <glyph glyph-name="uniE27D" unicode="&#xf655;" horiz-adv-x="609" 
d="M57 0v596h105l295 -437v437h95v-596h-98l-302 445v-445h-95zM295 -255h-63l40 204h86z" />
    <glyph glyph-name="uniE281" unicode="&#xe281;" horiz-adv-x="686" 
d="M343 -8q-127 0 -216 89.5t-89 216.5t89 216.5t216 89.5t216.5 -89.5t89.5 -216.5t-89.5 -216.5t-216.5 -89.5zM343 84q87 0 147.5 63t60.5 151t-60.5 151t-147.5 63t-147.5 -63t-60.5 -151q0 -89 59.5 -151.5t148.5 -62.5zM296 653l116 163h105l-146 -163h-75z" />
    <glyph glyph-name="uniE281" unicode="&#xf7f3;" horiz-adv-x="686" 
d="M343 -8q-127 0 -216 89.5t-89 216.5t89 216.5t216 89.5t216.5 -89.5t89.5 -216.5t-89.5 -216.5t-216.5 -89.5zM343 84q87 0 147.5 63t60.5 151t-60.5 151t-147.5 63t-147.5 -63t-60.5 -151q0 -89 59.5 -151.5t148.5 -62.5zM296 653l116 163h105l-146 -163h-75z" />
    <glyph glyph-name="uniE282" unicode="&#xe282;" horiz-adv-x="686" 
d="M343 -8q-127 0 -216 89.5t-89 216.5t89 216.5t216 89.5t216.5 -89.5t89.5 -216.5t-89.5 -216.5t-216.5 -89.5zM343 84q87 0 147.5 63t60.5 151t-60.5 151t-147.5 63t-147.5 -63t-60.5 -151q0 -89 59.5 -151.5t148.5 -62.5zM311 653l-146 163h104l117 -163h-75z" />
    <glyph glyph-name="uniE282" unicode="&#xf7f2;" horiz-adv-x="686" 
d="M343 -8q-127 0 -216 89.5t-89 216.5t89 216.5t216 89.5t216.5 -89.5t89.5 -216.5t-89.5 -216.5t-216.5 -89.5zM343 84q87 0 147.5 63t60.5 151t-60.5 151t-147.5 63t-147.5 -63t-60.5 -151q0 -89 59.5 -151.5t148.5 -62.5zM311 653l-146 163h104l117 -163h-75z" />
    <glyph glyph-name="uniE283" unicode="&#xe283;" horiz-adv-x="686" 
d="M343 -8q-127 0 -216 89.5t-89 216.5t89 216.5t216 89.5t216.5 -89.5t89.5 -216.5t-89.5 -216.5t-216.5 -89.5zM343 84q87 0 147.5 63t60.5 151t-60.5 151t-147.5 63t-147.5 -63t-60.5 -151q0 -89 59.5 -151.5t148.5 -62.5zM189 651l119 163h69l119 -163h-84l-70 98
l-68 -98h-85z" />
    <glyph glyph-name="uniE283" unicode="&#xf7f4;" horiz-adv-x="686" 
d="M343 -8q-127 0 -216 89.5t-89 216.5t89 216.5t216 89.5t216.5 -89.5t89.5 -216.5t-89.5 -216.5t-216.5 -89.5zM343 84q87 0 147.5 63t60.5 151t-60.5 151t-147.5 63t-147.5 -63t-60.5 -151q0 -89 59.5 -151.5t148.5 -62.5zM189 651l119 163h69l119 -163h-84l-70 98
l-68 -98h-85z" />
    <glyph glyph-name="uniE284" unicode="&#xe284;" horiz-adv-x="686" 
d="M343 -8q-127 0 -216 89.5t-89 216.5t89 216.5t216 89.5t216.5 -89.5t89.5 -216.5t-89.5 -216.5t-216.5 -89.5zM343 84q87 0 147.5 63t60.5 151t-60.5 151t-147.5 63t-147.5 -63t-60.5 -151q0 -89 59.5 -151.5t148.5 -62.5zM183 726q0 28 17 45t46 17q30 0 47 -17t17 -45
q0 -30 -17 -46.5t-47 -16.5t-46.5 17t-16.5 46zM378 726q0 28 17 45t46 17q30 0 47 -17t17 -45q0 -30 -16.5 -46.5t-47.5 -16.5q-30 0 -46.5 17t-16.5 46z" />
    <glyph glyph-name="uniE284" unicode="&#xf7f6;" horiz-adv-x="686" 
d="M343 -8q-127 0 -216 89.5t-89 216.5t89 216.5t216 89.5t216.5 -89.5t89.5 -216.5t-89.5 -216.5t-216.5 -89.5zM343 84q87 0 147.5 63t60.5 151t-60.5 151t-147.5 63t-147.5 -63t-60.5 -151q0 -89 59.5 -151.5t148.5 -62.5zM183 726q0 28 17 45t46 17q30 0 47 -17t17 -45
q0 -30 -17 -46.5t-47 -16.5t-46.5 17t-16.5 46zM378 726q0 28 17 45t46 17q30 0 47 -17t17 -45q0 -30 -16.5 -46.5t-47.5 -16.5q-30 0 -46.5 17t-16.5 46z" />
    <glyph glyph-name="uniE285" unicode="&#xe285;" horiz-adv-x="686" 
d="M343 -8q-127 0 -216 89.5t-89 216.5t89 216.5t216 89.5t216.5 -89.5t89.5 -216.5t-89.5 -216.5t-216.5 -89.5zM343 84q87 0 147.5 63t60.5 151t-60.5 151t-147.5 63t-147.5 -63t-60.5 -151q0 -89 59.5 -151.5t148.5 -62.5zM241 653h-65q0 56 27 89.5t73 33.5q39 0 80 -27
q44 -27 61 -27q36 0 36 50h66q0 -58 -26 -90.5t-75 -32.5q-38 0 -91 32q-36 21 -51 21q-35 0 -35 -49z" />
    <glyph glyph-name="uniE285" unicode="&#xf7f5;" horiz-adv-x="686" 
d="M343 -8q-127 0 -216 89.5t-89 216.5t89 216.5t216 89.5t216.5 -89.5t89.5 -216.5t-89.5 -216.5t-216.5 -89.5zM343 84q87 0 147.5 63t60.5 151t-60.5 151t-147.5 63t-147.5 -63t-60.5 -151q0 -89 59.5 -151.5t148.5 -62.5zM241 653h-65q0 56 27 89.5t73 33.5q39 0 80 -27
q44 -27 61 -27q36 0 36 50h66q0 -58 -26 -90.5t-75 -32.5q-38 0 -91 32q-36 21 -51 21q-35 0 -35 -49z" />
    <glyph glyph-name="uniE287" unicode="&#xe287;" horiz-adv-x="686" 
d="M343 -8q-127 0 -216 89.5t-89 216.5t89 216.5t216 89.5t216.5 -89.5t89.5 -216.5t-89.5 -216.5t-216.5 -89.5zM343 84q87 0 147.5 63t60.5 151t-60.5 151t-147.5 63t-147.5 -63t-60.5 -151q0 -89 59.5 -151.5t148.5 -62.5zM211 653v70h264v-70h-264z" />
    <glyph glyph-name="uniE287" unicode="&#xf657;" horiz-adv-x="686" 
d="M343 -8q-127 0 -216 89.5t-89 216.5t89 216.5t216 89.5t216.5 -89.5t89.5 -216.5t-89.5 -216.5t-216.5 -89.5zM343 84q87 0 147.5 63t60.5 151t-60.5 151t-147.5 63t-147.5 -63t-60.5 -151q0 -89 59.5 -151.5t148.5 -62.5zM211 653v70h264v-70h-264z" />
    <glyph glyph-name="uniE288" unicode="&#xe288;" horiz-adv-x="686" 
d="M343 -8q-127 0 -216 89.5t-89 216.5t89 216.5t216 89.5t216.5 -89.5t89.5 -216.5t-89.5 -216.5t-216.5 -89.5zM343 84q87 0 147.5 63t60.5 151t-60.5 151t-147.5 63t-147.5 -63t-60.5 -151q0 -89 59.5 -151.5t148.5 -62.5zM342 649q-79 0 -120 46t-41 118h70
q0 -101 91 -103q44 1 67.5 28t23.5 75h71q0 -70 -44 -117t-118 -47z" />
    <glyph glyph-name="uniE288" unicode="&#xf635;" horiz-adv-x="686" 
d="M343 -8q-127 0 -216 89.5t-89 216.5t89 216.5t216 89.5t216.5 -89.5t89.5 -216.5t-89.5 -216.5t-216.5 -89.5zM343 84q87 0 147.5 63t60.5 151t-60.5 151t-147.5 63t-147.5 -63t-60.5 -151q0 -89 59.5 -151.5t148.5 -62.5zM342 649q-79 0 -120 46t-41 118h70
q0 -101 91 -103q44 1 67.5 28t23.5 75h71q0 -70 -44 -117t-118 -47z" />
    <glyph glyph-name="uniE28A" unicode="&#xe28a;" horiz-adv-x="686" 
d="M343 -8q-127 0 -216 89.5t-89 216.5t89 216.5t216 89.5t216.5 -89.5t89.5 -216.5t-89.5 -216.5t-216.5 -89.5zM343 84q87 0 147.5 63t60.5 151t-60.5 151t-147.5 63t-147.5 -63t-60.5 -151q0 -89 59.5 -151.5t148.5 -62.5zM228 651l116 163h100l-147 -163h-69zM375 651
l117 163h99l-146 -163h-70z" />
    <glyph glyph-name="uniE28A" unicode="&#xf656;" horiz-adv-x="686" 
d="M343 -8q-127 0 -216 89.5t-89 216.5t89 216.5t216 89.5t216.5 -89.5t89.5 -216.5t-89.5 -216.5t-216.5 -89.5zM343 84q87 0 147.5 63t60.5 151t-60.5 151t-147.5 63t-147.5 -63t-60.5 -151q0 -89 59.5 -151.5t148.5 -62.5zM228 651l116 163h100l-147 -163h-69zM375 651
l117 163h99l-146 -163h-70z" />
    <glyph glyph-name="uniE295" unicode="&#xe295;" horiz-adv-x="686" 
d="M343 -8q-83 0 -154 41l-26 -33h-110l69 86q-84 90 -84 212q0 127 89 216.5t216 89.5q81 0 156 -43l28 35h109l-70 -88q83 -91 83 -210q0 -127 -89.5 -216.5t-216.5 -89.5zM134 298q0 -79 48 -136l257 324q-45 24 -96 24q-88 0 -148.5 -62t-60.5 -150zM343 86
q87 0 147.5 62t60.5 150q0 76 -46 133l-257 -323q43 -22 95 -22z" />
    <glyph glyph-name="uniE295" unicode="&#xf7f8;" horiz-adv-x="686" 
d="M343 -8q-83 0 -154 41l-26 -33h-110l69 86q-84 90 -84 212q0 127 89 216.5t216 89.5q81 0 156 -43l28 35h109l-70 -88q83 -91 83 -210q0 -127 -89.5 -216.5t-216.5 -89.5zM134 298q0 -79 48 -136l257 324q-45 24 -96 24q-88 0 -148.5 -62t-60.5 -150zM343 86
q87 0 147.5 62t60.5 150q0 76 -46 133l-257 -323q43 -22 95 -22z" />
    <glyph glyph-name="uniE296" unicode="&#xe296;" horiz-adv-x="687" 
d="M343 -8q-83 0 -154 41l-26 -33h-110l69 86q-84 90 -84 212q0 127 89 216.5t216 89.5q81 0 156 -43l28 35h109l-70 -88q83 -91 83 -210q0 -127 -89.5 -216.5t-216.5 -89.5zM134 298q0 -79 48 -136l257 324q-45 24 -96 24q-88 0 -148.5 -62t-60.5 -150zM343 86
q87 0 147.5 62t60.5 150q0 76 -46 133l-257 -323q43 -22 95 -22zM296 653l116 163h105l-146 -163h-75z" />
    <glyph glyph-name="uniE296" unicode="&#xf627;" horiz-adv-x="687" 
d="M343 -8q-83 0 -154 41l-26 -33h-110l69 86q-84 90 -84 212q0 127 89 216.5t216 89.5q81 0 156 -43l28 35h109l-70 -88q83 -91 83 -210q0 -127 -89.5 -216.5t-216.5 -89.5zM134 298q0 -79 48 -136l257 324q-45 24 -96 24q-88 0 -148.5 -62t-60.5 -150zM343 86
q87 0 147.5 62t60.5 150q0 76 -46 133l-257 -323q43 -22 95 -22zM296 653l116 163h105l-146 -163h-75z" />
    <glyph glyph-name="uniE298" unicode="&#xe298;" horiz-adv-x="956" 
d="M553 0v85q-80 -93 -210 -93q-127 0 -216 89.5t-89 216.5t89 216.5t216 89.5q129 0 210 -94v86h357v-89h-263v-163h263v-90h-263v-164h263v-90h-357zM343 84q87 0 147.5 63t60.5 151t-60.5 151t-147.5 63t-147.5 -63t-60.5 -151q0 -89 59.5 -151.5t148.5 -62.5z" />
    <glyph glyph-name="uniE298" unicode="&#xf6fa;" horiz-adv-x="956" 
d="M553 0v85q-80 -93 -210 -93q-127 0 -216 89.5t-89 216.5t89 216.5t216 89.5q129 0 210 -94v86h357v-89h-263v-163h263v-90h-263v-164h263v-90h-357zM343 84q87 0 147.5 63t60.5 151t-60.5 151t-147.5 63t-147.5 -63t-60.5 -151q0 -89 59.5 -151.5t148.5 -62.5z" />
    <glyph glyph-name="uniE29A" unicode="&#xe29a;" horiz-adv-x="501" 
d="M57 0v596h194q94 0 153 -56.5t59 -139.5q0 -61 -34 -109.5t-96 -68.5l141 -222h-111l-175 288h53q57 0 90 34t33 77q0 50 -30.5 79.5t-88.5 29.5h-92v-508h-96zM193 653l116 163h105l-146 -163h-75z" />
    <glyph glyph-name="uniE29A" unicode="&#xf658;" horiz-adv-x="501" 
d="M57 0v596h194q94 0 153 -56.5t59 -139.5q0 -61 -34 -109.5t-96 -68.5l141 -222h-111l-175 288h53q57 0 90 34t33 77q0 50 -30.5 79.5t-88.5 29.5h-92v-508h-96zM193 653l116 163h105l-146 -163h-75z" />
    <glyph glyph-name="uniE29B" unicode="&#xe29b;" horiz-adv-x="501" 
d="M57 0v596h194q94 0 153 -56.5t59 -139.5q0 -61 -34 -109.5t-96 -68.5l141 -222h-111l-175 288h53q57 0 90 34t33 77q0 50 -30.5 79.5t-88.5 29.5h-92v-508h-96zM219 653l-119 163h85l68 -98l70 98h84l-119 -163h-69z" />
    <glyph glyph-name="uniE29B" unicode="&#xf659;" horiz-adv-x="501" 
d="M57 0v596h194q94 0 153 -56.5t59 -139.5q0 -61 -34 -109.5t-96 -68.5l141 -222h-111l-175 288h53q57 0 90 34t33 77q0 50 -30.5 79.5t-88.5 29.5h-92v-508h-96zM219 653l-119 163h85l68 -98l70 98h84l-119 -163h-69z" />
    <glyph glyph-name="uniE29E" unicode="&#xe29e;" horiz-adv-x="501" 
d="M57 0v596h194q94 0 153 -56.5t59 -139.5q0 -61 -34 -109.5t-96 -68.5l141 -222h-111l-175 288h53q57 0 90 34t33 77q0 50 -30.5 79.5t-88.5 29.5h-92v-508h-96zM237 -255h-63l40 204h86z" />
    <glyph glyph-name="uniE29E" unicode="&#xf65a;" horiz-adv-x="501" 
d="M57 0v596h194q94 0 153 -56.5t59 -139.5q0 -61 -34 -109.5t-96 -68.5l141 -222h-111l-175 288h53q57 0 90 34t33 77q0 50 -30.5 79.5t-88.5 29.5h-92v-508h-96zM237 -255h-63l40 204h86z" />
    <glyph glyph-name="uniE300" unicode="&#xe300;" horiz-adv-x="532" 
d="M266 -8q-95 0 -153.5 56.5t-58.5 153.5v394h96v-398q0 -54 32 -86t84 -32q51 0 83.5 32.5t32.5 86.5v397h96v-394q0 -97 -59 -153.5t-153 -56.5zM110 653l119 163h69l119 -163h-84l-70 98l-68 -98h-85z" />
    <glyph glyph-name="uniE300" unicode="&#xf7fb;" horiz-adv-x="532" 
d="M266 -8q-95 0 -153.5 56.5t-58.5 153.5v394h96v-398q0 -54 32 -86t84 -32q51 0 83.5 32.5t32.5 86.5v397h96v-394q0 -97 -59 -153.5t-153 -56.5zM110 653l119 163h69l119 -163h-84l-70 98l-68 -98h-85z" />
    <glyph glyph-name="uniE302" unicode="&#xe302;" horiz-adv-x="480" 
d="M193 653l116 163h105l-146 -163h-75zM239 -8q-135 0 -221 105l84 66q50 -82 136 -82q47 0 75.5 25.5t28.5 64.5q0 17 -8 31t-17.5 22.5t-30.5 18t-34 13.5l-41 13q-40 14 -61.5 23t-50.5 28.5t-42.5 48.5t-13.5 69q0 72 54.5 119.5t136.5 47.5q121 0 196 -89l-77 -59
q-40 64 -118 64q-42 0 -68.5 -22.5t-26.5 -56.5q0 -9 2 -17t7 -15.5t9 -12.5t14 -10.5t15 -9t19 -9t19.5 -7.5t22.5 -7.5t22 -7.5q36 -11 61.5 -22t53.5 -30.5t42.5 -50t14.5 -70.5q0 -74 -56 -127.5t-147 -53.5z" />
    <glyph glyph-name="uniE302" unicode="&#xf65b;" horiz-adv-x="480" 
d="M193 653l116 163h105l-146 -163h-75zM239 -8q-135 0 -221 105l84 66q50 -82 136 -82q47 0 75.5 25.5t28.5 64.5q0 17 -8 31t-17.5 22.5t-30.5 18t-34 13.5l-41 13q-40 14 -61.5 23t-50.5 28.5t-42.5 48.5t-13.5 69q0 72 54.5 119.5t136.5 47.5q121 0 196 -89l-77 -59
q-40 64 -118 64q-42 0 -68.5 -22.5t-26.5 -56.5q0 -9 2 -17t7 -15.5t9 -12.5t14 -10.5t15 -9t19 -9t19.5 -7.5t22.5 -7.5t22 -7.5q36 -11 61.5 -22t53.5 -30.5t42.5 -50t14.5 -70.5q0 -74 -56 -127.5t-147 -53.5z" />
    <glyph glyph-name="uniE303" unicode="&#xe303;" horiz-adv-x="480" 
d="M239 -8q-135 0 -221 105l84 66q50 -82 136 -82q47 0 75.5 25.5t28.5 64.5q0 17 -8 31t-17.5 22.5t-30.5 18t-34 13.5l-41 13q-40 14 -61.5 23t-50.5 28.5t-42.5 48.5t-13.5 69q0 72 54.5 119.5t136.5 47.5q121 0 196 -89l-77 -59q-40 64 -118 64q-42 0 -68.5 -22.5
t-26.5 -56.5q0 -9 2 -17t7 -15.5t9 -12.5t14 -10.5t15 -9t19 -9t19.5 -7.5t22.5 -7.5t22 -7.5q36 -11 61.5 -22t53.5 -30.5t42.5 -50t14.5 -70.5q0 -74 -56 -127.5t-147 -53.5zM85 652l119 163h69l119 -163h-84l-70 98l-68 -98h-85z" />
    <glyph glyph-name="uniE303" unicode="&#xf636;" horiz-adv-x="480" 
d="M239 -8q-135 0 -221 105l84 66q50 -82 136 -82q47 0 75.5 25.5t28.5 64.5q0 17 -8 31t-17.5 22.5t-30.5 18t-34 13.5l-41 13q-40 14 -61.5 23t-50.5 28.5t-42.5 48.5t-13.5 69q0 72 54.5 119.5t136.5 47.5q121 0 196 -89l-77 -59q-40 64 -118 64q-42 0 -68.5 -22.5
t-26.5 -56.5q0 -9 2 -17t7 -15.5t9 -12.5t14 -10.5t15 -9t19 -9t19.5 -7.5t22.5 -7.5t22 -7.5q36 -11 61.5 -22t53.5 -30.5t42.5 -50t14.5 -70.5q0 -74 -56 -127.5t-147 -53.5zM85 652l119 163h69l119 -163h-84l-70 98l-68 -98h-85z" />
    <glyph glyph-name="uniE304" unicode="&#xe304;" horiz-adv-x="480" 
d="M239 -8q-135 0 -221 105l84 66q50 -82 136 -82q47 0 75.5 25.5t28.5 64.5q0 17 -8 31t-17.5 22.5t-30.5 18t-34 13.5l-41 13q-40 14 -61.5 23t-50.5 28.5t-42.5 48.5t-13.5 69q0 72 54.5 119.5t136.5 47.5q121 0 196 -89l-77 -59q-40 64 -118 64q-42 0 -68.5 -22.5
t-26.5 -56.5q0 -9 2 -17t7 -15.5t9 -12.5t14 -10.5t15 -9t19 -9t19.5 -7.5t22.5 -7.5t22 -7.5q36 -11 61.5 -22t53.5 -30.5t42.5 -50t14.5 -70.5q0 -74 -56 -127.5t-147 -53.5zM206 653l-119 163h85l68 -98l70 98h84l-119 -163h-69z" />
    <glyph glyph-name="uniE304" unicode="&#xf6fd;" horiz-adv-x="480" 
d="M239 -8q-135 0 -221 105l84 66q50 -82 136 -82q47 0 75.5 25.5t28.5 64.5q0 17 -8 31t-17.5 22.5t-30.5 18t-34 13.5l-41 13q-40 14 -61.5 23t-50.5 28.5t-42.5 48.5t-13.5 69q0 72 54.5 119.5t136.5 47.5q121 0 196 -89l-77 -59q-40 64 -118 64q-42 0 -68.5 -22.5
t-26.5 -56.5q0 -9 2 -17t7 -15.5t9 -12.5t14 -10.5t15 -9t19 -9t19.5 -7.5t22.5 -7.5t22 -7.5q36 -11 61.5 -22t53.5 -30.5t42.5 -50t14.5 -70.5q0 -74 -56 -127.5t-147 -53.5zM206 653l-119 163h85l68 -98l70 98h84l-119 -163h-69z" />
    <glyph glyph-name="uniE305" unicode="&#xe305;" horiz-adv-x="480" 
d="M218 -254h-63l40 204h86zM239 -8q-135 0 -221 105l84 66q50 -82 136 -82q47 0 75.5 25.5t28.5 64.5q0 17 -8 31t-17.5 22.5t-30.5 18t-34 13.5l-41 13q-40 14 -61.5 23t-50.5 28.5t-42.5 48.5t-13.5 69q0 72 54.5 119.5t136.5 47.5q121 0 196 -89l-77 -59q-40 64 -118 64
q-42 0 -68.5 -22.5t-26.5 -56.5q0 -9 2 -17t7 -15.5t9 -12.5t14 -10.5t15 -9t19 -9t19.5 -7.5t22.5 -7.5t22 -7.5q36 -11 61.5 -22t53.5 -30.5t42.5 -50t14.5 -70.5q0 -74 -56 -127.5t-147 -53.5z" />
    <glyph glyph-name="uniE305" unicode="&#xf65d;" horiz-adv-x="480" 
d="M218 -254h-63l40 204h86zM239 -8q-135 0 -221 105l84 66q50 -82 136 -82q47 0 75.5 25.5t28.5 64.5q0 17 -8 31t-17.5 22.5t-30.5 18t-34 13.5l-41 13q-40 14 -61.5 23t-50.5 28.5t-42.5 48.5t-13.5 69q0 72 54.5 119.5t136.5 47.5q121 0 196 -89l-77 -59q-40 64 -118 64
q-42 0 -68.5 -22.5t-26.5 -56.5q0 -9 2 -17t7 -15.5t9 -12.5t14 -10.5t15 -9t19 -9t19.5 -7.5t22.5 -7.5t22 -7.5q36 -11 61.5 -22t53.5 -30.5t42.5 -50t14.5 -70.5q0 -74 -56 -127.5t-147 -53.5z" />
    <glyph glyph-name="uniE306" unicode="&#xe306;" horiz-adv-x="480" 
d="M231 -235q-82 0 -143 56l64 39q42 -35 84 -35q27 0 46 11t19 28q0 34 -68 34h-43v98q-103 15 -172 101l84 66q50 -82 136 -82q47 0 75.5 25.5t28.5 64.5q0 17 -8 31t-17.5 22.5t-30.5 18t-34 13.5l-41 13q-40 14 -61.5 23t-50.5 28.5t-42.5 48.5t-13.5 69
q0 72 54.5 119.5t136.5 47.5q121 0 196 -89l-77 -59q-40 64 -118 64q-42 0 -68.5 -22.5t-26.5 -56.5q0 -9 2 -17t7 -15.5t9 -12.5t14 -10.5t15 -9t19 -9t19.5 -7.5t22.5 -7.5t22 -7.5q36 -11 61.5 -22t53.5 -30.5t42.5 -50t14.5 -70.5q0 -70 -50 -122t-133 -58v-46
q53 1 85.5 -21.5t32.5 -58.5q0 -44 -42.5 -73t-103.5 -29z" />
    <glyph glyph-name="uniE306" unicode="&#xf65c;" horiz-adv-x="480" 
d="M231 -235q-82 0 -143 56l64 39q42 -35 84 -35q27 0 46 11t19 28q0 34 -68 34h-43v98q-103 15 -172 101l84 66q50 -82 136 -82q47 0 75.5 25.5t28.5 64.5q0 17 -8 31t-17.5 22.5t-30.5 18t-34 13.5l-41 13q-40 14 -61.5 23t-50.5 28.5t-42.5 48.5t-13.5 69
q0 72 54.5 119.5t136.5 47.5q121 0 196 -89l-77 -59q-40 64 -118 64q-42 0 -68.5 -22.5t-26.5 -56.5q0 -9 2 -17t7 -15.5t9 -12.5t14 -10.5t15 -9t19 -9t19.5 -7.5t22.5 -7.5t22 -7.5q36 -11 61.5 -22t53.5 -30.5t42.5 -50t14.5 -70.5q0 -70 -50 -122t-133 -58v-46
q53 1 85.5 -21.5t32.5 -58.5q0 -44 -42.5 -73t-103.5 -29z" />
    <glyph glyph-name="uniE309" unicode="&#xe309;" horiz-adv-x="504" 
d="M207 0v506h-167v90h427v-90h-166v-506h-94zM219 653l-119 163h85l68 -98l70 98h84l-119 -163h-69z" />
    <glyph glyph-name="uniE309" unicode="&#xf65e;" horiz-adv-x="504" 
d="M207 0v506h-167v90h427v-90h-166v-506h-94zM219 653l-119 163h85l68 -98l70 98h84l-119 -163h-69z" />
    <glyph glyph-name="uniE30A" unicode="&#xe30a;" horiz-adv-x="504" 
d="M234 -260h-63l40 204h86zM207 0v506h-167v90h427v-90h-166v-506h-94z" />
    <glyph glyph-name="uniE30A" unicode="&#xf65f;" horiz-adv-x="504" 
d="M234 -260h-63l40 204h86zM207 0v506h-167v90h427v-90h-166v-506h-94z" />
    <glyph glyph-name="uniE30D" unicode="&#xe30d;" horiz-adv-x="504" 
d="M402 246h-102v-246h-94v246h-103v90h103v170h-167v90h427v-90h-166v-170h102v-90z" />
    <glyph glyph-name="uniE30D" unicode="&#xf637;" horiz-adv-x="504" 
d="M402 246h-102v-246h-94v246h-103v90h103v170h-167v90h427v-90h-166v-170h102v-90z" />
    <glyph glyph-name="uniE30E" unicode="&#xe30e;" horiz-adv-x="532" 
d="M212 647l116 163h105l-146 -163h-75zM266 -8q-95 0 -153.5 56.5t-58.5 153.5v394h96v-398q0 -54 32 -86t84 -32q51 0 83.5 32.5t32.5 86.5v397h96v-394q0 -97 -59 -153.5t-153 -56.5z" />
    <glyph glyph-name="uniE30E" unicode="&#xf7fa;" horiz-adv-x="532" 
d="M212 647l116 163h105l-146 -163h-75zM266 -8q-95 0 -153.5 56.5t-58.5 153.5v394h96v-398q0 -54 32 -86t84 -32q51 0 83.5 32.5t32.5 86.5v397h96v-394q0 -97 -59 -153.5t-153 -56.5z" />
    <glyph glyph-name="uniE30F" unicode="&#xe30f;" horiz-adv-x="532" 
d="M266 -8q-95 0 -153.5 56.5t-58.5 153.5v394h96v-398q0 -54 32 -86t84 -32q51 0 83.5 32.5t32.5 86.5v397h96v-394q0 -97 -59 -153.5t-153 -56.5zM231 645l-146 163h104l117 -163h-75z" />
    <glyph glyph-name="uniE30F" unicode="&#xf7f9;" horiz-adv-x="532" 
d="M266 -8q-95 0 -153.5 56.5t-58.5 153.5v394h96v-398q0 -54 32 -86t84 -32q51 0 83.5 32.5t32.5 86.5v397h96v-394q0 -97 -59 -153.5t-153 -56.5zM231 645l-146 163h104l117 -163h-75z" />
    <glyph glyph-name="uniE310" unicode="&#xe310;" horiz-adv-x="865" 
d="M195 0l-169 596h100l120 -445l138 445h93l138 -449l128 449h96l-175 -596h-96l-137 448l-138 -448h-98zM272 727q0 28 17 45t46 17q30 0 47 -17t17 -45q0 -29 -16.5 -46t-47.5 -17q-30 0 -46.5 17t-16.5 46zM467 727q0 28 17 45t46 17q30 0 47 -17t17 -45q0 -29 -17 -46
t-47 -17t-46.5 17t-16.5 46z" />
    <glyph glyph-name="uniE310" unicode="&#xf63c;" horiz-adv-x="865" 
d="M195 0l-169 596h100l120 -445l138 445h93l138 -449l128 449h96l-175 -596h-96l-137 448l-138 -448h-98zM272 727q0 28 17 45t46 17q30 0 47 -17t17 -45q0 -29 -16.5 -46t-47.5 -17q-30 0 -46.5 17t-16.5 46zM467 727q0 28 17 45t46 17q30 0 47 -17t17 -45q0 -29 -17 -46
t-47 -17t-46.5 17t-16.5 46z" />
    <glyph glyph-name="uniE311" unicode="&#xe311;" horiz-adv-x="532" 
d="M106 727q0 28 17 45t46 17q30 0 47 -17t17 -45q0 -29 -16.5 -46t-47.5 -17q-30 0 -46.5 17t-16.5 46zM301 727q0 28 17 45t46 17q30 0 47 -17t17 -45q0 -29 -17 -46t-47 -17t-46.5 17t-16.5 46zM266 -8q-95 0 -153.5 56.5t-58.5 153.5v394h96v-398q0 -54 32 -86t84 -32
q51 0 83.5 32.5t32.5 86.5v397h96v-394q0 -97 -59 -153.5t-153 -56.5z" />
    <glyph glyph-name="uniE311" unicode="&#xf7fc;" horiz-adv-x="532" 
d="M106 727q0 28 17 45t46 17q30 0 47 -17t17 -45q0 -29 -16.5 -46t-47.5 -17q-30 0 -46.5 17t-16.5 46zM301 727q0 28 17 45t46 17q30 0 47 -17t17 -45q0 -29 -17 -46t-47 -17t-46.5 17t-16.5 46zM266 -8q-95 0 -153.5 56.5t-58.5 153.5v394h96v-398q0 -54 32 -86t84 -32
q51 0 83.5 32.5t32.5 86.5v397h96v-394q0 -97 -59 -153.5t-153 -56.5z" />
    <glyph glyph-name="uniE312" unicode="&#xe312;" horiz-adv-x="532" 
d="M266 -8q-95 0 -153.5 56.5t-58.5 153.5v394h96v-398q0 -54 32 -86t84 -32q51 0 83.5 32.5t32.5 86.5v397h96v-394q0 -97 -59 -153.5t-153 -56.5zM157 653h-65q0 56 27 89.5t73 33.5q39 0 80 -27q44 -27 61 -27q36 0 36 50h66q0 -58 -26 -90.5t-75 -32.5q-38 0 -91 32
q-36 21 -51 21q-35 0 -35 -49z" />
    <glyph glyph-name="uniE312" unicode="&#xf639;" horiz-adv-x="532" 
d="M266 -8q-95 0 -153.5 56.5t-58.5 153.5v394h96v-398q0 -54 32 -86t84 -32q51 0 83.5 32.5t32.5 86.5v397h96v-394q0 -97 -59 -153.5t-153 -56.5zM157 653h-65q0 56 27 89.5t73 33.5q39 0 80 -27q44 -27 61 -27q36 0 36 50h66q0 -58 -26 -90.5t-75 -32.5q-38 0 -91 32
q-36 21 -51 21q-35 0 -35 -49z" />
    <glyph glyph-name="uniE313" unicode="&#xe313;" horiz-adv-x="532" 
d="M266 -8q-95 0 -153.5 56.5t-58.5 153.5v394h96v-398q0 -54 32 -86t84 -32q51 0 83.5 32.5t32.5 86.5v397h96v-394q0 -97 -59 -153.5t-153 -56.5zM264 641q-45 0 -76.5 31.5t-31.5 77.5t31.5 78t76.5 32q46 0 78.5 -32t32.5 -78t-32 -77.5t-79 -31.5zM264 704
q20 0 33.5 13t13.5 33q0 19 -13.5 33t-33.5 14q-19 0 -32.5 -14t-13.5 -33q0 -20 13.5 -33t32.5 -13z" />
    <glyph glyph-name="uniE313" unicode="&#xf663;" horiz-adv-x="532" 
d="M266 -8q-95 0 -153.5 56.5t-58.5 153.5v394h96v-398q0 -54 32 -86t84 -32q51 0 83.5 32.5t32.5 86.5v397h96v-394q0 -97 -59 -153.5t-153 -56.5zM264 641q-45 0 -76.5 31.5t-31.5 77.5t31.5 78t76.5 32q46 0 78.5 -32t32.5 -78t-32 -77.5t-79 -31.5zM264 704
q20 0 33.5 13t13.5 33q0 19 -13.5 33t-33.5 14q-19 0 -32.5 -14t-13.5 -33q0 -20 13.5 -33t32.5 -13z" />
    <glyph glyph-name="uniE315" unicode="&#xe315;" horiz-adv-x="532" 
d="M266 -8q-95 0 -153.5 56.5t-58.5 153.5v394h96v-398q0 -54 32 -86t84 -32q51 0 83.5 32.5t32.5 86.5v397h96v-394q0 -97 -59 -153.5t-153 -56.5zM135 653v70h264v-70h-264z" />
    <glyph glyph-name="uniE315" unicode="&#xf661;" horiz-adv-x="532" 
d="M266 -8q-95 0 -153.5 56.5t-58.5 153.5v394h96v-398q0 -54 32 -86t84 -32q51 0 83.5 32.5t32.5 86.5v397h96v-394q0 -97 -59 -153.5t-153 -56.5zM135 653v70h264v-70h-264z" />
    <glyph glyph-name="uniE316" unicode="&#xe316;" horiz-adv-x="532" 
d="M266 -8q-95 0 -153.5 56.5t-58.5 153.5v394h96v-398q0 -54 32 -86t84 -32q51 0 83.5 32.5t32.5 86.5v397h96v-394q0 -97 -59 -153.5t-153 -56.5zM267 642q-79 0 -120 46t-41 118h70q0 -101 91 -103q44 1 67.5 28t23.5 75h71q0 -70 -44 -117t-118 -47z" />
    <glyph glyph-name="uniE316" unicode="&#xf638;" horiz-adv-x="532" 
d="M266 -8q-95 0 -153.5 56.5t-58.5 153.5v394h96v-398q0 -54 32 -86t84 -32q51 0 83.5 32.5t32.5 86.5v397h96v-394q0 -97 -59 -153.5t-153 -56.5zM267 642q-79 0 -120 46t-41 118h70q0 -101 91 -103q44 1 67.5 28t23.5 75h71q0 -70 -44 -117t-118 -47z" />
    <glyph glyph-name="uniE318" unicode="&#xe318;" horiz-adv-x="532" 
d="M266 -8q-95 0 -153.5 56.5t-58.5 153.5v394h96v-398q0 -54 32 -86t84 -32q51 0 83.5 32.5t32.5 86.5v397h96v-394q0 -97 -59 -153.5t-153 -56.5zM141 649l116 163h100l-147 -163h-69zM288 649l117 163h99l-146 -163h-70z" />
    <glyph glyph-name="uniE318" unicode="&#xf660;" horiz-adv-x="532" 
d="M266 -8q-95 0 -153.5 56.5t-58.5 153.5v394h96v-398q0 -54 32 -86t84 -32q51 0 83.5 32.5t32.5 86.5v397h96v-394q0 -97 -59 -153.5t-153 -56.5zM141 649l116 163h100l-147 -163h-69zM288 649l117 163h99l-146 -163h-70z" />
    <glyph glyph-name="uniE31B" unicode="&#xe31b;" horiz-adv-x="532" 
d="M291 -208q-61 0 -99 29t-38 74q0 57 61 102q-75 15 -118 68t-43 137v394h96v-398q0 -54 32 -86t84 -32q51 0 83.5 32.5t32.5 86.5v397h96v-394q0 -142 -117 -192h1q-80 -51 -102.5 -70.5t-22.5 -41.5q0 -18 15 -28t39 -10q36 0 71 33l65 -44q-64 -57 -136 -57z" />
    <glyph glyph-name="uniE31B" unicode="&#xf662;" horiz-adv-x="532" 
d="M291 -208q-61 0 -99 29t-38 74q0 57 61 102q-75 15 -118 68t-43 137v394h96v-398q0 -54 32 -86t84 -32q51 0 83.5 32.5t32.5 86.5v397h96v-394q0 -142 -117 -192h1q-80 -51 -102.5 -70.5t-22.5 -41.5q0 -18 15 -28t39 -10q36 0 71 33l65 -44q-64 -57 -136 -57z" />
    <glyph glyph-name="uniE31D" unicode="&#xe31d;" horiz-adv-x="865" 
d="M195 0l-169 596h100l120 -445l138 445h93l138 -449l128 449h96l-175 -596h-96l-137 448l-138 -448h-98zM393 653l116 163h105l-146 -163h-75z" />
    <glyph glyph-name="uniE31D" unicode="&#xf63a;" horiz-adv-x="865" 
d="M195 0l-169 596h100l120 -445l138 445h93l138 -449l128 449h96l-175 -596h-96l-137 448l-138 -448h-98zM393 653l116 163h105l-146 -163h-75z" />
    <glyph glyph-name="uniE31E" unicode="&#xe31e;" horiz-adv-x="865" 
d="M195 0l-169 596h100l120 -445l138 445h93l138 -449l128 449h96l-175 -596h-96l-137 448l-138 -448h-98zM394 653l-146 163h104l117 -163h-75z" />
    <glyph glyph-name="uniE31E" unicode="&#xf63d;" horiz-adv-x="865" 
d="M195 0l-169 596h100l120 -445l138 445h93l138 -449l128 449h96l-175 -596h-96l-137 448l-138 -448h-98zM394 653l-146 163h104l117 -163h-75z" />
    <glyph glyph-name="uniE31F" unicode="&#xe31f;" horiz-adv-x="865" 
d="M195 0l-169 596h100l120 -445l138 445h93l138 -449l128 449h96l-175 -596h-96l-137 448l-138 -448h-98zM278 648l119 163h69l119 -163h-84l-70 98l-68 -98h-85z" />
    <glyph glyph-name="uniE31F" unicode="&#xf63b;" horiz-adv-x="865" 
d="M195 0l-169 596h100l120 -445l138 445h93l138 -449l128 449h96l-175 -596h-96l-137 448l-138 -448h-98zM278 648l119 163h69l119 -163h-84l-70 98l-68 -98h-85z" />
    <glyph glyph-name="uniE321" unicode="&#xe321;" horiz-adv-x="529" 
d="M217 0v281l-193 315h105l135 -223l137 223h105l-193 -315v-281h-96zM219 645l116 163h105l-146 -163h-75z" />
    <glyph glyph-name="uniE321" unicode="&#xf7fd;" horiz-adv-x="529" 
d="M217 0v281l-193 315h105l135 -223l137 223h105l-193 -315v-281h-96zM219 645l116 163h105l-146 -163h-75z" />
    <glyph glyph-name="uniE322" unicode="&#xe322;" horiz-adv-x="529" 
d="M217 0v281l-193 315h105l135 -223l137 223h105l-193 -315v-281h-96zM236 645l-146 163h104l117 -163h-75z" />
    <glyph glyph-name="uniE322" unicode="&#xf63f;" horiz-adv-x="529" 
d="M217 0v281l-193 315h105l135 -223l137 223h105l-193 -315v-281h-96zM236 645l-146 163h104l117 -163h-75z" />
    <glyph glyph-name="uniE323" unicode="&#xe323;" horiz-adv-x="529" 
d="M217 0v281l-193 315h105l135 -223l137 223h105l-193 -315v-281h-96zM110 652l119 163h69l119 -163h-84l-70 98l-68 -98h-85z" />
    <glyph glyph-name="uniE323" unicode="&#xf63e;" horiz-adv-x="529" 
d="M217 0v281l-193 315h105l135 -223l137 223h105l-193 -315v-281h-96zM110 652l119 163h69l119 -163h-84l-70 98l-68 -98h-85z" />
    <glyph glyph-name="uniE324" unicode="&#xe324;" horiz-adv-x="529" 
d="M217 0v281l-193 315h105l135 -223l137 223h105l-193 -315v-281h-96zM104 723q0 28 17 45t46 17q30 0 47 -17t17 -45q0 -29 -16.5 -46t-47.5 -17q-30 0 -46.5 17t-16.5 46zM299 723q0 28 17 45t46 17q30 0 47 -17t17 -45q0 -29 -17 -46t-47 -17t-46.5 17t-16.5 46z" />
    <glyph glyph-name="uniE324" unicode="&#xf7ff;" horiz-adv-x="529" 
d="M217 0v281l-193 315h105l135 -223l137 223h105l-193 -315v-281h-96zM104 723q0 28 17 45t46 17q30 0 47 -17t17 -45q0 -29 -16.5 -46t-47.5 -17q-30 0 -46.5 17t-16.5 46zM299 723q0 28 17 45t46 17q30 0 47 -17t17 -45q0 -29 -17 -46t-47 -17t-46.5 17t-16.5 46z" />
    <glyph glyph-name="uniE327" unicode="&#xe327;" horiz-adv-x="457" 
d="M215 0v88h17q44 1 60 20.5t16 66.5v421h96v-418q0 -96 -37.5 -137t-132.5 -41h-19zM53 0v596h96v-596h-96z" />
    <glyph glyph-name="uniE327" unicode="&#xf631;" horiz-adv-x="457" 
d="M215 0v88h17q44 1 60 20.5t16 66.5v421h96v-418q0 -96 -37.5 -137t-132.5 -41h-19zM53 0v596h96v-596h-96z" />
    <glyph glyph-name="uniE328" unicode="&#xe328;" horiz-adv-x="478" 
d="M42 0v88l281 419h-274v89h387v-87l-284 -419h284v-90h-394zM188 653l116 163h105l-146 -163h-75z" />
    <glyph glyph-name="uniE328" unicode="&#xf664;" horiz-adv-x="478" 
d="M42 0v88l281 419h-274v89h387v-87l-284 -419h284v-90h-394zM188 653l116 163h105l-146 -163h-75z" />
    <glyph glyph-name="uniE329" unicode="&#xe329;" horiz-adv-x="478" 
d="M42 0v88l281 419h-274v89h387v-87l-284 -419h284v-90h-394zM207 653l-119 163h85l68 -98l70 98h84l-119 -163h-69z" />
    <glyph glyph-name="uniE329" unicode="&#xf6ff;" horiz-adv-x="478" 
d="M42 0v88l281 419h-274v89h387v-87l-284 -419h284v-90h-394zM207 653l-119 163h85l68 -98l70 98h84l-119 -163h-69z" />
    <glyph glyph-name="uniE32A" unicode="&#xe32a;" horiz-adv-x="478" 
d="M42 0v88l281 419h-274v89h387v-87l-284 -419h284v-90h-394zM178 727q0 29 18 46.5t47 17.5q32 0 49 -17t17 -47t-17 -47.5t-49 -17.5q-30 0 -47.5 17.5t-17.5 47.5z" />
    <glyph glyph-name="uniE32A" unicode="&#xf665;" horiz-adv-x="478" 
d="M42 0v88l281 419h-274v89h387v-87l-284 -419h284v-90h-394zM178 727q0 29 18 46.5t47 17.5q32 0 49 -17t17 -47t-17 -47.5t-49 -17.5q-30 0 -47.5 17.5t-17.5 47.5z" />
    <glyph glyph-name="uniE32B" unicode="&#xe32b;" horiz-adv-x="609" 
d="M343 -230v91q72 0 92.5 19t20.5 90v30l-304 446v-446h-95v596h105l295 -434v434h95v-627q0 -114 -42 -156.5t-153 -42.5h-14z" />
    <glyph glyph-name="uniE32B" unicode="&#xf62b;" horiz-adv-x="609" 
d="M343 -230v91q72 0 92.5 19t20.5 90v30l-304 446v-446h-95v596h105l295 -434v434h95v-627q0 -114 -42 -156.5t-153 -42.5h-14z" />
    <glyph glyph-name="uniE32C" unicode="&#xe32c;" horiz-adv-x="607" 
d="M25 258v82h61v256h170q139 0 225 -85t86 -213t-88 -213t-220 -85h-173v258h-61zM319 258h-137v-169h71q96 0 156 59.5t60 149.5q0 93 -58.5 151.5t-160.5 58.5h-68v-168h137v-82z" />
    <glyph glyph-name="uniE32C" unicode="&#xf7f0;" horiz-adv-x="607" 
d="M25 258v82h61v256h170q139 0 225 -85t86 -213t-88 -213t-220 -85h-173v258h-61zM319 258h-137v-169h71q96 0 156 59.5t60 149.5q0 93 -58.5 151.5t-160.5 58.5h-68v-168h137v-82z" />
    <glyph glyph-name="uniE32D" unicode="&#xe32d;" horiz-adv-x="502" 
d="M60 0v596h95v-111h115q86 0 140 -53t54 -132q0 -80 -53.5 -133.5t-141.5 -53.5h-114v-113h-95zM267 397h-112v-194h112q46 0 74 27t28 69q0 43 -28 70.5t-74 27.5z" />
    <glyph glyph-name="uniE32D" unicode="&#xf7fe;" horiz-adv-x="502" 
d="M60 0v596h95v-111h115q86 0 140 -53t54 -132q0 -80 -53.5 -133.5t-141.5 -53.5h-114v-113h-95zM267 397h-112v-194h112q46 0 74 27t28 69q0 43 -28 70.5t-74 27.5z" />
    <glyph glyph-name="uniE351" unicode="&#xe351;" horiz-adv-x="375" 
d="M40 440l108 290h80l108 -290h-74l-19 51h-111l-18 -51h-74zM188 642l-33 -88h65z" />
    <glyph glyph-name="uniE352" unicode="&#xe352;" horiz-adv-x="382" 
d="M191 435q-62 0 -106 44t-44 106q0 63 43.5 107t106.5 44t106.5 -43.5t43.5 -107.5q0 -62 -43.5 -106t-106.5 -44zM191 503q35 0 57.5 24t22.5 58q0 36 -22.5 59.5t-57.5 23.5q-33 0 -56.5 -24t-23.5 -59q0 -33 23.5 -57.5t56.5 -24.5z" />
    <glyph glyph-name="uniE353" unicode="&#xe353;" horiz-adv-x="367" 
d="M191 435q-62 0 -106 44t-44 106q0 63 43.5 107t106.5 44q45 0 81 -22.5t54 -59.5l-62 -32q-21 46 -73 46q-34 0 -57 -24t-23 -59q0 -34 23 -58t57 -24q54 0 74 48l63 -30q-19 -39 -54.5 -62.5t-82.5 -23.5z" />
    <glyph glyph-name="uniE38C" unicode="&#xe38c;" horiz-adv-x="617" 
d="M27 499v86h102v9q0 132 46.5 179t176.5 47h9v-89q-90 0 -113.5 -24.5t-23.5 -113.5v-8h137v-86h-137v-499h-95v499h-102zM457 0v585h96v-585h-96zM437 728q0 30 18.5 48.5t49.5 18.5q33 0 51 -18.5t18 -48.5q0 -31 -18 -49.5t-51 -18.5q-32 0 -50 18.5t-18 49.5z" />
    <glyph glyph-name="uniE38C" unicode="&#xfb01;" horiz-adv-x="617" 
d="M27 499v86h102v9q0 132 46.5 179t176.5 47h9v-89q-90 0 -113.5 -24.5t-23.5 -113.5v-8h137v-86h-137v-499h-95v499h-102zM457 0v585h96v-585h-96zM437 728q0 30 18.5 48.5t49.5 18.5q33 0 51 -18.5t18 -48.5q0 -31 -18 -49.5t-51 -18.5q-32 0 -50 18.5t-18 49.5z" />
    <glyph glyph-name="uniE38D" unicode="&#xe38d;" horiz-adv-x="619" 
d="M27 499v86h102v9q0 132 46.5 179t176.5 47h9v-89q-90 0 -113.5 -24.5t-23.5 -113.5v-8h137v-86h-137v-499h-95v499h-102zM458 0v740h96v-740h-96z" />
    </font>
</defs>
</svg>
